<svg width="61" height="44" viewBox="0 0 61 44" fill="none" xmlns="http://www.w3.org/2000/svg">
<g clip-path="url(#clip0_101_7558)">
<path d="M30.6787 37.2851L29.5882 36.5082C25.715 33.7623 23.1579 31.9515 23.1579 29.7289C23.1289 29.321 23.2134 28.913 23.4064 28.5288C23.5994 28.1445 23.8971 27.7917 24.2821 27.4908C24.667 27.1899 25.1316 26.9469 25.6488 26.7761C26.1659 26.6052 26.7253 26.5099 27.2944 26.4956C27.951 26.5044 28.5964 26.6194 29.1824 26.832C29.7684 27.0447 30.2799 27.3495 30.6787 27.7238C31.0776 27.3495 31.5891 27.0447 32.1751 26.832C32.7611 26.6194 33.4065 26.5044 34.0631 26.4956C34.6321 26.5099 35.1915 26.6052 35.7087 26.7761C36.2258 26.9469 36.6904 27.1899 37.0754 27.4908C37.4604 27.7917 37.758 28.1445 37.951 28.5288C38.144 28.913 38.2285 29.321 38.1996 29.7289C38.1996 31.9515 35.6425 33.7623 31.7693 36.5154L30.6787 37.2851Z" fill="#0079C1"/>
<path d="M28.1719 7.61377H33.1858V9.41202H28.1719V7.61377Z" fill="#0079C1"/>
<path d="M23.1583 9.41192C24.5429 9.41192 25.6653 8.60682 25.6653 7.61368C25.6653 6.62053 24.5429 5.81543 23.1583 5.81543C21.7738 5.81543 20.6514 6.62053 20.6514 7.61368C20.6514 8.60682 21.7738 9.41192 23.1583 9.41192Z" fill="#0079C1"/>
<path d="M38.2003 9.41192C39.5849 9.41192 40.7073 8.60682 40.7073 7.61368C40.7073 6.62053 39.5849 5.81543 38.2003 5.81543C36.8158 5.81543 35.6934 6.62053 35.6934 7.61368C35.6934 8.60682 36.8158 9.41192 38.2003 9.41192Z" fill="#0079C1"/>
<path d="M45.7204 18.4034H33.1857V14.8069L40.7065 14.7925C42.6981 14.7934 44.6088 14.2273 46.0189 13.2185C47.429 12.2097 48.2233 10.8407 48.2273 9.41213V5.81564C48.2247 4.38545 47.4314 3.01438 46.0216 2.00308C44.6117 0.991785 42.7003 0.422802 40.7065 0.420898H20.6509C18.6571 0.422802 16.7457 0.991785 15.3358 2.00308C13.926 3.01438 13.1328 4.38545 13.1301 5.81564V9.41213C13.1328 10.8423 13.926 12.2134 15.3358 13.2247C16.7457 14.236 18.6571 14.805 20.6509 14.8069H28.1718V18.4034H15.637C13.6434 18.4057 11.7324 18.9749 10.3227 19.9861C8.91296 20.9973 8.11953 22.368 8.11621 23.7981V38.1841C8.11886 39.6142 8.91209 40.9853 10.3219 41.9966C11.7318 43.0079 13.6432 43.5769 15.637 43.5788H45.7204C47.7142 43.5769 49.6256 43.0079 51.0355 41.9966C52.4453 40.9853 53.2386 39.6142 53.2412 38.1841V23.7981C53.2379 22.368 52.4445 20.9973 51.0347 19.9861C49.625 18.9749 47.714 18.4057 45.7204 18.4034ZM20.6509 11.2104C19.9863 11.2099 19.349 11.0203 18.879 10.6832C18.409 10.346 18.1447 9.8889 18.144 9.41213V5.81564C18.1447 5.33886 18.409 4.88174 18.879 4.54461C19.349 4.20748 19.9863 4.01787 20.6509 4.01739L40.6864 4.02099C41.3527 4.02002 41.9925 4.20822 42.4659 4.54448C42.9394 4.88073 43.2081 5.33772 43.2134 5.81564V9.41213C43.2081 9.89037 42.9396 10.3477 42.4662 10.6846C41.9929 11.0214 41.3532 11.2104 40.6864 11.2104H20.6509ZM48.2273 38.1841C48.2267 38.6608 47.9623 39.1179 47.4923 39.4551C47.0223 39.7922 46.3851 39.9818 45.7204 39.9823H15.637C14.9724 39.9818 14.3351 39.7922 13.8651 39.4551C13.3951 39.1179 13.1308 38.6608 13.1301 38.1841V23.7981C13.1314 23.3215 13.396 22.8646 13.8658 22.5276C14.3357 22.1906 14.9726 22.0008 15.637 21.9998H45.7204C46.3851 22.0003 47.0223 22.1899 47.4923 22.5271C47.9623 22.8642 48.2267 23.3213 48.2273 23.7981V38.1841Z" fill="#0079C1"/>
</g>
<defs>
<clipPath id="clip0_101_7558">
<rect x="0.595703" y="0.420898" width="60.1667" height="43.1579" rx="21.5789" fill="white"/>
</clipPath>
</defs>
</svg>
