<svg width="61" height="44" viewBox="0 0 61 44" fill="none" xmlns="http://www.w3.org/2000/svg">
<g clip-path="url(#clip0_119_7126)">
<path d="M30.083 36.8642L28.9925 36.0873C25.1193 33.3414 22.5622 31.5306 22.5622 29.308C22.5332 28.9001 22.6177 28.4921 22.8107 28.1079C23.0037 27.7236 23.3014 27.3708 23.6864 27.0699C24.0713 26.769 24.5359 26.526 25.0531 26.3552C25.5702 26.1843 26.1296 26.089 26.6986 26.0747C27.3553 26.0835 28.0007 26.1985 28.5867 26.4111C29.1727 26.6238 29.6842 26.9286 30.083 27.3029C30.4819 26.9286 30.9934 26.6238 31.5794 26.4111C32.1654 26.1985 32.8108 26.0835 33.4674 26.0747C34.0364 26.089 34.5958 26.1843 35.113 26.3552C35.6301 26.526 36.0947 26.769 36.4797 27.0699C36.8647 27.3708 37.1623 27.7236 37.3553 28.1079C37.5483 28.4921 37.6328 28.9001 37.6039 29.308C37.6039 31.5306 35.0468 33.3414 31.1735 36.0945L30.083 36.8642Z" fill="white"/>
<path d="M27.5762 7.19287H32.5901V8.99112H27.5762V7.19287Z" fill="white"/>
<path d="M22.5626 8.99102C23.9472 8.99102 25.0696 8.18592 25.0696 7.19278C25.0696 6.19963 23.9472 5.39453 22.5626 5.39453C21.1781 5.39453 20.0557 6.19963 20.0557 7.19278C20.0557 8.18592 21.1781 8.99102 22.5626 8.99102Z" fill="white"/>
<path d="M37.6046 8.99102C38.9892 8.99102 40.1115 8.18592 40.1115 7.19278C40.1115 6.19963 38.9892 5.39453 37.6046 5.39453C36.2201 5.39453 35.0977 6.19963 35.0977 7.19278C35.0977 8.18592 36.2201 8.99102 37.6046 8.99102Z" fill="white"/>
<path d="M45.1247 17.9825H32.59V14.386L40.1108 14.3716C42.1024 14.3725 44.0131 13.8064 45.4232 12.7976C46.8333 11.7888 47.6276 10.4198 47.6316 8.99123V5.39474C47.629 3.96455 46.8357 2.59348 45.4259 1.58218C44.016 0.570887 42.1046 0.00190311 40.1108 0H20.0552C18.0614 0.00190311 16.15 0.570887 14.7401 1.58218C13.3303 2.59348 12.537 3.96455 12.5344 5.39474V8.99123C12.537 10.4214 13.3303 11.7925 14.7401 12.8038C16.15 13.8151 18.0614 14.3841 20.0552 14.386H27.5761V17.9825H15.0413C13.0477 17.9848 11.1367 18.554 9.72697 19.5652C8.31726 20.5764 7.52382 21.9471 7.52051 23.3772V37.7632C7.52316 39.1933 8.31638 40.5644 9.72624 41.5757C11.1361 42.587 13.0475 43.156 15.0413 43.1579H45.1247C47.1185 43.156 49.0299 42.587 50.4398 41.5757C51.8496 40.5644 52.6429 39.1933 52.6455 37.7632V23.3772C52.6422 21.9471 51.8488 20.5764 50.439 19.5652C49.0293 18.554 47.1183 17.9848 45.1247 17.9825V17.9825ZM20.0552 10.7895C19.3906 10.789 18.7533 10.5994 18.2833 10.2623C17.8133 9.92512 17.5489 9.46801 17.5483 8.99123V5.39474C17.5489 4.91796 17.8133 4.46084 18.2833 4.12371C18.7533 3.78658 19.3906 3.59697 20.0552 3.59649L40.0907 3.60009C40.757 3.59912 41.3967 3.78732 41.8702 4.12358C42.3437 4.45983 42.6124 4.91682 42.6177 5.39474V8.99123C42.6124 9.46947 42.3439 9.92683 41.8705 10.2637C41.3972 10.6005 40.7575 10.7895 40.0907 10.7895H20.0552ZM47.6316 37.7632C47.631 38.2399 47.3666 38.697 46.8966 39.0342C46.4266 39.3713 45.7894 39.5609 45.1247 39.5614H15.0413C14.3767 39.5609 13.7394 39.3713 13.2694 39.0342C12.7994 38.697 12.5351 38.2399 12.5344 37.7632V23.3772C12.5357 22.9006 12.8003 22.4437 13.2701 22.1067C13.74 21.7697 14.3769 21.5799 15.0413 21.5789H45.1247C45.7894 21.5794 46.4266 21.769 46.8966 22.1062C47.3666 22.4433 47.631 22.9004 47.6316 23.3772V37.7632Z" fill="white"/>
</g>
<defs>
<clipPath id="clip0_119_7126">
<rect width="60.1667" height="43.1579" rx="21.5789" fill="white"/>
</clipPath>
</defs>
</svg>
