<svg width="170" height="170" viewBox="0 0 170 170" fill="none" xmlns="http://www.w3.org/2000/svg">
<rect width="170" height="170" rx="85" fill="#8CD3F8"/>
<path d="M95.9303 125.664H65.2378C59.9737 125.664 55.667 121.497 55.667 116.404V90.169C55.667 85.0762 59.9737 80.9097 65.2378 80.9097H95.9307C101.195 80.9097 105.502 85.0762 105.502 90.169V116.404C105.502 121.497 101.194 125.664 95.9303 125.664Z" fill="white"/>
<path d="M95.9314 80.9103C101.195 80.9103 105.502 85.0769 105.502 90.1697V116.405C105.502 121.498 101.195 125.664 95.9314 125.664H65.2389C59.9748 125.664 55.6681 121.498 55.6681 116.405V90.1697C55.6681 85.0769 59.9748 80.9103 65.2389 80.9103H95.9314V80.9103ZM95.9314 79.4468H65.2389C63.7481 79.4468 62.2989 79.732 60.9313 80.294C59.613 80.8359 58.4283 81.6099 57.4099 82.5955C56.3916 83.5807 55.5911 84.7273 55.031 86.0023C54.4501 87.3253 54.1553 88.7274 54.1553 90.1697V116.405C54.1553 117.847 54.4501 119.249 55.031 120.572C55.5911 121.848 56.3912 122.994 57.4099 123.979C58.4283 124.964 59.6134 125.739 60.9313 126.281C62.2989 126.843 63.7481 127.128 65.2389 127.128H95.9318C97.4226 127.128 98.8718 126.843 100.239 126.281C101.558 125.739 102.742 124.965 103.761 123.979C104.779 122.994 105.58 121.847 106.14 120.572C106.721 119.249 107.015 117.847 107.015 116.405V90.1697C107.015 88.7274 106.721 87.3253 106.14 86.0023C105.58 84.7269 104.78 83.5807 103.761 82.5955C102.742 81.6103 101.557 80.8359 100.239 80.294C98.8718 79.732 97.4221 79.4468 95.9314 79.4468Z" fill="#00227B"/>
<path d="M104.814 109.442C100.036 109.984 95.2724 110.117 95.2724 110.117C95.2724 110.117 92.8467 98.4156 92.1742 89.2395C91.6788 82.4406 92.1448 77.03 95.2724 78.7947C96.7113 79.6067 98.3684 81.1359 100.096 83.0758C106.578 90.3539 114.024 103.423 114.433 106.135C114.696 107.879 109.749 108.879 104.814 109.442Z" fill="white"/>
<path d="M94.6333 110.896L94.5028 110.267C94.4881 110.195 93.0046 103.005 92.0447 95.5597C91.4784 91.1703 91.2018 87.5461 91.2217 84.7883C91.2489 81.0215 91.8143 78.8851 93.0008 78.0651C93.5216 77.7051 94.4077 77.4257 95.6698 78.1379C99.8304 80.4863 105.111 87.9672 107.888 92.2173C109.741 95.0525 111.514 98.0327 112.882 100.609C113.846 102.423 115.033 104.836 115.212 106.024C115.264 106.369 115.229 106.892 114.767 107.425C114.098 108.195 112.71 108.798 110.396 109.322C108.699 109.706 106.52 110.036 103.917 110.304C99.5101 110.756 95.3378 110.876 95.2963 110.878L94.6333 110.896ZM94.1898 79.218C94.0381 79.218 93.9586 79.2732 93.9149 79.3029C93.4019 79.6575 91.864 81.8629 93.6041 95.3636C94.3925 101.478 95.5366 107.422 95.917 109.333C97.2586 109.281 100.442 109.131 103.759 108.789C111.46 107.997 113.18 106.887 113.563 106.446C113.669 106.325 113.66 106.268 113.656 106.244C113.433 104.766 110.528 99.1032 106.559 93.0302C101.963 85.9972 97.706 81.0479 94.8775 79.4517C94.5568 79.2707 94.3385 79.218 94.1898 79.218Z" fill="#00227B"/>
<path d="M70.9561 78.3626L69.9888 85.4412L69.4386 89.4655L68.2651 98.0579C68.2651 98.0579 66.1204 99.4692 62.5528 100.587C61.2198 101.006 59.6845 101.38 57.9902 101.626C55.2204 102.029 52.0181 102.08 48.5486 101.394C39.6222 99.6247 34.2652 93.2102 31.9458 89.9849C27.4632 83.7597 26.7734 82.0767 28.0195 79.456C28.9708 77.4476 30.6007 77.0809 30.6007 77.0809C30.6007 77.0809 30.5203 75.476 31.8335 74.9052C35.7689 73.1954 40.8385 77.7617 40.8385 77.7617C40.8385 77.7617 41.0274 72.8512 43.7439 73.9848C45.6155 74.7664 46.0399 80.1126 46.0399 80.1126C46.0399 80.1126 48.552 83.2354 52.5428 83.6498C54.6283 83.8664 57.5143 83.281 60.3804 82.4308C60.4137 82.4212 60.4474 82.412 60.4807 82.4003C62.0082 81.9441 63.5257 81.4151 64.9153 80.892C65.5386 80.6583 66.1359 80.4241 66.6961 80.2C69.2004 79.1955 70.9561 78.3626 70.9561 78.3626Z" fill="white"/>
<path opacity="0.35" d="M31.9459 89.9845C34.2674 93.2089 39.6235 99.6248 48.549 101.393C54.1399 102.5 59.0392 101.687 62.5545 100.586C66.1221 99.4688 68.2664 98.0567 68.2664 98.0567L68.4237 91.2762C68.4237 91.2762 65.9929 89.0098 63.7289 89.9339C61.0084 91.0441 61.8802 94.818 57.9949 95.8676C47.194 98.7855 38.4198 93.4544 35.5965 91.1139C31.6796 87.8673 30.6578 85.8225 30.1067 84.9787C28.9661 83.2329 28.0852 81.8609 27.5886 80.6323C27.0824 82.7106 28.163 84.729 31.9459 89.9845Z" fill="#00227B"/>
<path d="M53.9349 102.682C52.0712 102.682 50.2152 102.501 48.3912 102.139C44.3788 101.344 40.6353 99.5543 37.2652 96.8187C35.0963 95.0583 33.0894 92.9052 31.3009 90.4205C29.1181 87.3876 27.7307 85.3043 27.0979 83.6308C26.4915 82.0272 26.5516 80.7259 27.3045 79.1385C28.0458 77.5754 29.1665 76.8566 29.8438 76.5484C29.9545 75.7447 30.3854 74.7023 31.5118 74.213C34.712 72.8222 38.405 74.9745 40.2329 76.2992C40.2506 76.2093 40.2705 76.1173 40.2916 76.0241C40.5946 74.7094 41.1176 73.817 41.8459 73.3725C42.2933 73.0995 43.0398 72.8632 44.0576 73.2885C45.0902 73.72 45.8436 74.9908 46.3614 77.1732C46.6264 78.2913 46.7539 79.3409 46.8019 79.8059C47.3577 80.4147 49.5301 82.5725 52.6283 82.894C58.284 83.4803 70.4875 77.7381 70.6103 77.68C70.8705 77.5566 71.1799 77.5817 71.4151 77.7456C71.6502 77.9091 71.7734 78.1851 71.7358 78.4628L69.0465 98.1573C69.0171 98.3722 68.8948 98.5646 68.7093 98.6862C68.6194 98.7456 66.4626 100.152 62.8764 101.286C60.7758 101.95 58.6147 102.382 56.4535 102.571C55.6137 102.645 54.7734 102.682 53.9349 102.682ZM30.7835 77.8205C30.6819 77.8472 29.4816 78.1952 28.7334 79.7725C27.7259 81.8967 27.9736 83.1349 32.5911 89.5507C36.9324 95.5822 42.5047 99.4197 48.7063 100.648C54.3568 101.768 59.2647 100.826 62.3871 99.8391C65.0341 99.0024 66.8594 98.0042 67.5345 97.6057L69.9879 79.6416C68.7063 80.2078 66.61 81.0972 64.2574 81.9502C59.0205 83.8487 55.0509 84.675 52.4606 84.4065C48.1872 83.9637 45.5315 80.7187 45.4205 80.5808C45.3258 80.4628 45.2688 80.3207 45.2571 80.1718C45.2562 80.1593 45.1495 78.8609 44.8244 77.4968C44.2768 75.1974 43.6215 74.7629 43.4339 74.6847C42.9645 74.4886 42.7618 74.6119 42.6853 74.6584C42.0244 75.0606 41.6666 76.7324 41.6233 77.7908C41.6112 78.0877 41.4211 78.3511 41.1371 78.4644C40.8527 78.5778 40.5268 78.5209 40.3016 78.3181C40.2549 78.2763 35.5665 74.1181 32.1558 75.6005C31.37 75.9421 31.3843 76.9725 31.3865 77.0465C31.4098 77.422 31.1634 77.7427 30.7835 77.8205Z" fill="#00227B"/>
<path d="M41.4876 77.7607C41.5058 77.9744 41.4729 78.1688 41.4289 78.3373C41.4068 78.4243 41.3796 78.4996 41.3519 78.5769C41.3238 78.6493 41.2931 78.7229 41.2629 78.7885C41.1388 79.0587 41.0048 79.2824 40.8773 79.4994C40.7494 79.7152 40.6262 79.9205 40.5117 80.1262L40.4278 80.2809C40.4014 80.3328 40.3734 80.3842 40.3478 80.4365L40.2735 80.5937L40.2026 80.7526L40.1382 80.914L40.0786 81.078C40.0583 81.1327 40.0431 81.1888 40.025 81.2444C40.006 81.3 39.9917 81.3569 39.9761 81.4133C39.9165 81.6408 39.8651 81.875 39.8352 82.1162C39.8028 82.3571 39.7821 82.6042 39.776 82.8555C39.7695 82.9818 39.7721 83.1081 39.7708 83.2369C39.7687 83.3013 39.7743 83.3649 39.7747 83.4297C39.776 83.4945 39.7782 83.5593 39.7777 83.625V83.6296C39.7777 83.6802 39.7354 83.7211 39.6827 83.7211C39.6459 83.7211 39.6144 83.7011 39.5988 83.6714C39.4726 83.4347 39.3585 83.1888 39.2703 82.9321C39.1774 82.6762 39.1108 82.4094 39.062 82.1363C38.966 81.5902 38.9682 81.0123 39.0736 80.4478L39.1173 80.237C39.1342 80.1676 39.1527 80.0986 39.1705 80.0288C39.1895 79.9598 39.2107 79.8921 39.2305 79.8231C39.2513 79.7549 39.2759 79.6884 39.2988 79.6211C39.3935 79.3535 39.5106 79.0992 39.6312 78.8609C39.7514 78.6229 39.8793 78.3984 39.983 78.2035C40.0924 78.0062 40.1542 77.846 40.1905 77.7594L40.2666 77.5784C40.3989 77.2643 40.7693 77.1134 41.0939 77.2413C41.3234 77.3325 41.4682 77.5378 41.4876 77.7607Z" fill="#00227B"/>
<path d="M47.6864 101.915C47.488 101.915 47.2965 101.809 47.2023 101.626C47.0692 101.367 47.1781 101.054 47.4452 100.925C49.6249 99.8756 51.1144 96.6014 51.7515 91.4559C52.2455 87.4683 52.0402 83.7597 52.0381 83.7229C52.0217 83.4348 52.2494 83.1881 52.5472 83.1717C52.8438 83.1554 53.1001 83.3762 53.1169 83.6643C53.1191 83.702 53.3296 87.4897 52.826 91.5663C52.5282 93.9787 52.042 96.0256 51.3807 97.6501C50.5248 99.7526 49.3626 101.169 47.9267 101.861C47.8494 101.898 47.7672 101.915 47.6864 101.915Z" fill="#00227B"/>
<g opacity="0.35">
<g opacity="0.35">
<g opacity="0.35">
<g opacity="0.35">
<path opacity="0.35" d="M117.415 135.562V135.455C116.551 135.491 117.415 135.562 117.415 135.562Z" fill="#00227B"/>
</g>
</g>
</g>
</g>
<path d="M106.507 122.719H54.6006C54.6006 122.719 54.917 114.053 57.9875 101.625C59.2181 96.6404 60.893 91.0509 63.1673 85.1724C63.7137 83.7611 64.2959 82.3331 64.9131 80.8912C66.639 76.869 68.6519 72.7497 70.9993 68.6304H90.1086C92.0488 72.0363 93.7609 75.4405 95.2707 78.7933C96.2475 80.9615 97.14 83.1067 97.9539 85.2138C101.506 94.3995 103.592 102.878 104.813 109.441C106.318 117.537 106.507 122.719 106.507 122.719Z" fill="white"/>
<path d="M99.383 91.678C100.386 92.7615 100.845 94.0226 101.268 95.2893C101.481 95.9228 101.691 96.5575 101.891 97.1952C101.991 97.5139 102.094 97.8321 102.183 98.1536C102.276 98.4744 102.365 98.7964 102.455 99.1179L102.718 100.084C102.804 100.407 102.891 100.729 102.973 101.053L103.45 102.997C103.528 103.322 103.613 103.644 103.689 103.969L103.917 104.943L104.151 105.916C104.23 106.24 104.311 106.564 104.384 106.889L104.835 108.839C104.912 109.164 104.979 109.491 105.05 109.817L105.261 110.795L105.366 111.283L105.419 111.528L105.468 111.773L105.666 112.754C105.732 113.081 105.799 113.407 105.871 113.733C105.939 114.06 106.008 114.386 106.08 114.712C106.38 116.014 106.6 117.333 106.691 118.668C106.703 118.835 106.716 119.001 106.724 119.169L106.746 119.671C106.758 120.007 106.767 120.342 106.762 120.679C106.76 121.016 106.752 121.353 106.73 121.691C106.709 122.029 106.68 122.368 106.628 122.708C106.618 122.774 106.554 122.819 106.486 122.81C106.44 122.803 106.404 122.772 106.388 122.733L106.388 122.731C106.14 122.094 105.937 121.453 105.745 120.812C105.651 120.492 105.56 120.171 105.473 119.85L105.346 119.368C105.307 119.207 105.266 119.047 105.224 118.886C105.063 118.242 104.922 117.597 104.794 116.949C104.733 116.624 104.677 116.299 104.626 115.973C104.571 115.647 104.52 115.321 104.468 114.995C104.417 114.668 104.364 114.342 104.309 114.017C104.251 113.691 104.187 113.367 104.122 113.043L103.926 112.071L103.877 111.828L103.825 111.585L103.72 111.101L103.511 110.131C103.44 109.808 103.374 109.484 103.297 109.162L102.85 107.229C102.779 106.906 102.695 106.585 102.616 106.264L102.371 105.302L102.121 104.342C102.081 104.181 102.034 104.022 101.99 103.863L101.856 103.385L101.316 101.474C101.129 100.839 100.938 100.205 100.756 99.5683C100.665 99.2501 100.575 98.9318 100.487 98.6128L100.421 98.3736L100.351 98.1353L100.214 97.6581C100.031 97.0221 99.8581 96.3832 99.6873 95.7434L99.562 95.2625C99.5201 95.1023 99.4738 94.9434 99.4297 94.7837C99.342 94.4642 99.2685 94.1406 99.2132 93.8115C99.1583 93.482 99.1198 93.1474 99.1051 92.8054C99.0973 92.6344 99.0965 92.4612 99.103 92.2856C99.1099 92.11 99.1215 91.9323 99.1535 91.7487L99.1548 91.7416C99.1669 91.6722 99.2348 91.6253 99.3065 91.637C99.3372 91.6425 99.364 91.6575 99.383 91.678Z" fill="#00227B"/>
<path d="M54.4803 122.716C54.4004 122.543 54.3455 122.372 54.2941 122.2C54.2426 122.028 54.2041 121.858 54.17 121.687C54.1008 121.344 54.0637 121.003 54.0429 120.663C54.0334 120.493 54.0269 120.323 54.0274 120.154C54.0278 119.984 54.0347 119.816 54.0429 119.647L54.0723 119.142C54.0814 118.973 54.0922 118.805 54.1065 118.636C54.1605 117.964 54.2132 117.291 54.2945 116.622C54.3312 116.286 54.3723 115.952 54.4129 115.617C54.4328 115.45 54.4596 115.283 54.4829 115.116L54.556 114.615L54.7086 113.616C54.7622 113.283 54.8244 112.952 54.8827 112.62C55.002 111.956 55.1144 111.291 55.2506 110.631C55.3828 109.97 55.5039 109.307 55.6391 108.647C55.7766 107.988 55.9106 107.328 56.0428 106.667C56.0766 106.502 56.1068 106.336 56.1436 106.172L56.2525 105.679L56.4699 104.692L56.6873 103.705C56.7059 103.622 56.7227 103.54 56.7422 103.458L56.8018 103.213L56.9211 102.721L57.3979 100.756C57.4363 100.592 57.4796 100.429 57.5224 100.266C57.5639 100.103 57.6062 99.9397 57.646 99.7762C57.7264 99.4488 57.8059 99.1214 57.8824 98.7931C57.9606 98.4653 58.0371 98.1366 58.118 97.8092C58.1958 97.4809 58.2935 97.1581 58.3911 96.8349C58.491 96.5125 58.5969 96.1917 58.708 95.8723C58.8195 95.5532 58.9379 95.2358 59.0576 94.9193L59.2426 94.4459C59.2737 94.3673 59.3083 94.2895 59.342 94.2113C59.3762 94.1336 59.409 94.0554 59.4445 93.9776C59.5841 93.6669 59.7254 93.3575 59.8758 93.0509C60.0245 92.7436 60.1797 92.4388 60.3426 92.1368C60.5056 91.8349 60.6746 91.5351 60.8622 91.2416C60.8981 91.1851 60.9746 91.1676 61.0329 91.2027C61.0727 91.2265 61.0939 91.2687 61.0917 91.3114V91.3131C61.0139 92.693 60.7468 94.006 60.4831 95.3186C60.4153 95.646 60.3461 95.973 60.27 96.2984C60.1935 96.6233 60.1114 96.9465 60.0241 97.2681C59.8417 97.9095 59.6584 98.5506 59.4674 99.1904C59.3719 99.5103 59.2789 99.8306 59.1869 100.151C59.1402 100.311 59.0965 100.472 59.052 100.633C59.0084 100.794 58.9634 100.955 58.9262 101.117L58.4547 103.061L58.3367 103.547L58.2779 103.79C58.2584 103.871 58.2416 103.953 58.2234 104.034L58.0082 105.01L57.7929 105.987L57.6853 106.475C57.6494 106.638 57.6192 106.802 57.5859 106.965C57.0335 109.574 56.6622 112.214 56.3013 114.849L56.1613 115.836C56.1176 116.166 56.074 116.495 56.0264 116.825L55.7481 118.8C55.6975 119.129 55.6569 119.458 55.611 119.787C55.5873 119.951 55.5622 120.116 55.5307 120.28C55.4995 120.444 55.4688 120.608 55.4308 120.771C55.3552 121.098 55.2614 121.424 55.1503 121.75C55.095 121.912 55.0288 122.075 54.961 122.238C54.8914 122.4 54.8157 122.563 54.7224 122.725L54.7215 122.726C54.6852 122.789 54.6035 122.812 54.5387 122.777C54.5115 122.762 54.492 122.74 54.4803 122.716Z" fill="#00227B"/>
<path d="M69.5517 111.785C66.5914 112.945 62.0098 112.702 58.8865 112.336C57.0132 112.117 55.698 110.444 55.9742 108.638C56.2261 106.99 57.7255 105.792 59.4454 105.87C62.3668 106.002 66.7492 106.064 69.5245 105.469" fill="white"/>
<g opacity="0.35">
<g opacity="0.35">
<g opacity="0.35">
<g opacity="0.35">
<path opacity="0.35" d="M69.5532 111.785C66.592 112.946 62.0103 112.701 58.8871 112.338C57.0138 112.118 55.6989 110.445 55.9751 108.64C56.03 108.271 56.1498 107.926 56.3196 107.61C56.8128 108.521 57.7468 109.193 58.8871 109.326C62.0047 109.692 66.5786 109.935 69.5402 108.781L69.5532 111.785Z" fill="#00227B"/>
</g>
</g>
</g>
</g>
<path d="M63.668 113.399C61.955 113.399 60.2521 113.262 58.7937 113.091C57.6769 112.96 56.6858 112.412 56.0028 111.546C55.3186 110.679 55.0329 109.607 55.198 108.527C55.3484 107.543 55.868 106.653 56.6607 106.02C57.4543 105.387 58.457 105.063 59.484 105.11C63.7877 105.305 67.2935 105.169 69.3556 104.726C69.7697 104.638 70.7984 104.634 71.4057 106.523C72.0225 108.442 71.9542 111.666 69.8488 112.49C68.1126 113.17 65.8823 113.399 63.668 113.399ZM59.2878 106.626C58.0196 106.626 56.9416 107.52 56.754 108.749C56.6516 109.419 56.8288 110.085 57.2533 110.623C57.6764 111.159 58.2906 111.499 58.983 111.58C63.4493 112.103 67.099 111.925 69.2588 111.079C69.9003 110.828 70.0844 109.822 70.1341 109.402C70.307 107.93 69.8441 106.57 69.554 106.241C66.7394 106.813 62.4979 106.769 59.4109 106.629C59.3695 106.627 59.3284 106.626 59.2878 106.626Z" fill="#00227B"/>
<path d="M92.1992 111.785C95.1595 112.945 99.7411 112.702 102.864 112.336C104.738 112.117 106.053 110.444 105.777 108.638C105.525 106.99 104.025 105.792 102.306 105.87C99.3841 106.002 95.0018 106.064 92.2264 105.469" fill="white"/>
<g opacity="0.35">
<g opacity="0.35">
<g opacity="0.35">
<g opacity="0.35">
<path opacity="0.35" d="M102.863 112.336C99.7401 112.7 95.1589 112.945 92.1973 111.784L92.2102 108.752C95.1714 109.906 99.7452 109.663 102.863 109.297C103.998 109.166 104.927 108.499 105.423 107.593C105.598 107.911 105.72 108.262 105.778 108.638C106.052 110.443 104.737 112.117 102.863 112.336Z" fill="#00227B"/>
</g>
</g>
</g>
</g>
<path d="M98.0801 113.399C95.8658 113.399 93.6359 113.17 91.8992 112.49C89.7938 111.666 89.7255 108.442 90.3423 106.523C90.9492 104.635 91.9783 104.638 92.3924 104.726C94.455 105.169 97.9608 105.305 102.264 105.11C103.292 105.064 104.294 105.387 105.087 106.02C105.88 106.653 106.4 107.543 106.55 108.527C106.715 109.607 106.429 110.679 105.745 111.546C105.062 112.412 104.071 112.96 102.954 113.091C101.496 113.262 99.7926 113.399 98.0801 113.399ZM92.1944 106.241C91.9044 106.57 91.4415 107.93 91.6144 109.402C91.6636 109.823 91.8478 110.828 92.4896 111.08C94.6495 111.926 98.2992 112.104 102.765 111.581C103.457 111.5 104.072 111.16 104.495 110.623C104.92 110.085 105.097 109.42 104.994 108.749C104.801 107.481 103.659 106.57 102.338 106.63C99.2501 106.77 95.0091 106.813 92.1944 106.241Z" fill="#00227B"/>
<path d="M93.3433 103.382V113.504C93.3433 115.382 91.7544 116.919 89.8133 116.919H70.545C68.6064 116.919 67.0176 115.382 67.0176 113.504V103.382C67.0176 101.504 68.6064 99.9692 70.545 99.9692H89.8133C90.9561 99.9692 91.9761 100.502 92.6232 101.322C93.0744 101.895 93.3433 102.61 93.3433 103.382Z" fill="white"/>
<g opacity="0.35">
<g opacity="0.35">
<g opacity="0.35">
<g opacity="0.35">
<path opacity="0.35" d="M93.3437 103.382V113.504C93.3437 115.382 91.7557 116.918 89.8146 116.918H70.5467C68.6056 116.918 67.0176 115.382 67.0176 113.504V109.718C69.9113 112.572 75.6025 114.364 80.8221 114.391C82.4991 114.399 83.852 113.116 83.9717 111.497C83.973 111.481 83.9743 111.465 83.9756 111.449C84.104 110.029 85.3129 108.879 86.7825 108.776C88.4561 108.66 89.869 109.856 90.0346 111.41C92.561 108.392 91.821 103.148 92.6245 101.322C93.0762 101.895 93.3437 102.609 93.3437 103.382Z" fill="#00227B"/>
</g>
</g>
</g>
</g>
<path d="M89.8108 117.677H70.542C68.1631 117.677 66.2275 115.804 66.2275 113.503V103.38C66.2275 101.078 68.1631 99.2056 70.542 99.2056H89.8108C92.1897 99.2056 94.1253 101.078 94.1253 103.38V113.503C94.1253 115.804 92.1897 117.677 89.8108 117.677ZM70.542 100.727C69.0301 100.727 67.8 101.917 67.8 103.38V113.503C67.8 114.966 69.0301 116.156 70.542 116.156H89.8108C91.3227 116.156 92.5528 114.966 92.5528 113.503V103.38C92.5528 101.917 91.3227 100.727 89.8108 100.727H70.542Z" fill="#00227B"/>
<path d="M87.0048 111.386C88.6854 111.386 90.0477 110.068 90.0477 108.442C90.0477 106.817 88.6854 105.499 87.0048 105.499C85.3243 105.499 83.9619 106.817 83.9619 108.442C83.9619 110.068 85.3243 111.386 87.0048 111.386Z" fill="#22A7F0"/>
<g opacity="0.7">
<g opacity="0.7">
<g opacity="0.7">
<g opacity="0.7">
<path opacity="0.7" d="M90.0481 108.442C90.0481 108.644 90.0282 108.839 89.9889 109.03C89.708 107.684 88.4787 106.672 87.0061 106.672C85.5313 106.672 84.3021 107.684 84.0211 109.03C83.9818 108.839 83.9619 108.644 83.9619 108.442C83.9619 106.815 85.3247 105.499 87.0061 105.499C88.6849 105.499 90.0481 106.815 90.0481 108.442Z" fill="white"/>
</g>
</g>
</g>
</g>
<g opacity="0.35">
<g opacity="0.35">
<g opacity="0.35">
<g opacity="0.35">
<path opacity="0.35" d="M90.045 108.442C90.045 110.068 88.683 111.386 87.003 111.386C85.3229 111.386 83.9609 110.068 83.9609 108.442C83.9609 108.067 84.034 107.708 84.1697 107.377C84.608 108.476 85.7119 109.253 87.0034 109.253C88.2949 109.253 89.3984 108.476 89.8371 107.377C89.9719 107.708 90.045 108.066 90.045 108.442Z" fill="#00227B"/>
</g>
</g>
</g>
</g>
<path d="M87.0006 111.959C84.9977 111.959 83.3682 110.382 83.3682 108.444C83.3682 106.507 84.9977 104.93 87.0006 104.93C89.0036 104.93 90.6331 106.507 90.6331 108.444C90.6331 110.382 89.0036 111.959 87.0006 111.959ZM87.0006 106.071C85.6482 106.071 84.5477 107.136 84.5477 108.444C84.5477 109.753 85.6482 110.817 87.0006 110.817C88.353 110.817 89.4535 109.753 89.4535 108.444C89.4535 107.136 88.353 106.071 87.0006 106.071Z" fill="#00227B"/>
<path d="M78.3813 117.489C78.0554 117.489 77.7918 117.234 77.7918 116.919V109.986L73.9385 107.179V99.9688C73.9385 99.6535 74.2026 99.3984 74.528 99.3984C74.8535 99.3984 75.1176 99.6539 75.1176 99.9688V106.61L78.9709 109.416V116.919C78.9709 117.234 78.7068 117.489 78.3813 117.489Z" fill="#00227B"/>
<path d="M80.5547 122.367C83.9632 122.367 87.2408 121.144 89.8009 118.966C93.3469 115.95 99.3164 112.354 105.905 114.661C108.549 115.586 110.351 117.283 111.58 119.161C114.746 112.065 121.386 111.64 124.261 115.661C124.261 115.661 119.429 137.961 117.855 138.457C115.599 139.168 110.179 138.421 110.179 138.421C110.179 138.421 91.3223 135.951 80.5547 135.951C69.787 135.951 50.9306 138.421 50.9306 138.421C50.9306 138.421 45.5105 139.168 43.2547 138.457C41.6801 137.961 36.8486 115.661 36.8486 115.661C39.7225 111.639 46.3637 112.065 49.5293 119.161C50.7582 117.283 52.5601 115.586 55.2041 114.661C61.7929 112.354 67.7625 115.95 71.3085 118.966C73.8685 121.143 77.1461 122.367 80.5547 122.367Z" fill="white"/>
<g opacity="0.35">
<path d="M124.263 115.662C124.263 115.662 119.431 137.962 117.857 138.459C115.602 139.17 110.18 138.423 110.18 138.423C110.18 138.423 91.3248 135.952 80.5563 135.952C69.7899 135.952 50.9322 138.423 50.9322 138.423C50.9322 138.423 45.5125 139.17 43.258 138.459C41.6834 137.962 36.8516 115.662 36.8516 115.662C37.3253 115 37.8993 114.458 38.5442 114.047C40.0933 120.586 42.2907 129.123 43.258 129.427C45.513 130.136 50.9322 129.389 50.9322 129.389C50.9322 129.389 69.7899 124.448 80.5563 124.448C91.3248 124.448 110.18 129.389 110.18 129.389C110.18 129.389 115.602 130.136 117.857 129.427C118.824 129.123 121.021 120.586 122.571 114.047C123.215 114.458 123.789 115 124.263 115.662Z" fill="#00227B"/>
</g>
<path d="M46.1657 139.522C44.9832 139.522 43.8278 139.437 43.0152 139.181C42.4611 139.006 41.9952 138.412 41.1208 135.776C40.609 134.234 39.9948 132.086 39.2959 129.392C38.0373 124.542 36.8106 119.103 36.3416 116.989C36.0961 115.883 36.4709 114.738 37.3202 114.003C38.9506 112.591 41.1359 112.048 43.3152 112.512C44.6888 112.804 46.0253 113.498 47.1802 114.518C48.1367 115.363 48.9683 116.419 49.6616 117.667C51.0685 115.93 52.8398 114.681 54.9413 113.945C57.3224 113.111 59.8138 112.946 62.3466 113.453C64.3915 113.863 66.4709 114.712 68.5266 115.978C68.8931 116.204 69.0008 116.674 68.7678 117.029C68.5348 117.383 68.0486 117.487 67.682 117.262C63.451 114.656 59.3444 114.022 55.4764 115.376C53.2949 116.14 51.5189 117.55 50.1984 119.568C50.0424 119.806 49.7623 119.942 49.4723 119.92C49.1818 119.898 48.9277 119.722 48.8118 119.463C47.4892 116.498 45.3627 114.506 42.9772 113.998C41.2976 113.641 39.6179 114.056 38.3692 115.138C37.9396 115.509 37.752 116.097 37.8795 116.671C38.3221 118.666 39.4822 123.812 40.6907 128.515C41.355 131.099 41.9437 133.202 42.4408 134.764C43.1367 136.951 43.5002 137.593 43.6294 137.772C45.4059 138.254 49.4014 137.865 50.8243 137.669C50.826 137.668 50.8277 137.668 50.8295 137.668C51.0184 137.643 69.8622 135.191 80.559 135.191C91.2562 135.191 110.1 137.643 110.288 137.668C110.29 137.668 110.292 137.668 110.294 137.669C111.717 137.865 115.712 138.254 117.489 137.772C117.616 137.596 117.97 136.973 118.642 134.875C119.128 133.362 119.702 131.323 120.35 128.815C121.506 124.343 122.614 119.477 123.171 116.975C123.354 116.155 123.037 115.314 122.362 114.833C121.076 113.915 119.481 113.642 117.872 114.062C115.568 114.665 113.591 116.583 112.307 119.463C112.191 119.722 111.937 119.898 111.646 119.92C111.355 119.942 111.076 119.807 110.92 119.569C109.599 117.551 107.824 116.14 105.642 115.377C101.74 114.01 97.5987 114.667 93.3313 117.328C92.9661 117.555 92.4798 117.454 92.2443 117.1C92.0091 116.747 92.1142 116.276 92.4794 116.048C94.5476 114.759 96.6404 113.891 98.6996 113.468C101.258 112.943 103.774 113.104 106.178 113.946C108.279 114.681 110.05 115.931 111.458 117.668C112.935 115.011 115.033 113.228 117.462 112.593C119.513 112.057 121.639 112.427 123.296 113.609C124.467 114.444 125.022 115.891 124.709 117.295C124.119 119.946 122.948 125.082 121.744 129.693C121.062 132.308 120.462 134.392 119.962 135.885C119.109 138.433 118.65 139.009 118.103 139.182C115.712 139.935 110.349 139.213 110.076 139.175C109.78 139.137 91.1192 136.713 80.5594 136.713C69.9979 136.713 51.3386 139.137 51.043 139.175C50.8615 139.199 48.463 139.522 46.1657 139.522Z" fill="#00227B"/>
<path d="M116.456 138.459H117.857C119.501 138.459 120.992 137.526 121.661 136.074C123.757 131.532 127.58 121.553 124 115.463C123.895 115.285 123.784 115.114 123.666 114.95C123.666 114.95 120.229 111.926 117.759 116.204C115.453 120.201 110.612 137.292 116.456 138.459Z" fill="#AFAFB2"/>
<g opacity="0.7">
<g opacity="0.7">
<g opacity="0.7">
<g opacity="0.7">
<path opacity="0.7" d="M116.499 119.052C116.561 118.957 116.623 118.866 116.683 118.782C119.719 114.504 123.945 117.528 123.945 117.528C124.09 117.692 124.228 117.863 124.355 118.041C124.779 118.627 125.118 119.249 125.383 119.9C125.212 118.3 124.784 116.788 124.004 115.462C123.9 115.285 123.788 115.114 123.67 114.95C123.67 114.95 120.233 111.925 117.764 116.204C117.389 116.852 116.949 117.841 116.499 119.052Z" fill="white"/>
</g>
</g>
</g>
</g>
<path d="M125.361 120.355C125.325 120.355 125.289 120.352 125.253 120.346L116.662 118.959C116.309 118.902 116.07 118.579 116.129 118.237C116.188 117.895 116.522 117.664 116.875 117.721L125.466 119.108C125.819 119.165 126.058 119.489 125.999 119.831C125.946 120.138 125.672 120.355 125.361 120.355Z" fill="#00227B"/>
<path d="M125.306 124.848C125.277 124.848 125.248 124.846 125.218 124.842L115.169 123.535C114.814 123.489 114.565 123.173 114.612 122.83C114.66 122.487 114.986 122.246 115.341 122.292L125.391 123.599C125.746 123.645 125.995 123.961 125.947 124.304C125.904 124.619 125.625 124.848 125.306 124.848Z" fill="#00227B"/>
<path d="M124.419 129.246C124.392 129.246 124.366 129.244 124.339 129.241L114.137 128.033C113.782 127.991 113.529 127.678 113.572 127.334C113.616 126.991 113.939 126.746 114.294 126.788L124.496 127.996C124.852 128.038 125.104 128.351 125.061 128.695C125.021 129.013 124.741 129.246 124.419 129.246Z" fill="#00227B"/>
<path d="M122.802 134.041C122.783 134.041 122.763 134.041 122.743 134.039L113.622 133.243C113.266 133.212 113.003 132.907 113.035 132.562C113.067 132.217 113.382 131.962 113.739 131.993L122.86 132.79C123.216 132.82 123.48 133.126 123.447 133.471C123.417 133.796 123.134 134.041 122.802 134.041Z" fill="#00227B"/>
<g opacity="0.35">
<g opacity="0.35">
<g opacity="0.35">
<g opacity="0.35">
<path opacity="0.35" d="M116.457 138.457H117.858C119.502 138.457 120.993 137.524 121.662 136.072C122.204 134.895 122.863 133.355 123.48 131.61C122.639 132.96 120.931 133.816 119.055 133.816H117.386C115.011 133.418 114.117 131.164 114.081 128.21C113.278 133.197 113.499 137.867 116.457 138.457Z" fill="#00227B"/>
</g>
</g>
</g>
</g>
<path d="M117.857 139.086H116.457C116.413 139.086 116.369 139.082 116.326 139.073C115.194 138.847 114.338 138.137 113.783 136.962C112.474 134.193 113.11 129.369 113.875 125.81C114.809 121.46 116.252 117.531 117.194 115.898C118.06 114.397 119.152 113.533 120.437 113.33C122.409 113.019 124.035 114.426 124.103 114.486C124.139 114.517 124.171 114.553 124.198 114.591C124.328 114.77 124.451 114.959 124.564 115.153C126.201 117.936 126.548 121.743 125.597 126.468C124.823 130.309 123.352 133.951 122.254 136.329C121.482 138.004 119.756 139.086 117.857 139.086ZM116.527 137.832H117.857C119.245 137.832 120.506 137.041 121.07 135.818C122.14 133.5 123.573 129.954 124.323 126.229C125.214 121.807 124.915 118.289 123.437 115.773C123.356 115.636 123.27 115.502 123.181 115.374C122.938 115.182 121.835 114.377 120.639 114.569C119.766 114.71 118.988 115.363 118.327 116.51C117.454 118.021 116.043 121.884 115.145 126.065C114.12 130.837 114.055 134.522 114.963 136.441C115.331 137.22 115.843 137.676 116.527 137.832Z" fill="#00227B"/>
<path d="M44.657 138.459H43.2566C41.6124 138.459 40.1216 137.526 39.4521 136.074C37.3558 131.532 33.5336 121.553 37.1138 115.463C37.2179 115.285 37.3295 115.114 37.4474 114.95C37.4474 114.95 40.8845 111.926 43.3538 116.204C45.6602 120.201 50.5012 137.292 44.657 138.459Z" fill="#AFAFB2"/>
<g opacity="0.7">
<g opacity="0.7">
<g opacity="0.7">
<g opacity="0.7">
<path opacity="0.7" d="M44.6213 119.052C44.5595 118.957 44.4977 118.866 44.4376 118.782C41.4016 114.504 37.1749 117.528 37.1749 117.528C37.0301 117.692 36.8922 117.863 36.7651 118.041C36.3411 118.627 36.0023 119.249 35.7373 119.9C35.9085 118.3 36.3359 116.788 37.1165 115.462C37.2207 115.285 37.3322 115.114 37.4502 114.95C37.4502 114.95 40.8873 111.925 43.3566 116.204C43.7309 116.852 44.1709 117.841 44.6213 119.052Z" fill="white"/>
</g>
</g>
</g>
</g>
<path d="M35.7542 120.355C35.443 120.355 35.1685 120.137 35.1154 119.831C35.0566 119.489 35.2947 119.166 35.6483 119.108L44.2393 117.721C44.5924 117.664 44.9265 117.895 44.9853 118.237C45.0441 118.578 44.8059 118.902 44.4523 118.959L35.8614 120.346C35.8255 120.352 35.7896 120.355 35.7542 120.355Z" fill="#00227B"/>
<path d="M35.8078 124.848C35.488 124.848 35.2096 124.619 35.166 124.304C35.1184 123.961 35.3674 123.645 35.7223 123.599L45.7724 122.292C46.1277 122.245 46.4536 122.487 46.5016 122.83C46.5491 123.173 46.3002 123.489 45.9453 123.535L35.8951 124.843C35.8658 124.846 35.8368 124.848 35.8078 124.848Z" fill="#00227B"/>
<path d="M36.6935 129.246C36.3706 129.246 36.091 129.013 36.0508 128.695C36.0071 128.351 36.26 128.038 36.6157 127.996L46.8176 126.788C47.1729 126.746 47.4962 126.99 47.5399 127.334C47.5835 127.678 47.3307 127.991 46.9749 128.033L36.7731 129.241C36.7463 129.245 36.7195 129.246 36.6935 129.246Z" fill="#00227B"/>
<path d="M38.3135 134.041C37.9816 134.041 37.6989 133.796 37.6687 133.471C37.6367 133.126 37.8995 132.821 38.256 132.789L47.3769 131.993C47.7339 131.962 48.0486 132.217 48.081 132.562C48.113 132.907 47.8502 133.211 47.4936 133.243L38.3728 134.039C38.3529 134.041 38.333 134.041 38.3135 134.041Z" fill="#00227B"/>
<g opacity="0.35">
<g opacity="0.35">
<g opacity="0.35">
<g opacity="0.35">
<path opacity="0.35" d="M44.6562 138.457H43.2558C41.6116 138.457 40.1208 137.524 39.4513 136.072C38.9093 134.895 38.2501 133.355 37.6338 131.61C38.4745 132.96 40.1826 133.816 42.0581 133.816H43.7273C46.1029 133.418 46.9967 131.164 47.0322 128.21C47.8352 133.197 47.6144 137.867 44.6562 138.457Z" fill="#00227B"/>
</g>
</g>
</g>
</g>
<path d="M44.6607 139.086H43.2603C41.3615 139.086 39.6356 138.004 38.8637 136.328C37.7663 133.951 36.295 130.309 35.5213 126.468C34.5699 121.743 34.917 117.936 36.5534 115.152C36.6671 114.959 36.7903 114.77 36.9191 114.591C36.9468 114.552 36.9787 114.517 37.0146 114.486C37.0829 114.426 38.7085 113.019 40.6803 113.33C41.9658 113.533 43.0572 114.397 43.9233 115.898C44.8656 117.531 46.3084 121.46 47.2429 125.81C48.0075 129.369 48.6437 134.193 47.3345 136.962C46.7791 138.137 45.9237 138.847 44.7917 139.073C44.7485 139.082 44.7044 139.086 44.6607 139.086ZM37.9361 115.374C37.8467 115.502 37.7611 115.635 37.6807 115.772C36.2016 118.289 35.9029 121.806 36.7937 126.229C37.5441 129.954 38.9769 133.499 40.0476 135.818C40.6116 137.041 41.8724 137.832 43.2599 137.832H44.5898C45.2741 137.676 45.7867 137.22 46.1549 136.44C47.0622 134.521 46.9978 130.836 45.973 126.065C45.0748 121.883 43.6631 118.021 42.7909 116.51C42.1292 115.363 41.3512 114.71 40.4789 114.569C39.2851 114.377 38.1821 115.18 37.9361 115.374Z" fill="#00227B"/>
<path d="M60.4674 137.885C60.3753 137.885 60.282 137.865 60.1947 137.82C59.9059 137.674 59.7944 137.329 59.9457 137.05C62.4081 132.498 62.4444 127.379 60.0538 121.836C58.2505 117.654 55.6684 114.793 55.6424 114.765C55.4272 114.529 55.4505 114.168 55.6947 113.96C55.9389 113.751 56.3115 113.774 56.5268 114.01C56.637 114.131 59.2472 117.018 61.1283 121.364C62.2382 123.929 62.8572 126.466 62.9687 128.907C63.1087 131.976 62.4431 134.894 60.9904 137.579C60.8849 137.774 60.6796 137.885 60.4674 137.885Z" fill="#00227B"/>
<path d="M100.888 137.885C100.675 137.885 100.47 137.774 100.365 137.579C98.912 134.894 98.2464 131.976 98.3864 128.907C98.4979 126.467 99.1169 123.929 100.227 121.364C102.108 117.018 104.718 114.13 104.828 114.01C105.044 113.774 105.417 113.751 105.661 113.96C105.905 114.168 105.928 114.528 105.713 114.765C105.687 114.793 103.105 117.654 101.301 121.835C98.9107 127.379 98.947 132.498 101.409 137.05C101.56 137.329 101.449 137.674 101.16 137.82C101.073 137.864 100.98 137.885 100.888 137.885Z" fill="#00227B"/>
<g opacity="0.35">
<path d="M100.097 83.075C99.4169 83.8281 98.7015 84.5431 97.9564 85.2147C96.1873 86.8083 94.2487 88.1644 92.1749 89.239C88.6717 91.0572 84.7855 92.0767 80.6927 92.0955C76.6942 92.1126 72.8884 91.173 69.4388 89.4653C67.18 88.345 65.0746 86.8978 63.1698 85.1729C62.2223 84.3131 61.3237 83.3869 60.4805 82.4C62.008 81.9438 63.5255 81.4149 64.9151 80.8917C66.641 76.8694 68.6539 72.7502 71.0013 68.6309H90.1106C92.0508 72.0368 93.7629 75.441 95.2727 78.7938C96.712 79.6059 98.3691 81.1351 100.097 83.075Z" fill="#00227B"/>
</g>
<path d="M109.737 64.7101C109.404 64.7448 109.106 64.5119 109.07 64.1899L107.205 47.3991C107.169 47.0772 107.41 46.7882 107.742 46.7535C111.234 46.3905 114.368 48.8343 114.743 52.2117L115.379 57.9376C115.755 61.3151 113.228 64.3472 109.737 64.7101Z" fill="white"/>
<path d="M109.67 64.8558C109.498 64.8558 109.333 64.7998 109.197 64.694C109.04 64.5714 108.942 64.3971 108.92 64.203L107.055 47.4122C107.034 47.2182 107.092 47.0275 107.218 46.8757C107.345 46.7239 107.525 46.6286 107.726 46.6077C111.294 46.2368 114.507 48.7428 114.891 52.1943L115.526 57.9202C115.712 59.592 115.214 61.2337 114.123 62.5429C113.033 63.8522 111.48 64.6722 109.752 64.852L109.736 64.7082L109.752 64.852C109.725 64.8545 109.697 64.8558 109.67 64.8558ZM108.425 46.8598C108.205 46.8598 107.982 46.8711 107.758 46.8945C107.636 46.9071 107.527 46.9648 107.451 47.0564C107.374 47.1484 107.339 47.2634 107.352 47.3809L109.217 64.1717C109.23 64.2892 109.29 64.3946 109.385 64.4686C109.48 64.5426 109.599 64.5765 109.72 64.5639C111.369 64.3925 112.85 63.6101 113.891 62.361C114.932 61.112 115.407 59.5456 115.23 57.9503L114.594 52.2244C114.252 49.1488 111.554 46.8598 108.425 46.8598Z" fill="#00227B"/>
<g opacity="0.35">
<g opacity="0.35">
<g opacity="0.35">
<g opacity="0.35">
<path opacity="0.35" d="M115.078 55.251L115.377 57.9364C115.752 61.3126 113.226 64.3455 109.734 64.7098C109.401 64.7449 109.103 64.5099 109.067 64.1883L108.569 59.7249C108.685 59.9185 108.912 60.0372 109.156 60.0138L109.567 59.9699C112.326 59.6835 114.484 57.7286 115.078 55.251Z" fill="#00227B"/>
</g>
</g>
</g>
</g>
<path d="M109.674 65.5192C109.348 65.5192 109.033 65.4121 108.775 65.211C108.476 64.9781 108.289 64.646 108.248 64.2768L106.382 47.486C106.341 47.1168 106.452 46.7538 106.692 46.4644C106.933 46.1751 107.276 45.994 107.658 45.9543C111.599 45.5445 115.151 48.3135 115.574 52.1267L116.21 57.8526C116.415 59.6996 115.865 61.5136 114.66 62.9604C113.455 64.4068 111.739 65.313 109.83 65.5112C109.778 65.5162 109.726 65.5192 109.674 65.5192ZM109.654 63.9109H109.653C109.653 63.9109 109.653 63.9109 109.654 63.9109ZM108.061 47.5353L109.877 63.8837C111.255 63.6864 112.486 63.0056 113.366 61.9506C114.292 60.8387 114.715 59.4445 114.557 58.0245L113.921 52.2986C113.604 49.4401 111 47.3447 108.061 47.5353Z" fill="#00227B"/>
<path d="M50.4559 52.7075C50.7887 52.6728 51.0874 52.9057 51.1232 53.2277L52.9883 70.0185C53.0242 70.3405 52.7834 70.6295 52.4506 70.6642C48.9595 71.0271 45.8254 68.5834 45.4502 65.2059L44.8144 59.4801C44.4384 56.1026 46.9648 53.0705 50.4559 52.7075Z" fill="white"/>
<path d="M51.7623 70.846C48.4834 70.8464 45.6553 68.447 45.2975 65.223L44.6616 59.4971C44.2783 56.0456 46.8686 52.9362 50.4362 52.5653L50.4522 52.7091L50.4362 52.5653C50.8499 52.5222 51.2233 52.8132 51.2678 53.2138L53.1329 70.0046C53.1774 70.4052 52.8766 70.7661 52.4625 70.8092C52.2278 70.8339 51.9935 70.846 51.7623 70.846ZM50.517 52.85C50.5006 52.85 50.4846 52.8509 50.4678 52.8525C47.064 53.2063 44.5925 56.1731 44.9586 59.4662L45.5944 65.192C45.9601 68.485 49.0263 70.8761 52.4305 70.5223C52.6808 70.4964 52.8628 70.2781 52.836 70.036L50.9709 53.2452C50.9458 53.0185 50.747 52.85 50.517 52.85Z" fill="#00227B"/>
<g opacity="0.35">
<g opacity="0.35">
<g opacity="0.35">
<g opacity="0.35">
<path opacity="0.35" d="M52.4712 65.3597L52.9881 70.018C53.0244 70.34 52.7815 70.629 52.4491 70.6637C50.6165 70.8535 48.8806 70.271 47.5917 69.1846C46.4278 68.2036 45.6281 66.8095 45.4496 65.2062L45.1816 62.7935C46.4079 64.8073 48.7795 66.0522 51.3392 65.7867L51.9724 65.7206C52.2032 65.6963 52.386 65.5521 52.4712 65.3597Z" fill="#00227B"/>
</g>
</g>
</g>
</g>
<path d="M51.7653 71.5031C48.1423 71.5035 45.0182 68.8528 44.6227 65.2905L43.9869 59.5646C43.5633 55.7514 46.4255 52.3158 50.367 51.906C51.1545 51.824 51.8651 52.3777 51.9498 53.14L53.8149 69.9312C53.8996 70.6939 53.3273 71.3806 52.5389 71.4625C52.2792 71.4901 52.0207 71.5031 51.7653 71.5031ZM50.3203 53.5339C47.4071 53.9521 45.3229 56.5346 45.6402 59.3932L46.276 65.119C46.5936 67.9776 49.1974 70.0725 52.1361 69.8823L50.3203 53.5339Z" fill="#00227B"/>
<path d="M80.0975 87.4857C96.5257 87.4857 109.843 74.6015 109.843 58.708C109.843 42.8144 96.5257 29.9302 80.0975 29.9302C63.6693 29.9302 50.3516 42.8144 50.3516 58.708C50.3516 74.6015 63.6693 87.4857 80.0975 87.4857Z" fill="white"/>
<path d="M80.0683 87.6315C76.4211 87.6315 72.8583 86.9988 69.4614 85.7464C65.8493 84.415 62.5769 82.4421 59.7341 79.8838C56.8914 77.3251 54.6222 74.3093 52.9888 70.9201C51.2979 67.4109 50.3669 63.6534 50.2212 59.7515C50.0756 55.8497 50.7243 52.0369 52.1494 48.4189C53.5256 44.9244 55.5648 41.7585 58.2092 39.0083C60.8536 36.258 63.9717 34.0623 67.4753 32.482C71.1026 30.8462 74.9866 29.9455 79.0197 29.8045C83.0528 29.6636 86.9939 30.2913 90.7335 31.67C94.3456 33.0014 97.618 34.9743 100.461 37.5326C103.304 40.0913 105.573 43.1071 107.206 46.4962C108.897 50.0054 109.828 53.763 109.974 57.6649C110.119 61.5667 109.471 65.3795 108.046 68.9974C106.669 72.492 104.63 75.6579 101.985 78.4081C99.3405 81.1584 96.2232 83.3537 92.72 84.934C89.0928 86.5698 85.2088 87.4705 81.1757 87.6114C80.8052 87.6248 80.4361 87.6315 80.0683 87.6315ZM80.1111 30.0747C79.7515 30.0747 79.3927 30.081 79.0301 30.0935C62.7212 30.663 49.9316 43.9626 50.5199 59.7406C50.8047 67.3838 54.1493 74.4624 59.9373 79.6718C65.4572 84.6404 72.5704 87.3417 80.0704 87.3421C80.4344 87.3421 80.7983 87.3359 81.164 87.3229C89.0642 87.0473 96.381 83.8116 101.766 78.212C107.15 72.6124 109.959 65.3193 109.674 57.6762C109.099 42.2486 95.9414 30.0747 80.1111 30.0747Z" fill="#00227B"/>
<g opacity="0.35">
<g opacity="0.35">
<g opacity="0.35">
<g opacity="0.35">
<path opacity="0.35" d="M109.392 53.6992C109.63 54.993 109.776 56.3186 109.826 57.6705C110.416 73.5535 97.5883 86.8936 81.171 87.4678C64.7537 88.0386 50.9648 75.628 50.3713 59.7454C50.354 59.2888 50.348 58.8313 50.3536 58.3801C52.8795 72.3099 65.6981 82.6552 80.7193 82.1312C96.6646 81.5738 109.222 68.975 109.392 53.6992Z" fill="#00227B"/>
</g>
</g>
</g>
</g>
<path d="M80.0688 88.2911C76.3382 88.2911 72.6941 87.6438 69.2194 86.3629C65.5252 85.001 62.1776 82.9834 59.2704 80.3665C56.3632 77.7497 54.0422 74.6649 52.3716 71.1984C50.6418 67.6089 49.6896 63.7651 49.5409 59.7746C49.3923 55.7841 50.0557 51.884 51.5136 48.1832C52.9214 44.6092 55.0069 41.3706 57.7118 38.558C60.4167 35.7455 63.6043 33.4996 67.1879 31.8838C70.8982 30.2103 74.8712 29.2891 78.996 29.1453C83.1212 29.0014 87.1521 29.6433 90.9773 31.0537C94.6716 32.4157 98.0192 34.4333 100.926 37.0501C103.834 39.667 106.155 42.7518 107.825 46.2183C109.555 49.8078 110.507 53.6515 110.656 57.642C110.804 61.6325 110.141 65.5327 108.683 69.2334C107.275 72.8074 105.19 76.0461 102.485 78.8586C99.7801 81.6712 96.5915 83.9167 93.0084 85.5329C89.2981 87.2064 85.3251 88.1276 81.2003 88.2714C80.8226 88.2844 80.4448 88.2911 80.0688 88.2911ZM80.112 30.7347C79.7606 30.7347 79.41 30.741 79.0561 30.7531C63.1228 31.3092 50.628 44.3023 51.2029 59.7169C51.4812 67.184 54.7489 74.0991 60.4033 79.189C65.7962 84.043 72.7451 86.6824 80.0727 86.6824C80.4279 86.6824 80.7841 86.6761 81.1411 86.6636C88.8594 86.3943 96.0072 83.233 101.268 77.7626C106.529 72.2923 109.273 65.1672 108.994 57.7001C108.432 42.6276 95.5771 30.7347 80.112 30.7347Z" fill="#00227B"/>
<path d="M109.758 58.4147C110.056 64.0385 108.445 69.3537 105.447 73.8335C103.199 77.1921 93.5529 83.3533 81.2768 84.0684C69.8941 84.7316 59.222 79.3707 56.6312 76.2521C53.1751 72.0918 51.0118 66.9639 50.714 61.3401C49.926 46.4574 62.8164 39.6326 79.1222 38.8247C95.4271 38.0168 108.971 43.5319 109.758 58.4147Z" fill="#0079C1"/>
<path d="M79.3027 84.6776C73.6426 84.6776 68.72 83.3127 65.4524 82.0934C61.3146 80.5495 57.6774 78.3922 56.1867 76.5975C52.5279 72.1934 50.4385 66.9267 50.1441 61.3673C49.9488 57.6783 50.5777 54.3309 52.0122 51.418C53.3629 48.6765 55.4346 46.3014 58.1706 44.3578C63.1689 40.8067 70.404 38.7021 79.0935 38.2719C87.7834 37.8416 95.2026 39.2198 100.55 42.2582C103.476 43.9212 105.788 46.0793 107.421 48.6732C109.156 51.4288 110.135 54.6968 110.33 58.3858C110.625 63.9452 109.102 69.3905 105.927 74.1333C104.609 76.1036 101.333 78.5189 97.3793 80.4358C93.9064 82.1197 88.2995 84.2126 81.3121 84.6195C80.6335 84.6588 79.9627 84.6776 79.3027 84.6776ZM82.1619 39.3001C81.1777 39.3001 80.1749 39.3252 79.1523 39.3758C70.6862 39.7952 63.6651 41.8262 58.847 45.2489C53.468 49.0704 50.9239 54.4747 51.2856 61.3108C51.5675 66.6365 53.5704 71.6833 57.0775 75.905C58.1209 77.1612 61.048 79.2654 65.8638 81.0622C69.4068 82.384 74.9506 83.8827 81.2438 83.5159C88.038 83.1199 93.4906 81.0848 96.868 79.4472C101.394 77.2527 104.061 74.8893 104.969 73.5324C108.012 68.9861 109.472 63.7679 109.19 58.4422C108.828 51.6061 105.727 46.4816 99.9718 43.2116C95.4399 40.6366 89.326 39.3001 82.1619 39.3001Z" fill="#00227B"/>
<g opacity="0.5">
<g opacity="0.5">
<g opacity="0.5">
<g opacity="0.5">
<path d="M103.837 57.3368C104.208 54.5472 102.816 52.0748 100.726 51.8145C98.6368 51.5543 96.6421 53.6047 96.2709 56.3943C95.8996 59.1839 97.2924 61.6563 99.3818 61.9166C101.471 62.1768 103.466 60.1264 103.837 57.3368Z" fill="white"/>
</g>
</g>
</g>
</g>
<g opacity="0.5">
<g opacity="0.5">
<g opacity="0.5">
<g opacity="0.5">
<path d="M97.927 67.7061C98.2787 66.4608 97.6684 65.2146 96.5638 64.9226C95.4593 64.6305 94.2787 65.4033 93.9269 66.6486C93.5752 67.8938 94.1855 69.1401 95.29 69.4321C96.3946 69.7241 97.5752 68.9513 97.927 67.7061Z" fill="white"/>
</g>
</g>
</g>
</g>
<g opacity="0.35">
<path d="M103.284 44.8135C107.069 47.9664 109.443 52.4353 109.76 58.4125C110.058 64.0376 108.446 69.3524 105.45 73.8321C103.201 77.1908 93.5543 83.3515 81.2782 84.0683C76.9438 84.3221 72.7136 83.7007 68.9912 82.6607C84.0617 81.469 95.8092 73.9116 98.5971 69.7459C102.403 64.0601 104.447 57.3135 104.068 50.1772C103.969 48.2696 103.7 46.4836 103.284 44.8135Z" fill="#00227B"/>
</g>
<path d="M52.2664 49.3105C52.0987 49.3105 51.9301 49.2599 51.7857 49.1549C51.446 48.9074 51.3678 48.4487 51.599 48.1104C52.8334 46.1484 54.4098 44.3553 56.2839 42.7813C58.1088 41.2492 60.231 39.9115 62.5914 38.8055C64.9025 37.7229 67.457 36.8556 70.1835 36.2275C72.8854 35.6053 75.7696 35.2147 78.7572 35.0667C81.6955 34.9212 84.5745 35.0194 87.3144 35.3582C90.0794 35.7002 92.7082 36.2886 95.1274 37.1061C97.6027 37.9428 99.8676 39.0233 101.859 40.3175C103.907 41.6481 105.678 43.2129 107.124 44.9687C107.376 45.2393 107.402 45.6537 107.166 45.9548C106.899 46.2951 106.397 46.3612 106.045 46.1028L105.961 46.0426L105.898 45.9648C100.543 39.4348 90.6802 36.026 78.8389 36.6126C66.9319 37.2027 57.4972 41.6937 52.9536 48.9341L52.9329 48.9672L52.9056 49.0019C52.7492 49.2039 52.5093 49.3105 52.2664 49.3105Z" fill="#00227B"/>
<g opacity="0.5">
<g opacity="0.5">
<g opacity="0.5">
<g opacity="0.5">
<path d="M57.818 69.8634C57.818 69.8634 52.2764 55.4176 60.1455 49.1615C68.0147 42.9054 79.7829 42.3464 79.5465 43.0898C79.5465 43.0898 66.6812 46.7864 62.1113 57.002C58.5873 64.8798 57.818 69.8634 57.818 69.8634Z" fill="white"/>
</g>
</g>
</g>
</g>
<path d="M107.059 140.115H54.303C52.5948 140.115 51.21 138.775 51.21 137.123C51.21 136.17 52.0079 135.398 52.992 135.398H108.37C109.354 135.398 110.152 136.17 110.152 137.123C110.152 138.775 108.767 140.115 107.059 140.115Z" fill="#E6E9FA"/>
<g opacity="0.3">
<g opacity="0.3">
<g opacity="0.3">
<g opacity="0.3">
<path opacity="0.3" d="M110.151 137.123C110.151 137.45 110.096 137.764 109.996 138.059C109.719 137.456 109.096 137.038 108.37 137.038H52.9925C52.501 137.038 52.055 137.23 51.7325 137.544C51.5791 137.692 51.4533 137.865 51.3651 138.059C51.2649 137.764 51.21 137.451 51.21 137.123C51.21 136.648 51.4084 136.216 51.733 135.904C52.0554 135.591 52.5015 135.398 52.9929 135.398H108.37C109.355 135.398 110.151 136.17 110.151 137.123Z" fill="white"/>
</g>
</g>
</g>
</g>
<g opacity="0.35">
<g opacity="0.35">
<g opacity="0.35">
<g opacity="0.35">
<path opacity="0.35" d="M110.152 137.122C110.152 137.948 109.806 138.697 109.245 139.237C108.687 139.779 107.912 140.114 107.059 140.114H54.3043C52.5961 140.114 51.21 138.775 51.21 137.122C51.21 136.804 51.2986 136.506 51.4555 136.249C51.9231 137.32 53.024 138.073 54.3038 138.073H107.059C107.912 138.073 108.687 137.738 109.245 137.196C109.524 136.926 109.75 136.605 109.905 136.249C110.063 136.506 110.152 136.804 110.152 137.122Z" fill="#00227B"/>
</g>
</g>
</g>
</g>
<path d="M107.058 140.875H54.3021C52.163 140.875 50.4229 139.191 50.4229 137.122C50.4229 135.752 51.5752 134.637 52.9912 134.637H108.369C109.785 134.637 110.937 135.752 110.937 137.122C110.937 139.191 109.197 140.875 107.058 140.875ZM52.9907 136.158C52.4418 136.158 51.9949 136.59 51.9949 137.122C51.9949 138.353 53.0296 139.354 54.3017 139.354H107.058C108.33 139.354 109.365 138.353 109.365 137.122C109.365 136.591 108.918 136.158 108.369 136.158H52.9907Z" fill="#00227B"/>
<path d="M113.233 101.708L108.073 135.396H53.2928L53.1061 134.177L48.1303 101.708C47.9674 100.641 48.8223 99.6846 49.9349 99.6846H111.428C112.543 99.6846 113.396 100.641 113.233 101.708Z" fill="#FF66AC"/>
<path d="M113.233 101.708L108.073 135.396H53.2928L53.1061 134.177L48.1303 101.708C47.9674 100.641 48.8223 99.6846 49.9349 99.6846H111.428C112.543 99.6846 113.396 100.641 113.233 101.708Z" fill="#E6E9FA"/>
<g opacity="0.5">
<g opacity="0.5">
<g opacity="0.5">
<g opacity="0.5">
<path opacity="0.5" d="M50.0739 103.802C49.911 102.735 50.7659 101.778 51.8785 101.778H113.221L113.232 101.711C113.394 100.644 112.542 99.6875 111.427 99.6875H49.9339C48.8213 99.6875 47.9664 100.644 48.1293 101.711L53.1047 134.18L53.2914 135.399H54.9162L50.0739 103.802Z" fill="white"/>
</g>
</g>
</g>
</g>
<g opacity="0.35">
<g opacity="0.35">
<g opacity="0.35">
<g opacity="0.35">
<path opacity="0.35" d="M109.698 99.6846H105.381C107.018 105.488 106.114 118.592 95.5517 125.441C82.2918 134.038 58.3948 133.983 53.3213 134.177L53.508 135.396H106.343L111.503 101.708C111.666 100.641 110.813 99.6846 109.698 99.6846Z" fill="#00227B"/>
</g>
</g>
</g>
</g>
<path d="M108.751 136.16H52.6152L47.3545 101.821C47.243 101.094 47.4639 100.358 47.9601 99.8014C48.4563 99.2448 49.1768 98.9258 49.9362 98.9258H111.43C112.19 98.9258 112.91 99.2448 113.406 99.8014C113.902 100.358 114.123 101.094 114.012 101.821L108.751 136.16ZM53.9719 134.638H107.394L112.456 101.598C112.501 101.305 112.416 101.02 112.215 100.795C112.015 100.57 111.737 100.447 111.43 100.447H49.9362C49.6298 100.447 49.351 100.571 49.1508 100.795C48.9507 101.02 48.8651 101.305 48.9101 101.598L53.9719 134.638Z" fill="#00227B"/>
<g opacity="0.3">
<g opacity="0.3">
<g opacity="0.3">
<g opacity="0.3">
<path opacity="0.3" d="M57.65 127.528C55.5719 123.096 54.0586 115.531 54.3997 111.079C54.7407 106.627 57.4097 107.989 58.237 113.692C60.4383 128.87 58.5776 129.507 57.65 127.528Z" fill="white"/>
</g>
</g>
</g>
</g>
<path d="M87.8393 113.719C87.9063 113.15 87.9841 112.575 87.8687 111.997C87.8173 111.934 87.7702 111.87 87.7188 111.807C87.5485 111.748 87.3829 111.67 87.2057 111.627C85.9592 111.316 84.6953 111.193 83.4116 111.3C81.7376 111.439 80.201 111.939 78.8797 112.968C78.4012 113.34 77.9651 113.759 77.5186 114.166C77.3989 114.276 77.3068 114.322 77.1387 114.248C76.7432 114.074 76.317 113.996 75.8843 113.975C74.7238 113.924 73.6882 114.287 72.7222 114.874C71.6753 115.512 70.8316 116.365 70.0458 117.278C69.7113 117.664 69.8414 118.096 70.3393 118.258C70.6535 118.357 70.9677 118.455 71.282 118.554C72.0349 118.79 72.7861 119.024 73.5369 119.259C73.5352 119.282 73.5373 119.294 73.5339 119.305C73.5278 119.319 73.5213 119.335 73.511 119.349C73.1976 119.739 73.2737 120.099 73.6039 120.438C73.6393 120.476 73.67 120.52 73.7012 120.561C73.874 120.781 74.0508 121.003 74.2341 121.233C73.9838 121.419 73.7379 121.578 73.5205 121.77C73.4107 121.867 73.3139 122.007 73.2724 122.147C73.2019 122.371 73.3221 122.601 73.5287 122.719C73.7478 122.846 73.9735 122.841 74.1775 122.699C74.4364 122.521 74.6836 122.327 74.9468 122.133C75.1954 122.45 75.4309 122.75 75.6674 123.046C75.9384 123.383 76.1251 123.441 76.5452 123.328C76.6217 123.305 76.6974 123.289 76.7877 123.268C76.7937 123.355 76.8007 123.425 76.8046 123.49C76.8581 124.541 76.9074 125.593 76.9671 126.64C76.9943 127.137 77.3997 127.372 77.8635 127.159C78.2823 126.968 78.7007 126.765 79.1114 126.55C80.0575 126.052 80.9185 125.442 81.6053 124.631C82.465 123.611 82.9409 122.472 82.7183 121.125C82.7088 121.072 82.7546 120.981 82.8022 120.954C83.224 120.691 83.6571 120.445 84.0794 120.18C85.0338 119.578 85.801 118.796 86.4009 117.862C87.2161 116.592 87.666 115.199 87.8393 113.719ZM74.158 118.264C73.2888 117.991 72.3876 117.706 71.4618 117.415C72.4183 116.431 73.4306 115.572 74.7938 115.21C75.383 115.053 76.0637 115.066 76.4657 115.224C75.7024 116.232 74.9373 117.24 74.158 118.264ZM81.4692 122.587C81.2483 123.269 80.8264 123.824 80.3069 124.319C79.6612 124.928 78.9095 125.382 78.0969 125.796C78.0481 124.83 77.9979 123.885 77.9487 122.96C79.1775 122.497 80.3791 122.046 81.5867 121.592C81.6334 121.914 81.5764 122.255 81.4692 122.587ZM86.0067 116.12C85.6112 117.023 85.0925 117.845 84.3526 118.525C83.7816 119.048 83.1341 119.467 82.4521 119.839C80.603 120.849 78.6212 121.545 76.5949 122.134C76.4959 122.162 76.4354 122.157 76.3702 122.069C76.2288 121.874 76.0702 121.687 75.9206 121.495C75.9107 121.484 75.9072 121.466 75.893 121.432C75.9449 121.392 76.0002 121.352 76.0559 121.311C77.2121 120.452 78.374 119.596 79.5306 118.735C79.8647 118.49 79.8794 118.068 79.5699 117.825C79.3538 117.654 79.069 117.656 78.8196 117.838C78.1237 118.351 77.4296 118.865 76.7354 119.38C76.2176 119.763 75.7041 120.145 75.1664 120.543C74.9818 120.31 74.8038 120.097 74.643 119.873C74.6157 119.833 74.6434 119.732 74.6806 119.682C75.2969 118.792 75.9081 117.898 76.5495 117.023C77.184 116.155 77.9054 115.353 78.699 114.617C79.4429 113.922 80.2494 113.308 81.2241 112.942C81.8491 112.707 82.494 112.547 83.16 112.478C83.2206 112.469 83.3083 112.528 83.3511 112.582C84.0284 113.429 84.6975 114.277 85.3687 115.127C85.5701 115.38 85.769 115.638 85.9764 115.888C86.0387 115.964 86.0465 116.028 86.0067 116.12ZM86.4082 114.935C85.7391 114.087 85.0856 113.262 84.4312 112.433C84.4321 112.414 84.4377 112.392 84.4407 112.371C85.2028 112.46 85.9665 112.55 86.738 112.639C86.7238 113.443 86.601 114.18 86.4082 114.935Z" fill="#00227B"/>
<path d="M85.9772 115.89C85.7693 115.64 85.5709 115.382 85.3695 115.129C84.6987 114.279 84.0292 113.43 83.3519 112.583C83.3091 112.529 83.2214 112.47 83.1608 112.479C82.4948 112.548 81.8499 112.708 81.2249 112.943C80.2498 113.309 79.4437 113.923 78.6998 114.619C77.9062 115.355 77.1848 116.157 76.5503 117.025C75.9089 117.899 75.2977 118.794 74.6814 119.683C74.6442 119.733 74.6165 119.834 74.6438 119.874C74.8041 120.099 74.9822 120.311 75.1672 120.545C75.7049 120.146 76.2184 119.764 76.7362 119.381C77.4304 118.866 78.1245 118.352 78.8204 117.839C79.0698 117.657 79.3542 117.655 79.5707 117.826C79.8802 118.07 79.866 118.492 79.5314 118.737C78.3748 119.597 77.2129 120.453 76.0567 121.312C76.001 121.353 75.9452 121.393 75.8938 121.433C75.908 121.468 75.9115 121.486 75.9214 121.496C76.071 121.688 76.2296 121.876 76.371 122.07C76.4362 122.158 76.4967 122.163 76.5957 122.135C78.622 121.547 80.6038 120.85 82.4528 119.841C83.1345 119.468 83.7824 119.049 84.3534 118.527C85.0929 117.846 85.612 117.024 86.0075 116.121C86.0464 116.03 86.0386 115.965 85.9772 115.89ZM83.9479 117.184C83.064 117.829 81.8131 117.671 81.1492 116.828C80.481 115.986 80.6496 114.776 81.5253 114.123C82.385 113.482 83.6363 113.648 84.3067 114.491C84.9693 115.328 84.8076 116.555 83.9479 117.184Z" fill="white"/>
<path d="M86.4077 114.934C85.7382 114.088 85.0846 113.262 84.4307 112.433C84.4328 112.413 84.4371 112.393 84.4402 112.372C85.2022 112.461 85.9664 112.551 86.7388 112.64C86.7241 113.443 86.6 114.18 86.4077 114.934Z" fill="#DB2C2C"/>
<path d="M76.4638 115.226C75.6996 116.232 74.9345 117.241 74.1561 118.266C73.2856 117.991 72.3844 117.707 71.459 117.416C72.4164 116.431 73.4282 115.572 74.7915 115.211C75.3806 115.053 76.0605 115.067 76.4638 115.226Z" fill="#DB2C2C"/>
<path d="M80.3037 124.32C79.6584 124.929 78.9076 125.384 78.0941 125.797C78.0448 124.832 77.9951 123.887 77.9463 122.961C79.1751 122.498 80.3763 122.048 81.5857 121.592C81.6319 121.915 81.5736 122.255 81.4677 122.589C81.2468 123.271 80.825 123.826 80.3037 124.32Z" fill="#DB2C2C"/>
<path d="M84.3085 114.49C83.6385 113.648 82.3868 113.482 81.5271 114.123C80.6514 114.776 80.4828 115.985 81.1511 116.827C81.815 117.671 83.0658 117.828 83.9497 117.184C84.8099 116.555 84.9715 115.328 84.3085 114.49ZM83.3541 116.473C82.9063 116.801 82.2485 116.714 81.8997 116.282C81.5388 115.835 81.6373 115.18 82.1149 114.837C82.5623 114.512 83.2327 114.606 83.5694 115.041C83.9212 115.494 83.8244 116.129 83.3541 116.473Z" fill="#00227B"/>
<path d="M83.348 116.472C82.9002 116.8 82.2423 116.713 81.8926 116.28C81.5335 115.834 81.6307 115.179 82.1083 114.836C82.5566 114.512 83.2261 114.605 83.5628 115.039C83.9146 115.492 83.8191 116.128 83.348 116.472Z" fill="#22A7F0"/>
<path d="M112.959 103.488C112.959 103.488 108.713 101.538 104.726 103.287C100.909 104.961 98.2076 116.881 103.154 119.901C106.207 121.764 108.285 120.118 110.012 120.602C112.574 121.318 117.83 109.045 112.959 103.488Z" fill="white"/>
<g opacity="0.35">
<path d="M114.874 111.244C114.371 116.24 111.644 121.058 110.013 120.601C108.284 120.118 106.207 121.765 103.154 119.901C100.791 118.457 100.174 114.985 100.59 111.565C100.871 113.56 101.667 115.27 103.154 116.177C106.207 118.039 108.24 117.174 110.013 116.877C112.204 116.51 113.991 114.194 114.874 111.244Z" fill="#00227B"/>
</g>
<path d="M106.284 121.574C105.254 121.574 104.062 121.356 102.734 120.545C101.545 119.819 100.686 118.645 100.182 117.054C99.758 115.719 99.5998 114.092 99.7235 112.35C99.87 110.286 100.395 108.169 101.2 106.389C101.815 105.028 102.871 103.266 104.401 102.595C108.671 100.722 113.108 102.715 113.295 102.801L113.448 102.871L113.557 102.996C115.787 105.539 115.916 109.053 115.631 111.553C115.31 114.369 114.283 117.356 112.949 119.349C111.614 121.345 110.495 121.53 109.793 121.333C109.337 121.206 108.76 121.295 108.093 121.398C107.566 121.48 106.96 121.574 106.284 121.574ZM108.36 103.318C107.165 103.318 106.057 103.539 105.051 103.981C104.223 104.344 103.345 105.444 102.641 106.999C101.917 108.6 101.426 110.588 101.293 112.455C101.059 115.751 101.89 118.231 103.573 119.259C105.271 120.295 106.58 120.092 107.845 119.896C108.664 119.769 109.436 119.65 110.23 119.872C110.322 119.887 110.976 119.643 111.899 118.096C114.051 114.49 115.416 107.678 112.472 104.113C112.138 103.978 111.279 103.663 110.155 103.474C109.538 103.37 108.939 103.318 108.36 103.318Z" fill="#00227B"/>
<path d="M124.828 60.0948C123.314 58.5806 122.281 56.5931 122.005 54.3396C121.336 48.8697 125.376 43.9103 131.03 43.2626C136.684 42.6148 141.81 46.5238 142.48 51.9937C143.149 57.4637 139.109 62.4231 133.455 63.0708C131.882 63.251 130.351 63.0775 128.945 62.6171L124.523 64.6351L124.828 60.0948Z" fill="#FF0068"/>
<g opacity="0.5">
<path opacity="0.5" d="M131.267 45.1689C125.985 45.774 122.113 50.1417 122.171 55.173C122.09 54.8301 122.026 54.4805 121.982 54.1238C121.312 48.6538 125.353 43.6945 131.007 43.0467C136.661 42.399 141.787 46.308 142.456 51.7779C142.5 52.1367 142.523 52.4926 142.527 52.8459C141.371 47.938 136.55 44.5638 131.267 45.1689Z" fill="white"/>
</g>
<path d="M124.527 65.3678C124.377 65.3678 124.229 65.3251 124.101 65.2411C123.88 65.0952 123.755 64.8472 123.772 64.5883L124.057 60.3645C122.498 58.709 121.532 56.663 121.258 54.4262C120.911 51.5865 121.727 48.7861 123.556 46.5401C125.386 44.2946 128.01 42.8724 130.945 42.5362C133.88 42.2 136.775 42.9895 139.096 44.7596C141.417 46.5297 142.887 49.0683 143.235 51.9081C143.582 54.7478 142.766 57.5482 140.937 59.7937C139.107 62.0392 136.483 63.4614 133.548 63.7976C132.002 63.9745 130.474 63.8415 129.001 63.4024L124.849 65.2971C124.747 65.3448 124.637 65.3678 124.527 65.3678ZM132.253 43.9254C131.88 43.9254 131.503 43.9467 131.123 43.9902C128.589 44.2804 126.324 45.5081 124.744 47.4467C123.165 49.3853 122.46 51.8031 122.76 54.2544C123.008 56.2791 123.913 58.1232 125.376 59.5867C125.525 59.7352 125.602 59.9371 125.587 60.1433L125.365 63.4447L128.625 61.9564C128.803 61.8757 129.005 61.8644 129.191 61.9251C130.54 62.3671 131.946 62.5084 133.37 62.3453C138.601 61.7461 142.352 57.1413 141.733 52.0812C141.158 47.3877 137.023 43.9254 132.253 43.9254Z" fill="#00227B"/>
<g opacity="0.3">
<path opacity="0.3" d="M124.752 60.0155C128.029 61.6735 132.054 61.8391 135.613 60.115C139.561 58.2032 141.929 54.4565 142.172 50.4785C142.313 50.9686 142.418 51.4746 142.481 51.9956C143.151 57.4656 139.11 62.4249 133.456 63.0727C131.884 63.2529 130.353 63.0794 128.946 62.619L124.524 64.637L124.83 60.0966C124.804 60.0699 124.779 60.0423 124.752 60.0155Z" fill="#00227B"/>
</g>
<path d="M128.984 50.3681C129.877 49.505 131.323 49.6597 132.215 50.5228L132.354 50.657L132.493 50.5228C133.385 49.6597 134.832 49.505 135.724 50.3681C136.616 51.2312 136.616 52.6308 135.724 53.4938L135.585 53.6281L132.78 56.3415C132.545 56.569 132.164 56.569 131.928 56.3415L129.124 53.6281L128.985 53.4938C128.092 52.6303 128.092 51.2312 128.984 50.3681Z" fill="white"/>
</svg>
