<svg width="172" height="215" viewBox="0 0 172 215" fill="none" xmlns="http://www.w3.org/2000/svg">
<rect x="2" width="170" height="170" rx="85" fill="#8CD3F8"/>
<path d="M97.9303 125.664H67.2378C61.9737 125.664 57.667 121.497 57.667 116.404V90.169C57.667 85.0762 61.9737 80.9097 67.2378 80.9097H97.9307C103.195 80.9097 107.502 85.0762 107.502 90.169V116.404C107.502 121.497 103.194 125.664 97.9303 125.664Z" fill="white"/>
<path d="M97.9314 80.9103C103.195 80.9103 107.502 85.0769 107.502 90.1697V116.405C107.502 121.498 103.195 125.664 97.9314 125.664H67.2389C61.9748 125.664 57.6681 121.498 57.6681 116.405V90.1697C57.6681 85.0769 61.9748 80.9103 67.2389 80.9103H97.9314ZM97.9314 79.4468H67.2389C65.7481 79.4468 64.2989 79.732 62.9313 80.294C61.613 80.8359 60.4283 81.6099 59.4099 82.5955C58.3916 83.5807 57.5911 84.7273 57.031 86.0023C56.4501 87.3253 56.1553 88.7274 56.1553 90.1697V116.405C56.1553 117.847 56.4501 119.249 57.031 120.572C57.5911 121.848 58.3912 122.994 59.4099 123.979C60.4283 124.964 61.6134 125.739 62.9313 126.281C64.2989 126.843 65.7481 127.128 67.2389 127.128H97.9318C99.4226 127.128 100.872 126.843 102.239 126.281C103.558 125.739 104.742 124.965 105.761 123.979C106.779 122.994 107.58 121.847 108.14 120.572C108.721 119.249 109.015 117.847 109.015 116.405V90.1697C109.015 88.7274 108.721 87.3253 108.14 86.0023C107.58 84.7269 106.78 83.5807 105.761 82.5955C104.742 81.6103 103.557 80.8359 102.239 80.294C100.872 79.732 99.4221 79.4468 97.9314 79.4468Z" fill="#00227B"/>
<path d="M106.814 109.442C102.036 109.984 97.2724 110.117 97.2724 110.117C97.2724 110.117 94.8467 98.4156 94.1742 89.2395C93.6788 82.4406 94.1448 77.03 97.2724 78.7947C98.7113 79.6067 100.368 81.1359 102.096 83.0758C108.578 90.3539 116.024 103.423 116.433 106.135C116.696 107.879 111.749 108.879 106.814 109.442Z" fill="white"/>
<path d="M96.6333 110.896L96.5028 110.267C96.4881 110.195 95.0046 103.005 94.0447 95.5597C93.4784 91.1703 93.2018 87.5461 93.2217 84.7883C93.2489 81.0215 93.8143 78.8851 95.0008 78.0651C95.5216 77.7051 96.4077 77.4257 97.6698 78.1379C101.83 80.4863 107.111 87.9672 109.888 92.2173C111.741 95.0525 113.514 98.0327 114.882 100.609C115.846 102.423 117.033 104.836 117.212 106.024C117.264 106.369 117.229 106.892 116.767 107.425C116.098 108.195 114.71 108.798 112.396 109.322C110.699 109.706 108.52 110.036 105.917 110.304C101.51 110.756 97.3378 110.876 97.2963 110.878L96.6333 110.896ZM96.1898 79.218C96.0381 79.218 95.9586 79.2732 95.9149 79.3029C95.4019 79.6575 93.864 81.8629 95.6041 95.3636C96.3925 101.478 97.5366 107.422 97.917 109.333C99.2586 109.281 102.442 109.131 105.759 108.789C113.46 107.997 115.18 106.887 115.563 106.446C115.669 106.325 115.66 106.268 115.656 106.244C115.433 104.766 112.528 99.1032 108.559 93.0302C103.963 85.9972 99.706 81.0479 96.8775 79.4517C96.5568 79.2707 96.3385 79.218 96.1898 79.218Z" fill="#00227B"/>
<path d="M72.9561 78.3626L71.9888 85.4412L71.4386 89.4655L70.2651 98.0579C70.2651 98.0579 68.1204 99.4692 64.5528 100.587C63.2198 101.006 61.6845 101.38 59.9902 101.626C57.2204 102.029 54.0181 102.08 50.5486 101.394C41.6222 99.6247 36.2652 93.2102 33.9458 89.9849C29.4632 83.7597 28.7734 82.0767 30.0195 79.456C30.9708 77.4476 32.6007 77.0809 32.6007 77.0809C32.6007 77.0809 32.5203 75.476 33.8335 74.9052C37.7689 73.1954 42.8385 77.7617 42.8385 77.7617C42.8385 77.7617 43.0274 72.8512 45.7439 73.9848C47.6155 74.7664 48.0399 80.1126 48.0399 80.1126C48.0399 80.1126 50.552 83.2354 54.5428 83.6498C56.6283 83.8664 59.5143 83.281 62.3804 82.4308C62.4137 82.4212 62.4474 82.412 62.4807 82.4003C64.0082 81.9441 65.5257 81.4151 66.9153 80.892C67.5386 80.6583 68.1359 80.4241 68.6961 80.2C71.2004 79.1955 72.9561 78.3626 72.9561 78.3626Z" fill="white"/>
<path opacity="0.35" d="M33.9459 89.9845C36.2674 93.2089 41.6235 99.6248 50.549 101.393C56.1399 102.5 61.0392 101.687 64.5545 100.586C68.1221 99.4688 70.2664 98.0567 70.2664 98.0567L70.4237 91.2762C70.4237 91.2762 67.9929 89.0098 65.7289 89.9339C63.0084 91.0441 63.8802 94.818 59.9949 95.8676C49.194 98.7855 40.4198 93.4544 37.5965 91.1139C33.6796 87.8673 32.6578 85.8225 32.1067 84.9787C30.9661 83.2329 30.0852 81.8609 29.5886 80.6323C29.0824 82.7106 30.163 84.729 33.9459 89.9845Z" fill="#00227B"/>
<path d="M55.9349 102.682C54.0712 102.682 52.2152 102.501 50.3912 102.139C46.3788 101.344 42.6353 99.5543 39.2652 96.8187C37.0963 95.0583 35.0894 92.9052 33.3009 90.4205C31.1181 87.3876 29.7307 85.3043 29.0979 83.6308C28.4915 82.0272 28.5516 80.7259 29.3045 79.1385C30.0458 77.5754 31.1665 76.8566 31.8438 76.5484C31.9545 75.7447 32.3854 74.7023 33.5118 74.213C36.712 72.8222 40.405 74.9745 42.2329 76.2992C42.2506 76.2093 42.2705 76.1173 42.2916 76.0241C42.5946 74.7094 43.1176 73.817 43.8459 73.3725C44.2933 73.0995 45.0398 72.8632 46.0576 73.2885C47.0902 73.72 47.8436 74.9908 48.3614 77.1732C48.6264 78.2913 48.7539 79.3409 48.8019 79.8059C49.3577 80.4147 51.5301 82.5725 54.6283 82.894C60.284 83.4803 72.4875 77.7381 72.6103 77.68C72.8705 77.5566 73.1799 77.5817 73.4151 77.7456C73.6502 77.9091 73.7734 78.1851 73.7358 78.4628L71.0465 98.1573C71.0171 98.3722 70.8948 98.5646 70.7093 98.6862C70.6194 98.7456 68.4626 100.152 64.8764 101.286C62.7758 101.95 60.6147 102.382 58.4535 102.571C57.6137 102.645 56.7734 102.682 55.9349 102.682ZM32.7835 77.8205C32.6819 77.8472 31.4816 78.1952 30.7334 79.7725C29.7259 81.8967 29.9736 83.1349 34.5911 89.5507C38.9324 95.5822 44.5047 99.4197 50.7063 100.648C56.3568 101.768 61.2647 100.826 64.3871 99.8391C67.0341 99.0024 68.8594 98.0042 69.5345 97.6057L71.9879 79.6416C70.7063 80.2078 68.61 81.0972 66.2574 81.9502C61.0205 83.8487 57.0509 84.675 54.4606 84.4065C50.1872 83.9637 47.5315 80.7187 47.4205 80.5808C47.3258 80.4628 47.2687 80.3207 47.2571 80.1718C47.2562 80.1593 47.1495 78.8609 46.8244 77.4968C46.2768 75.1974 45.6215 74.7629 45.4339 74.6847C44.9645 74.4886 44.7618 74.6119 44.6853 74.6584C44.0244 75.0606 43.6666 76.7324 43.6233 77.7908C43.6112 78.0877 43.4211 78.3511 43.1371 78.4644C42.8527 78.5778 42.5268 78.5209 42.3016 78.3181C42.2549 78.2763 37.5665 74.1181 34.1558 75.6005C33.37 75.9421 33.3843 76.9725 33.3865 77.0465C33.4098 77.422 33.1634 77.7427 32.7835 77.8205Z" fill="#00227B"/>
<path d="M43.4876 77.7607C43.5058 77.9744 43.4729 78.1688 43.4289 78.3373C43.4068 78.4243 43.3796 78.4996 43.3519 78.5769C43.3238 78.6493 43.2931 78.7229 43.2629 78.7885C43.1388 79.0587 43.0048 79.2824 42.8773 79.4994C42.7494 79.7152 42.6262 79.9205 42.5117 80.1262L42.4278 80.2809C42.4014 80.3328 42.3734 80.3842 42.3478 80.4365L42.2735 80.5937L42.2026 80.7526L42.1382 80.914L42.0786 81.078C42.0583 81.1327 42.0431 81.1888 42.025 81.2444C42.006 81.3 41.9917 81.3569 41.9761 81.4133C41.9165 81.6408 41.8651 81.875 41.8352 82.1162C41.8028 82.3571 41.7821 82.6042 41.776 82.8555C41.7695 82.9818 41.7721 83.1081 41.7708 83.2369C41.7687 83.3013 41.7743 83.3649 41.7747 83.4297C41.776 83.4945 41.7782 83.5593 41.7777 83.625V83.6296C41.7777 83.6802 41.7354 83.7211 41.6827 83.7211C41.6459 83.7211 41.6144 83.7011 41.5988 83.6714C41.4726 83.4347 41.3585 83.1888 41.2703 82.9321C41.1774 82.6762 41.1108 82.4094 41.062 82.1363C40.966 81.5902 40.9682 81.0123 41.0736 80.4478L41.1173 80.237C41.1342 80.1676 41.1527 80.0986 41.1705 80.0288C41.1895 79.9598 41.2107 79.8921 41.2305 79.8231C41.2513 79.7549 41.2759 79.6884 41.2988 79.6211C41.3935 79.3535 41.5106 79.0992 41.6312 78.8609C41.7514 78.6229 41.8793 78.3984 41.983 78.2035C42.0924 78.0062 42.1542 77.846 42.1905 77.7594L42.2666 77.5784C42.3989 77.2643 42.7693 77.1134 43.0939 77.2413C43.3234 77.3325 43.4682 77.5378 43.4876 77.7607Z" fill="#00227B"/>
<path d="M49.6864 101.915C49.488 101.915 49.2965 101.809 49.2023 101.626C49.0692 101.367 49.1781 101.054 49.4452 100.925C51.6249 99.8756 53.1144 96.6014 53.7515 91.4559C54.2455 87.4683 54.0402 83.7597 54.0381 83.7229C54.0217 83.4348 54.2494 83.1881 54.5472 83.1717C54.8438 83.1554 55.1001 83.3762 55.1169 83.6643C55.1191 83.702 55.3296 87.4897 54.826 91.5663C54.5282 93.9787 54.042 96.0256 53.3807 97.6501C52.5248 99.7526 51.3626 101.169 49.9267 101.861C49.8494 101.898 49.7672 101.915 49.6864 101.915Z" fill="#00227B"/>
<g opacity="0.35">
<g opacity="0.35">
<g opacity="0.35">
<g opacity="0.35">
<path opacity="0.35" d="M119.415 135.562V135.455C118.551 135.491 119.415 135.562 119.415 135.562Z" fill="#00227B"/>
</g>
</g>
</g>
</g>
<path d="M108.507 122.719H56.6006C56.6006 122.719 56.917 114.053 59.9875 101.625C61.2181 96.6404 62.893 91.0509 65.1673 85.1724C65.7137 83.7611 66.2959 82.3331 66.9131 80.8912C68.639 76.869 70.6519 72.7497 72.9993 68.6304H92.1086C94.0488 72.0363 95.7609 75.4405 97.2707 78.7933C98.2475 80.9615 99.14 83.1067 99.9539 85.2138C103.506 94.3995 105.592 102.878 106.813 109.441C108.318 117.537 108.507 122.719 108.507 122.719Z" fill="white"/>
<path d="M101.383 91.678C102.386 92.7615 102.845 94.0226 103.268 95.2893C103.481 95.9228 103.691 96.5575 103.891 97.1952C103.991 97.5139 104.094 97.8321 104.183 98.1536C104.276 98.4744 104.365 98.7964 104.455 99.1179L104.718 100.084C104.804 100.407 104.891 100.729 104.973 101.053L105.45 102.997C105.528 103.322 105.613 103.644 105.689 103.969L105.917 104.943L106.151 105.916C106.23 106.24 106.311 106.564 106.384 106.889L106.835 108.839C106.912 109.164 106.979 109.491 107.05 109.817L107.261 110.795L107.366 111.283L107.419 111.528L107.468 111.773L107.666 112.754C107.732 113.081 107.799 113.407 107.871 113.733C107.939 114.06 108.008 114.386 108.08 114.712C108.38 116.014 108.6 117.333 108.691 118.668C108.703 118.835 108.716 119.001 108.724 119.169L108.746 119.671C108.758 120.007 108.767 120.342 108.762 120.679C108.76 121.016 108.752 121.353 108.73 121.691C108.709 122.029 108.68 122.368 108.628 122.708C108.618 122.774 108.554 122.819 108.486 122.81C108.44 122.803 108.404 122.772 108.388 122.733L108.388 122.731C108.14 122.094 107.937 121.453 107.745 120.812C107.651 120.492 107.56 120.171 107.473 119.85L107.346 119.368C107.307 119.207 107.266 119.047 107.224 118.886C107.063 118.242 106.922 117.597 106.794 116.949C106.733 116.624 106.677 116.299 106.626 115.973C106.571 115.647 106.52 115.321 106.468 114.995C106.417 114.668 106.364 114.342 106.309 114.017C106.251 113.691 106.187 113.367 106.122 113.043L105.926 112.071L105.877 111.828L105.825 111.585L105.72 111.101L105.511 110.131C105.44 109.808 105.374 109.484 105.297 109.162L104.85 107.229C104.779 106.906 104.695 106.585 104.616 106.264L104.371 105.302L104.121 104.342C104.081 104.181 104.034 104.022 103.99 103.863L103.856 103.385L103.316 101.474C103.129 100.839 102.938 100.205 102.756 99.5683C102.665 99.2501 102.575 98.9318 102.487 98.6128L102.421 98.3736L102.351 98.1353L102.214 97.6581C102.031 97.0221 101.858 96.3832 101.687 95.7434L101.562 95.2625C101.52 95.1023 101.474 94.9434 101.43 94.7837C101.342 94.4642 101.269 94.1406 101.213 93.8115C101.158 93.482 101.12 93.1474 101.105 92.8054C101.097 92.6344 101.096 92.4612 101.103 92.2856C101.11 92.11 101.122 91.9323 101.154 91.7487L101.155 91.7416C101.167 91.6722 101.235 91.6253 101.307 91.637C101.337 91.6425 101.364 91.6575 101.383 91.678Z" fill="#00227B"/>
<path d="M56.4803 122.716C56.4004 122.543 56.3455 122.372 56.2941 122.2C56.2426 122.028 56.2041 121.858 56.17 121.687C56.1008 121.344 56.0637 121.003 56.0429 120.663C56.0334 120.493 56.0269 120.323 56.0274 120.154C56.0278 119.984 56.0347 119.816 56.0429 119.647L56.0723 119.142C56.0814 118.973 56.0922 118.805 56.1065 118.636C56.1605 117.964 56.2132 117.291 56.2945 116.622C56.3312 116.286 56.3723 115.952 56.4129 115.617C56.4328 115.45 56.4596 115.283 56.4829 115.116L56.556 114.615L56.7086 113.616C56.7622 113.283 56.8244 112.952 56.8827 112.62C57.002 111.956 57.1144 111.291 57.2506 110.631C57.3828 109.97 57.5039 109.307 57.6391 108.647C57.7766 107.988 57.9106 107.328 58.0428 106.667C58.0766 106.502 58.1068 106.336 58.1436 106.172L58.2525 105.679L58.4699 104.692L58.6873 103.705C58.7059 103.622 58.7227 103.54 58.7422 103.458L58.8018 103.213L58.9211 102.721L59.3979 100.756C59.4363 100.592 59.4796 100.429 59.5224 100.266C59.5639 100.103 59.6062 99.9397 59.646 99.7762C59.7264 99.4488 59.8059 99.1214 59.8824 98.7931C59.9606 98.4653 60.0371 98.1366 60.118 97.8092C60.1958 97.4809 60.2935 97.1581 60.3911 96.8349C60.491 96.5125 60.5969 96.1917 60.708 95.8723C60.8195 95.5532 60.9379 95.2358 61.0576 94.9193L61.2426 94.4459C61.2737 94.3673 61.3083 94.2895 61.342 94.2113C61.3762 94.1336 61.409 94.0554 61.4445 93.9776C61.5841 93.6669 61.7254 93.3575 61.8758 93.0509C62.0245 92.7436 62.1797 92.4388 62.3426 92.1368C62.5056 91.8349 62.6746 91.5351 62.8622 91.2416C62.8981 91.1851 62.9746 91.1676 63.0329 91.2027C63.0727 91.2265 63.0939 91.2687 63.0917 91.3114V91.3131C63.0139 92.693 62.7468 94.006 62.4831 95.3186C62.4153 95.646 62.3461 95.973 62.27 96.2984C62.1935 96.6233 62.1114 96.9465 62.0241 97.2681C61.8417 97.9095 61.6584 98.5506 61.4674 99.1904C61.3719 99.5103 61.2789 99.8306 61.1869 100.151C61.1402 100.311 61.0965 100.472 61.052 100.633C61.0084 100.794 60.9634 100.955 60.9262 101.117L60.4547 103.061L60.3367 103.547L60.2779 103.79C60.2584 103.871 60.2416 103.953 60.2234 104.034L60.0082 105.01L59.7929 105.987L59.6853 106.475C59.6494 106.638 59.6192 106.802 59.5859 106.965C59.0335 109.574 58.6622 112.214 58.3013 114.849L58.1613 115.836C58.1176 116.166 58.074 116.495 58.0264 116.825L57.7481 118.8C57.6975 119.129 57.6569 119.458 57.611 119.787C57.5873 119.951 57.5622 120.116 57.5307 120.28C57.4995 120.444 57.4688 120.608 57.4308 120.771C57.3552 121.098 57.2614 121.424 57.1503 121.75C57.095 121.912 57.0288 122.075 56.961 122.238C56.8914 122.4 56.8157 122.563 56.7224 122.725L56.7215 122.726C56.6852 122.789 56.6035 122.812 56.5387 122.777C56.5115 122.762 56.492 122.74 56.4803 122.716Z" fill="#00227B"/>
<path d="M71.5517 111.785C68.5914 112.945 64.0098 112.702 60.8865 112.336C59.0132 112.117 57.698 110.444 57.9742 108.638C58.2261 106.99 59.7255 105.792 61.4454 105.87C64.3668 106.002 68.7492 106.064 71.5245 105.469" fill="white"/>
<g opacity="0.35">
<g opacity="0.35">
<g opacity="0.35">
<g opacity="0.35">
<path opacity="0.35" d="M71.5532 111.785C68.592 112.946 64.0103 112.701 60.8871 112.338C59.0138 112.118 57.6989 110.445 57.9751 108.64C58.03 108.271 58.1498 107.926 58.3196 107.61C58.8128 108.521 59.7468 109.193 60.8871 109.326C64.0047 109.692 68.5786 109.935 71.5402 108.781L71.5532 111.785Z" fill="#00227B"/>
</g>
</g>
</g>
</g>
<path d="M65.668 113.399C63.955 113.399 62.2521 113.262 60.7937 113.091C59.6769 112.96 58.6858 112.412 58.0028 111.546C57.3186 110.679 57.0329 109.607 57.198 108.527C57.3484 107.543 57.868 106.653 58.6607 106.02C59.4543 105.387 60.457 105.063 61.484 105.11C65.7877 105.305 69.2935 105.169 71.3556 104.726C71.7697 104.638 72.7984 104.634 73.4057 106.523C74.0225 108.442 73.9542 111.666 71.8488 112.49C70.1126 113.17 67.8823 113.399 65.668 113.399ZM61.2878 106.626C60.0196 106.626 58.9416 107.52 58.754 108.749C58.6516 109.419 58.8288 110.085 59.2533 110.623C59.6764 111.159 60.2906 111.499 60.983 111.58C65.4493 112.103 69.099 111.925 71.2588 111.079C71.9003 110.828 72.0844 109.822 72.1341 109.402C72.307 107.93 71.8441 106.57 71.554 106.241C68.7394 106.813 64.4979 106.769 61.4109 106.629C61.3695 106.627 61.3284 106.626 61.2878 106.626Z" fill="#00227B"/>
<path d="M94.1992 111.785C97.1595 112.945 101.741 112.702 104.864 112.336C106.738 112.117 108.053 110.444 107.777 108.638C107.525 106.99 106.025 105.792 104.306 105.87C101.384 106.002 97.0018 106.064 94.2264 105.469" fill="white"/>
<g opacity="0.35">
<g opacity="0.35">
<g opacity="0.35">
<g opacity="0.35">
<path opacity="0.35" d="M104.863 112.336C101.74 112.7 97.1589 112.945 94.1973 111.784L94.2102 108.752C97.1714 109.906 101.745 109.663 104.863 109.297C105.998 109.166 106.927 108.499 107.423 107.593C107.598 107.911 107.72 108.262 107.778 108.638C108.052 110.443 106.737 112.117 104.863 112.336Z" fill="#00227B"/>
</g>
</g>
</g>
</g>
<path d="M100.08 113.399C97.8658 113.399 95.6359 113.17 93.8992 112.49C91.7938 111.666 91.7255 108.442 92.3423 106.523C92.9492 104.635 93.9783 104.638 94.3924 104.726C96.455 105.169 99.9608 105.305 104.264 105.11C105.292 105.064 106.294 105.387 107.087 106.02C107.88 106.653 108.4 107.543 108.55 108.527C108.715 109.607 108.429 110.679 107.745 111.546C107.062 112.412 106.071 112.96 104.954 113.091C103.496 113.262 101.793 113.399 100.08 113.399ZM94.1944 106.241C93.9044 106.57 93.4415 107.93 93.6144 109.402C93.6636 109.823 93.8478 110.828 94.4896 111.08C96.6495 111.926 100.299 112.104 104.765 111.581C105.457 111.5 106.072 111.16 106.495 110.623C106.92 110.085 107.097 109.42 106.994 108.749C106.801 107.481 105.659 106.57 104.338 106.63C101.25 106.77 97.0091 106.813 94.1944 106.241Z" fill="#00227B"/>
<path d="M95.3433 103.382V113.504C95.3433 115.382 93.7544 116.919 91.8133 116.919H72.545C70.6064 116.919 69.0176 115.382 69.0176 113.504V103.382C69.0176 101.504 70.6064 99.9692 72.545 99.9692H91.8133C92.9561 99.9692 93.9761 100.502 94.6232 101.322C95.0744 101.895 95.3433 102.61 95.3433 103.382Z" fill="white"/>
<g opacity="0.35">
<g opacity="0.35">
<g opacity="0.35">
<g opacity="0.35">
<path opacity="0.35" d="M95.3437 103.382V113.504C95.3437 115.382 93.7557 116.918 91.8146 116.918H72.5467C70.6056 116.918 69.0176 115.382 69.0176 113.504V109.718C71.9113 112.572 77.6025 114.364 82.8221 114.391C84.4991 114.399 85.852 113.116 85.9717 111.497C85.973 111.481 85.9743 111.465 85.9756 111.449C86.104 110.029 87.3129 108.879 88.7825 108.776C90.4561 108.66 91.869 109.856 92.0346 111.41C94.561 108.392 93.821 103.148 94.6245 101.322C95.0762 101.895 95.3437 102.609 95.3437 103.382Z" fill="#00227B"/>
</g>
</g>
</g>
</g>
<path d="M91.8108 117.677H72.542C70.1631 117.677 68.2275 115.804 68.2275 113.503V103.38C68.2275 101.078 70.1631 99.2056 72.542 99.2056H91.8108C94.1897 99.2056 96.1253 101.078 96.1253 103.38V113.503C96.1253 115.804 94.1897 117.677 91.8108 117.677ZM72.542 100.727C71.0301 100.727 69.8 101.917 69.8 103.38V113.503C69.8 114.966 71.0301 116.156 72.542 116.156H91.8108C93.3227 116.156 94.5528 114.966 94.5528 113.503V103.38C94.5528 101.917 93.3227 100.727 91.8108 100.727H72.542Z" fill="#00227B"/>
<path d="M89.0048 111.386C90.6854 111.386 92.0477 110.068 92.0477 108.442C92.0477 106.817 90.6854 105.499 89.0048 105.499C87.3243 105.499 85.9619 106.817 85.9619 108.442C85.9619 110.068 87.3243 111.386 89.0048 111.386Z" fill="#22A7F0"/>
<g opacity="0.7">
<g opacity="0.7">
<g opacity="0.7">
<g opacity="0.7">
<path opacity="0.7" d="M92.0481 108.442C92.0481 108.644 92.0282 108.839 91.9889 109.03C91.708 107.684 90.4787 106.672 89.0061 106.672C87.5313 106.672 86.3021 107.684 86.0211 109.03C85.9818 108.839 85.9619 108.644 85.9619 108.442C85.9619 106.815 87.3247 105.499 89.0061 105.499C90.6849 105.499 92.0481 106.815 92.0481 108.442Z" fill="white"/>
</g>
</g>
</g>
</g>
<g opacity="0.35">
<g opacity="0.35">
<g opacity="0.35">
<g opacity="0.35">
<path opacity="0.35" d="M92.045 108.442C92.045 110.068 90.683 111.386 89.003 111.386C87.3229 111.386 85.9609 110.068 85.9609 108.442C85.9609 108.067 86.034 107.708 86.1697 107.377C86.608 108.476 87.7119 109.253 89.0034 109.253C90.2949 109.253 91.3984 108.476 91.8371 107.377C91.9719 107.708 92.045 108.066 92.045 108.442Z" fill="#00227B"/>
</g>
</g>
</g>
</g>
<path d="M89.0006 111.959C86.9977 111.959 85.3682 110.382 85.3682 108.444C85.3682 106.507 86.9977 104.93 89.0006 104.93C91.0036 104.93 92.6331 106.507 92.6331 108.444C92.6331 110.382 91.0036 111.959 89.0006 111.959ZM89.0006 106.071C87.6482 106.071 86.5477 107.136 86.5477 108.444C86.5477 109.753 87.6482 110.817 89.0006 110.817C90.353 110.817 91.4535 109.753 91.4535 108.444C91.4535 107.136 90.353 106.071 89.0006 106.071Z" fill="#00227B"/>
<path d="M80.3813 117.489C80.0554 117.489 79.7918 117.234 79.7918 116.919V109.986L75.9385 107.179V99.9688C75.9385 99.6535 76.2026 99.3984 76.528 99.3984C76.8535 99.3984 77.1176 99.6539 77.1176 99.9688V106.61L80.9709 109.416V116.919C80.9709 117.234 80.7068 117.489 80.3813 117.489Z" fill="#00227B"/>
<path d="M82.5547 122.367C85.9632 122.367 89.2408 121.144 91.8009 118.966C95.3469 115.95 101.316 112.354 107.905 114.661C110.549 115.586 112.351 117.283 113.58 119.161C116.746 112.065 123.386 111.64 126.261 115.661C126.261 115.661 121.429 137.961 119.855 138.457C117.599 139.168 112.179 138.421 112.179 138.421C112.179 138.421 93.3223 135.951 82.5547 135.951C71.787 135.951 52.9306 138.421 52.9306 138.421C52.9306 138.421 47.5105 139.168 45.2547 138.457C43.6801 137.961 38.8486 115.661 38.8486 115.661C41.7225 111.639 48.3637 112.065 51.5293 119.161C52.7582 117.283 54.5601 115.586 57.2041 114.661C63.7929 112.354 69.7625 115.95 73.3085 118.966C75.8685 121.143 79.1461 122.367 82.5547 122.367Z" fill="white"/>
<g opacity="0.35">
<path d="M126.263 115.662C126.263 115.662 121.431 137.962 119.857 138.459C117.602 139.17 112.18 138.423 112.18 138.423C112.18 138.423 93.3248 135.952 82.5563 135.952C71.7899 135.952 52.9322 138.423 52.9322 138.423C52.9322 138.423 47.5125 139.17 45.258 138.459C43.6834 137.962 38.8516 115.662 38.8516 115.662C39.3253 115 39.8993 114.458 40.5442 114.047C42.0933 120.586 44.2907 129.123 45.258 129.427C47.513 130.136 52.9322 129.389 52.9322 129.389C52.9322 129.389 71.7899 124.448 82.5563 124.448C93.3248 124.448 112.18 129.389 112.18 129.389C112.18 129.389 117.602 130.136 119.857 129.427C120.824 129.123 123.021 120.586 124.571 114.047C125.215 114.458 125.789 115 126.263 115.662Z" fill="#00227B"/>
</g>
<path d="M48.1657 139.522C46.9832 139.522 45.8278 139.437 45.0152 139.181C44.4611 139.006 43.9952 138.412 43.1208 135.776C42.609 134.234 41.9948 132.086 41.2959 129.392C40.0373 124.542 38.8106 119.103 38.3416 116.989C38.0961 115.883 38.4709 114.738 39.3202 114.003C40.9506 112.591 43.1359 112.048 45.3152 112.512C46.6888 112.804 48.0253 113.498 49.1802 114.518C50.1367 115.363 50.9683 116.419 51.6616 117.667C53.0685 115.93 54.8398 114.681 56.9413 113.945C59.3224 113.111 61.8138 112.946 64.3466 113.453C66.3915 113.863 68.4709 114.712 70.5266 115.978C70.8931 116.204 71.0008 116.674 70.7678 117.029C70.5348 117.383 70.0486 117.487 69.682 117.262C65.451 114.656 61.3444 114.022 57.4764 115.376C55.2949 116.14 53.5189 117.55 52.1984 119.568C52.0424 119.806 51.7623 119.942 51.4723 119.92C51.1818 119.898 50.9277 119.722 50.8118 119.463C49.4892 116.498 47.3627 114.506 44.9772 113.998C43.2976 113.641 41.6179 114.056 40.3692 115.138C39.9396 115.509 39.752 116.097 39.8795 116.671C40.3221 118.666 41.4822 123.812 42.6907 128.515C43.355 131.099 43.9437 133.202 44.4408 134.764C45.1367 136.951 45.5002 137.593 45.6294 137.772C47.4059 138.254 51.4014 137.865 52.8243 137.669C52.826 137.668 52.8277 137.668 52.8295 137.668C53.0184 137.643 71.8622 135.191 82.559 135.191C93.2562 135.191 112.1 137.643 112.288 137.668C112.29 137.668 112.292 137.668 112.294 137.669C113.717 137.865 117.712 138.254 119.489 137.772C119.616 137.596 119.97 136.973 120.642 134.875C121.128 133.362 121.702 131.323 122.35 128.815C123.506 124.343 124.614 119.477 125.171 116.975C125.354 116.155 125.037 115.314 124.362 114.833C123.076 113.915 121.481 113.642 119.872 114.062C117.568 114.665 115.591 116.583 114.307 119.463C114.191 119.722 113.937 119.898 113.646 119.92C113.355 119.942 113.076 119.807 112.92 119.569C111.599 117.551 109.824 116.14 107.642 115.377C103.74 114.01 99.5987 114.667 95.3313 117.328C94.9661 117.555 94.4798 117.454 94.2443 117.1C94.0091 116.747 94.1142 116.276 94.4794 116.048C96.5476 114.759 98.6404 113.891 100.7 113.468C103.257 112.943 105.773 113.104 108.178 113.946C110.279 114.681 112.05 115.931 113.458 117.668C114.935 115.011 117.033 113.228 119.462 112.593C121.513 112.057 123.639 112.427 125.296 113.609C126.467 114.444 127.022 115.891 126.709 117.295C126.119 119.946 124.948 125.082 123.744 129.693C123.062 132.308 122.462 134.392 121.962 135.885C121.109 138.433 120.65 139.009 120.103 139.182C117.712 139.935 112.349 139.213 112.076 139.175C111.78 139.137 93.1192 136.713 82.5594 136.713C71.9979 136.713 53.3386 139.137 53.043 139.175C52.8615 139.199 50.463 139.522 48.1657 139.522Z" fill="#00227B"/>
<path d="M118.456 138.459H119.857C121.501 138.459 122.992 137.526 123.661 136.074C125.757 131.532 129.58 121.553 126 115.463C125.895 115.285 125.784 115.114 125.666 114.95C125.666 114.95 122.229 111.926 119.759 116.204C117.453 120.201 112.612 137.292 118.456 138.459Z" fill="#AFAFB2"/>
<g opacity="0.7">
<g opacity="0.7">
<g opacity="0.7">
<g opacity="0.7">
<path opacity="0.7" d="M118.499 119.052C118.561 118.957 118.623 118.866 118.683 118.782C121.719 114.504 125.945 117.528 125.945 117.528C126.09 117.692 126.228 117.863 126.355 118.041C126.779 118.627 127.118 119.249 127.383 119.9C127.212 118.3 126.784 116.788 126.004 115.462C125.9 115.285 125.788 115.114 125.67 114.95C125.67 114.95 122.233 111.925 119.764 116.204C119.389 116.852 118.949 117.841 118.499 119.052Z" fill="white"/>
</g>
</g>
</g>
</g>
<path d="M127.361 120.355C127.325 120.355 127.289 120.352 127.253 120.346L118.662 118.959C118.309 118.902 118.07 118.579 118.129 118.237C118.188 117.895 118.522 117.664 118.875 117.721L127.466 119.108C127.819 119.165 128.058 119.489 127.999 119.831C127.946 120.138 127.672 120.355 127.361 120.355Z" fill="#00227B"/>
<path d="M127.306 124.848C127.277 124.848 127.248 124.846 127.218 124.842L117.169 123.535C116.814 123.489 116.565 123.173 116.612 122.83C116.66 122.487 116.986 122.246 117.341 122.292L127.391 123.599C127.746 123.645 127.995 123.961 127.947 124.304C127.904 124.619 127.625 124.848 127.306 124.848Z" fill="#00227B"/>
<path d="M126.419 129.246C126.392 129.246 126.366 129.244 126.339 129.241L116.137 128.033C115.782 127.991 115.529 127.678 115.572 127.334C115.616 126.991 115.939 126.746 116.294 126.788L126.496 127.996C126.852 128.038 127.104 128.351 127.061 128.695C127.021 129.013 126.741 129.246 126.419 129.246Z" fill="#00227B"/>
<path d="M124.802 134.041C124.783 134.041 124.763 134.041 124.743 134.039L115.622 133.243C115.266 133.212 115.003 132.907 115.035 132.562C115.067 132.217 115.382 131.962 115.739 131.993L124.86 132.79C125.216 132.82 125.48 133.126 125.447 133.471C125.417 133.796 125.134 134.041 124.802 134.041Z" fill="#00227B"/>
<g opacity="0.35">
<g opacity="0.35">
<g opacity="0.35">
<g opacity="0.35">
<path opacity="0.35" d="M118.457 138.457H119.858C121.502 138.457 122.993 137.524 123.662 136.072C124.204 134.895 124.863 133.355 125.48 131.61C124.639 132.96 122.931 133.816 121.055 133.816H119.386C117.011 133.418 116.117 131.164 116.081 128.21C115.278 133.197 115.499 137.867 118.457 138.457Z" fill="#00227B"/>
</g>
</g>
</g>
</g>
<path d="M119.857 139.086H118.457C118.413 139.086 118.369 139.082 118.326 139.073C117.194 138.847 116.338 138.137 115.783 136.962C114.474 134.193 115.11 129.369 115.875 125.81C116.809 121.46 118.252 117.531 119.194 115.898C120.06 114.397 121.152 113.533 122.437 113.33C124.409 113.019 126.035 114.426 126.103 114.486C126.139 114.517 126.171 114.553 126.198 114.591C126.328 114.77 126.451 114.959 126.564 115.153C128.201 117.936 128.548 121.743 127.597 126.468C126.823 130.309 125.352 133.951 124.254 136.329C123.482 138.004 121.756 139.086 119.857 139.086ZM118.527 137.832H119.857C121.245 137.832 122.506 137.041 123.07 135.818C124.14 133.5 125.573 129.954 126.323 126.229C127.214 121.807 126.915 118.289 125.437 115.773C125.356 115.636 125.27 115.502 125.181 115.374C124.938 115.182 123.835 114.377 122.639 114.569C121.766 114.71 120.988 115.363 120.327 116.51C119.454 118.021 118.043 121.884 117.145 126.065C116.12 130.837 116.055 134.522 116.963 136.441C117.331 137.22 117.843 137.676 118.527 137.832Z" fill="#00227B"/>
<path d="M46.657 138.459H45.2566C43.6124 138.459 42.1216 137.526 41.4521 136.074C39.3558 131.532 35.5336 121.553 39.1138 115.463C39.2179 115.285 39.3295 115.114 39.4474 114.95C39.4474 114.95 42.8845 111.926 45.3538 116.204C47.6602 120.201 52.5012 137.292 46.657 138.459Z" fill="#AFAFB2"/>
<g opacity="0.7">
<g opacity="0.7">
<g opacity="0.7">
<g opacity="0.7">
<path opacity="0.7" d="M46.6213 119.052C46.5595 118.957 46.4977 118.866 46.4376 118.782C43.4016 114.504 39.1749 117.528 39.1749 117.528C39.0301 117.692 38.8922 117.863 38.7651 118.041C38.3411 118.627 38.0023 119.249 37.7373 119.9C37.9085 118.3 38.3359 116.788 39.1165 115.462C39.2207 115.285 39.3322 115.114 39.4502 114.95C39.4502 114.95 42.8873 111.925 45.3566 116.204C45.7309 116.852 46.1709 117.841 46.6213 119.052Z" fill="white"/>
</g>
</g>
</g>
</g>
<path d="M37.7542 120.355C37.443 120.355 37.1685 120.137 37.1154 119.831C37.0566 119.489 37.2947 119.166 37.6483 119.108L46.2393 117.721C46.5924 117.664 46.9265 117.895 46.9853 118.237C47.0441 118.578 46.8059 118.902 46.4523 118.959L37.8614 120.346C37.8255 120.352 37.7896 120.355 37.7542 120.355Z" fill="#00227B"/>
<path d="M37.8078 124.848C37.488 124.848 37.2096 124.619 37.166 124.304C37.1184 123.961 37.3674 123.645 37.7223 123.599L47.7724 122.292C48.1277 122.245 48.4536 122.487 48.5016 122.83C48.5491 123.173 48.3002 123.489 47.9453 123.535L37.8951 124.843C37.8658 124.846 37.8368 124.848 37.8078 124.848Z" fill="#00227B"/>
<path d="M38.6935 129.246C38.3706 129.246 38.091 129.013 38.0508 128.695C38.0071 128.351 38.26 128.038 38.6157 127.996L48.8176 126.788C49.1729 126.746 49.4962 126.99 49.5399 127.334C49.5835 127.678 49.3307 127.991 48.9749 128.033L38.7731 129.241C38.7463 129.245 38.7195 129.246 38.6935 129.246Z" fill="#00227B"/>
<path d="M40.3135 134.041C39.9816 134.041 39.6989 133.796 39.6687 133.471C39.6367 133.126 39.8995 132.821 40.256 132.789L49.3769 131.993C49.7339 131.962 50.0486 132.217 50.081 132.562C50.113 132.907 49.8502 133.211 49.4936 133.243L40.3728 134.039C40.3529 134.041 40.333 134.041 40.3135 134.041Z" fill="#00227B"/>
<g opacity="0.35">
<g opacity="0.35">
<g opacity="0.35">
<g opacity="0.35">
<path opacity="0.35" d="M46.6562 138.457H45.2558C43.6116 138.457 42.1208 137.524 41.4513 136.072C40.9093 134.895 40.2501 133.355 39.6338 131.61C40.4745 132.96 42.1826 133.816 44.0581 133.816H45.7273C48.1029 133.418 48.9967 131.164 49.0322 128.21C49.8352 133.197 49.6144 137.867 46.6562 138.457Z" fill="#00227B"/>
</g>
</g>
</g>
</g>
<path d="M46.6607 139.086H45.2603C43.3615 139.086 41.6356 138.004 40.8637 136.328C39.7663 133.951 38.295 130.309 37.5213 126.468C36.5699 121.743 36.917 117.936 38.5534 115.152C38.6671 114.959 38.7903 114.77 38.9191 114.591C38.9468 114.552 38.9787 114.517 39.0146 114.486C39.0829 114.426 40.7085 113.019 42.6803 113.33C43.9658 113.533 45.0572 114.397 45.9233 115.898C46.8656 117.531 48.3084 121.46 49.2429 125.81C50.0075 129.369 50.6437 134.193 49.3345 136.962C48.7791 138.137 47.9237 138.847 46.7917 139.073C46.7485 139.082 46.7044 139.086 46.6607 139.086ZM39.9361 115.374C39.8467 115.502 39.7611 115.635 39.6807 115.772C38.2016 118.289 37.9029 121.806 38.7937 126.229C39.5441 129.954 40.9769 133.499 42.0476 135.818C42.6116 137.041 43.8724 137.832 45.2599 137.832H46.5898C47.2741 137.676 47.7867 137.22 48.1549 136.44C49.0622 134.521 48.9978 130.836 47.973 126.065C47.0748 121.883 45.6631 118.021 44.7909 116.51C44.1292 115.363 43.3512 114.71 42.4789 114.569C41.2851 114.377 40.1821 115.18 39.9361 115.374Z" fill="#00227B"/>
<path d="M62.4674 137.885C62.3753 137.885 62.282 137.865 62.1947 137.82C61.9059 137.674 61.7944 137.329 61.9457 137.05C64.4081 132.498 64.4444 127.379 62.0538 121.836C60.2505 117.654 57.6684 114.793 57.6424 114.765C57.4272 114.529 57.4505 114.168 57.6947 113.96C57.9389 113.751 58.3115 113.774 58.5268 114.01C58.637 114.131 61.2472 117.018 63.1283 121.364C64.2382 123.929 64.8572 126.466 64.9687 128.907C65.1087 131.976 64.4431 134.894 62.9904 137.579C62.8849 137.774 62.6796 137.885 62.4674 137.885Z" fill="#00227B"/>
<path d="M102.888 137.885C102.675 137.885 102.47 137.774 102.365 137.579C100.912 134.894 100.246 131.976 100.386 128.907C100.498 126.467 101.117 123.929 102.227 121.364C104.108 117.018 106.718 114.13 106.828 114.01C107.044 113.774 107.417 113.751 107.661 113.96C107.905 114.168 107.928 114.528 107.713 114.765C107.687 114.793 105.105 117.654 103.301 121.835C100.911 127.379 100.947 132.498 103.409 137.05C103.56 137.329 103.449 137.674 103.16 137.82C103.073 137.864 102.98 137.885 102.888 137.885Z" fill="#00227B"/>
<g opacity="0.35">
<path d="M102.097 83.075C101.417 83.8281 100.702 84.5431 99.9564 85.2147C98.1873 86.8083 96.2487 88.1644 94.1749 89.239C90.6717 91.0572 86.7855 92.0767 82.6927 92.0955C78.6942 92.1126 74.8884 91.173 71.4388 89.4653C69.18 88.345 67.0746 86.8978 65.1698 85.1729C64.2223 84.3131 63.3237 83.3869 62.4805 82.4C64.008 81.9438 65.5255 81.4149 66.9151 80.8917C68.641 76.8694 70.6539 72.7502 73.0013 68.6309H92.1106C94.0508 72.0368 95.7629 75.441 97.2727 78.7938C98.712 79.6059 100.369 81.1351 102.097 83.075Z" fill="#00227B"/>
</g>
<path d="M111.737 64.7101C111.404 64.7448 111.106 64.5119 111.07 64.1899L109.205 47.3991C109.169 47.0772 109.41 46.7882 109.742 46.7535C113.234 46.3905 116.368 48.8343 116.743 52.2117L117.379 57.9376C117.755 61.3151 115.228 64.3472 111.737 64.7101Z" fill="white"/>
<path d="M111.67 64.8558C111.498 64.8558 111.333 64.7998 111.197 64.694C111.04 64.5714 110.942 64.3971 110.92 64.203L109.055 47.4122C109.034 47.2182 109.092 47.0275 109.218 46.8757C109.345 46.7239 109.525 46.6286 109.726 46.6077C113.294 46.2368 116.507 48.7428 116.891 52.1943L117.526 57.9202C117.712 59.592 117.214 61.2337 116.123 62.5429C115.033 63.8522 113.48 64.6722 111.752 64.852L111.736 64.7082L111.752 64.852C111.725 64.8545 111.697 64.8558 111.67 64.8558ZM110.425 46.8598C110.205 46.8598 109.982 46.8711 109.758 46.8945C109.636 46.9071 109.527 46.9648 109.451 47.0564C109.374 47.1484 109.339 47.2634 109.352 47.3809L111.217 64.1717C111.23 64.2892 111.29 64.3946 111.385 64.4686C111.48 64.5426 111.599 64.5765 111.72 64.5639C113.369 64.3925 114.85 63.6101 115.891 62.361C116.932 61.112 117.407 59.5456 117.23 57.9503L116.594 52.2244C116.252 49.1488 113.554 46.8598 110.425 46.8598Z" fill="#00227B"/>
<g opacity="0.35">
<g opacity="0.35">
<g opacity="0.35">
<g opacity="0.35">
<path opacity="0.35" d="M117.078 55.251L117.377 57.9364C117.752 61.3126 115.226 64.3455 111.734 64.7098C111.401 64.7449 111.103 64.5099 111.067 64.1883L110.569 59.7249C110.685 59.9185 110.912 60.0372 111.156 60.0138L111.567 59.9699C114.326 59.6835 116.484 57.7286 117.078 55.251Z" fill="#00227B"/>
</g>
</g>
</g>
</g>
<path d="M111.674 65.5192C111.348 65.5192 111.033 65.4121 110.775 65.211C110.476 64.9781 110.289 64.646 110.248 64.2768L108.382 47.486C108.341 47.1168 108.452 46.7538 108.692 46.4644C108.933 46.1751 109.276 45.994 109.658 45.9543C113.599 45.5445 117.151 48.3135 117.574 52.1267L118.21 57.8526C118.415 59.6996 117.865 61.5136 116.66 62.9604C115.455 64.4068 113.739 65.313 111.83 65.5112C111.778 65.5162 111.726 65.5192 111.674 65.5192ZM111.654 63.9109H111.653C111.653 63.9109 111.653 63.9109 111.654 63.9109ZM110.061 47.5353L111.877 63.8837C113.255 63.6864 114.486 63.0056 115.366 61.9506C116.292 60.8387 116.715 59.4445 116.557 58.0245L115.921 52.2986C115.604 49.4401 113 47.3447 110.061 47.5353Z" fill="#00227B"/>
<path d="M52.4559 52.7075C52.7887 52.6728 53.0874 52.9057 53.1232 53.2277L54.9883 70.0185C55.0242 70.3405 54.7834 70.6295 54.4506 70.6642C50.9595 71.0271 47.8254 68.5834 47.4502 65.2059L46.8144 59.4801C46.4384 56.1026 48.9648 53.0705 52.4559 52.7075Z" fill="white"/>
<path d="M53.7623 70.846C50.4834 70.8464 47.6553 68.447 47.2975 65.223L46.6616 59.4971C46.2783 56.0456 48.8686 52.9362 52.4362 52.5653L52.4522 52.7091L52.4362 52.5653C52.8499 52.5222 53.2233 52.8132 53.2678 53.2138L55.1329 70.0046C55.1774 70.4052 54.8766 70.7661 54.4625 70.8092C54.2278 70.8339 53.9935 70.846 53.7623 70.846ZM52.517 52.85C52.5006 52.85 52.4846 52.8509 52.4678 52.8525C49.064 53.2063 46.5925 56.1731 46.9586 59.4662L47.5944 65.192C47.9601 68.485 51.0263 70.8761 54.4305 70.5223C54.6808 70.4964 54.8628 70.2781 54.836 70.036L52.9709 53.2452C52.9458 53.0185 52.747 52.85 52.517 52.85Z" fill="#00227B"/>
<g opacity="0.35">
<g opacity="0.35">
<g opacity="0.35">
<g opacity="0.35">
<path opacity="0.35" d="M54.4712 65.3597L54.9881 70.018C55.0244 70.34 54.7815 70.629 54.4491 70.6637C52.6165 70.8535 50.8806 70.271 49.5917 69.1846C48.4278 68.2036 47.6281 66.8095 47.4496 65.2062L47.1816 62.7935C48.4079 64.8073 50.7795 66.0522 53.3392 65.7867L53.9724 65.7206C54.2032 65.6963 54.386 65.5521 54.4712 65.3597Z" fill="#00227B"/>
</g>
</g>
</g>
</g>
<path d="M53.7653 71.5031C50.1423 71.5035 47.0182 68.8528 46.6227 65.2905L45.9869 59.5646C45.5633 55.7514 48.4255 52.3158 52.367 51.906C53.1545 51.824 53.8651 52.3777 53.9498 53.14L55.8149 69.9312C55.8996 70.6939 55.3273 71.3806 54.5389 71.4625C54.2792 71.4901 54.0207 71.5031 53.7653 71.5031ZM52.3203 53.5339C49.4071 53.9521 47.3229 56.5346 47.6402 59.3932L48.276 65.119C48.5936 67.9776 51.1974 70.0725 54.1361 69.8823L52.3203 53.5339Z" fill="#00227B"/>
<path d="M82.0975 87.4857C98.5257 87.4857 111.843 74.6015 111.843 58.708C111.843 42.8144 98.5257 29.9302 82.0975 29.9302C65.6693 29.9302 52.3516 42.8144 52.3516 58.708C52.3516 74.6015 65.6693 87.4857 82.0975 87.4857Z" fill="white"/>
<path d="M82.0683 87.6315C78.4211 87.6315 74.8583 86.9988 71.4614 85.7464C67.8493 84.415 64.5769 82.4421 61.7341 79.8838C58.8914 77.3251 56.6222 74.3093 54.9888 70.9201C53.2979 67.4109 52.3669 63.6534 52.2212 59.7515C52.0756 55.8497 52.7243 52.0369 54.1494 48.4189C55.5256 44.9244 57.5648 41.7585 60.2092 39.0083C62.8536 36.258 65.9717 34.0623 69.4753 32.482C73.1026 30.8462 76.9866 29.9455 81.0197 29.8045C85.0528 29.6636 88.9939 30.2913 92.7335 31.67C96.3456 33.0014 99.618 34.9743 102.461 37.5326C105.304 40.0913 107.573 43.1071 109.206 46.4962C110.897 50.0054 111.828 53.763 111.974 57.6649C112.119 61.5667 111.471 65.3795 110.046 68.9974C108.669 72.492 106.63 75.6579 103.985 78.4081C101.34 81.1584 98.2232 83.3537 94.72 84.934C91.0928 86.5698 87.2088 87.4705 83.1756 87.6114C82.8052 87.6248 82.4361 87.6315 82.0683 87.6315ZM82.1111 30.0747C81.7515 30.0747 81.3927 30.081 81.0301 30.0935C64.7212 30.663 51.9316 43.9626 52.5199 59.7406C52.8047 67.3838 56.1493 74.4624 61.9373 79.6718C67.4572 84.6404 74.5704 87.3417 82.0704 87.3421C82.4344 87.3421 82.7983 87.3359 83.164 87.3229C91.0642 87.0473 98.381 83.8116 103.766 78.212C109.15 72.6124 111.959 65.3193 111.674 57.6762C111.099 42.2486 97.9414 30.0747 82.1111 30.0747Z" fill="#00227B"/>
<g opacity="0.35">
<g opacity="0.35">
<g opacity="0.35">
<g opacity="0.35">
<path opacity="0.35" d="M111.392 53.6992C111.63 54.993 111.776 56.3186 111.826 57.6705C112.416 73.5535 99.5883 86.8936 83.171 87.4678C66.7537 88.0386 52.9648 75.628 52.3713 59.7454C52.354 59.2888 52.348 58.8313 52.3536 58.3801C54.8795 72.3099 67.6981 82.6552 82.7193 82.1312C98.6646 81.5738 111.222 68.975 111.392 53.6992Z" fill="#00227B"/>
</g>
</g>
</g>
</g>
<path d="M82.0688 88.2911C78.3382 88.2911 74.6941 87.6438 71.2194 86.3629C67.5252 85.001 64.1776 82.9834 61.2704 80.3665C58.3632 77.7497 56.0422 74.6649 54.3716 71.1984C52.6418 67.6089 51.6896 63.7651 51.5409 59.7746C51.3923 55.7841 52.0557 51.884 53.5136 48.1832C54.9214 44.6092 57.0069 41.3706 59.7118 38.558C62.4167 35.7455 65.6043 33.4996 69.1879 31.8838C72.8982 30.2103 76.8712 29.2891 80.996 29.1453C85.1212 29.0014 89.1521 29.6433 92.9773 31.0537C96.6716 32.4157 100.019 34.4333 102.926 37.0501C105.834 39.667 108.155 42.7518 109.825 46.2183C111.555 49.8078 112.507 53.6515 112.656 57.642C112.804 61.6325 112.141 65.5327 110.683 69.2334C109.275 72.8074 107.19 76.0461 104.485 78.8586C101.78 81.6712 98.5915 83.9167 95.0084 85.5329C91.2981 87.2064 87.3251 88.1276 83.2003 88.2714C82.8226 88.2844 82.4448 88.2911 82.0688 88.2911ZM82.112 30.7347C81.7606 30.7347 81.41 30.741 81.056 30.7531C65.1228 31.3092 52.628 44.3023 53.2029 59.7169C53.4812 67.184 56.7489 74.0991 62.4033 79.189C67.7962 84.043 74.7451 86.6824 82.0727 86.6824C82.4279 86.6824 82.7841 86.6761 83.1411 86.6636C90.8594 86.3943 98.0072 83.233 103.268 77.7626C108.529 72.2923 111.273 65.1672 110.994 57.7001C110.432 42.6276 97.5771 30.7347 82.112 30.7347Z" fill="#00227B"/>
<path d="M111.758 58.4147C112.056 64.0385 110.445 69.3537 107.447 73.8335C105.199 77.1921 95.5529 83.3533 83.2768 84.0684C71.8941 84.7316 61.222 79.3707 58.6312 76.2521C55.1751 72.0918 53.0118 66.9639 52.714 61.3401C51.926 46.4574 64.8164 39.6326 81.1222 38.8247C97.4271 38.0168 110.971 43.5319 111.758 58.4147Z" fill="#0079C1"/>
<path d="M81.3027 84.6776C75.6426 84.6776 70.72 83.3127 67.4524 82.0934C63.3146 80.5495 59.6774 78.3922 58.1867 76.5975C54.5279 72.1934 52.4385 66.9267 52.1441 61.3673C51.9488 57.6782 52.5777 54.3309 54.0122 51.418C55.3629 48.6765 57.4346 46.3014 60.1706 44.3578C65.1689 40.8067 72.404 38.7021 81.0935 38.2719C89.7834 37.8416 97.2026 39.2198 102.55 42.2582C105.476 43.9212 107.788 46.0793 109.421 48.6732C111.156 51.4288 112.135 54.6968 112.33 58.3858C112.625 63.9452 111.102 69.3905 107.927 74.1333C106.609 76.1036 103.333 78.5189 99.3793 80.4358C95.9064 82.1197 90.2995 84.2126 83.3121 84.6195C82.6335 84.6588 81.9627 84.6776 81.3027 84.6776ZM84.1619 39.3001C83.1777 39.3001 82.1749 39.3252 81.1523 39.3758C72.6862 39.7952 65.6651 41.8262 60.847 45.2489C55.468 49.0704 52.9239 54.4747 53.2856 61.3108C53.5675 66.6365 55.5704 71.6833 59.0775 75.905C60.1209 77.1612 63.048 79.2654 67.8638 81.0622C71.4068 82.384 76.9506 83.8827 83.2438 83.5159C90.038 83.1199 95.4906 81.0848 98.868 79.4473C103.394 77.2527 106.061 74.8893 106.969 73.5324C110.012 68.9861 111.472 63.7679 111.19 58.4422C110.828 51.6061 107.727 46.4816 101.972 43.2116C97.4399 40.6366 91.326 39.3001 84.1619 39.3001Z" fill="#00227B"/>
<g opacity="0.5">
<g opacity="0.5">
<g opacity="0.5">
<g opacity="0.5">
<path d="M105.837 57.3368C106.208 54.5472 104.816 52.0748 102.726 51.8145C100.637 51.5543 98.6421 53.6047 98.2709 56.3943C97.8996 59.1839 99.2924 61.6563 101.382 61.9166C103.471 62.1768 105.466 60.1264 105.837 57.3368Z" fill="white"/>
</g>
</g>
</g>
</g>
<g opacity="0.5">
<g opacity="0.5">
<g opacity="0.5">
<g opacity="0.5">
<path d="M99.927 67.7061C100.279 66.4608 99.6684 65.2146 98.5638 64.9226C97.4593 64.6305 96.2787 65.4033 95.9269 66.6486C95.5752 67.8938 96.1855 69.1401 97.29 69.4321C98.3946 69.7241 99.5752 68.9513 99.927 67.7061Z" fill="white"/>
</g>
</g>
</g>
</g>
<g opacity="0.35">
<path d="M105.284 44.8135C109.069 47.9664 111.443 52.4353 111.76 58.4125C112.058 64.0376 110.446 69.3524 107.45 73.8321C105.201 77.1908 95.5543 83.3515 83.2782 84.0683C78.9438 84.3221 74.7136 83.7007 70.9912 82.6607C86.0617 81.469 97.8092 73.9116 100.597 69.7459C104.403 64.0601 106.447 57.3135 106.068 50.1772C105.969 48.2696 105.7 46.4836 105.284 44.8135Z" fill="#00227B"/>
</g>
<path d="M54.2664 49.3105C54.0987 49.3105 53.9301 49.2599 53.7857 49.1549C53.446 48.9074 53.3678 48.4487 53.599 48.1104C54.8334 46.1484 56.4098 44.3553 58.2839 42.7813C60.1088 41.2492 62.231 39.9115 64.5914 38.8055C66.9025 37.7229 69.457 36.8556 72.1835 36.2275C74.8854 35.6053 77.7696 35.2147 80.7572 35.0667C83.6955 34.9212 86.5745 35.0194 89.3144 35.3582C92.0794 35.7002 94.7082 36.2886 97.1274 37.1061C99.6027 37.9428 101.868 39.0233 103.859 40.3175C105.907 41.6481 107.678 43.2129 109.124 44.9687C109.376 45.2393 109.402 45.6537 109.166 45.9548C108.899 46.2951 108.397 46.3612 108.045 46.1028L107.961 46.0426L107.898 45.9648C102.543 39.4348 92.6802 36.026 80.8389 36.6126C68.9319 37.2027 59.4972 41.6937 54.9536 48.9341L54.9329 48.9672L54.9056 49.0019C54.7492 49.2039 54.5093 49.3105 54.2664 49.3105Z" fill="#00227B"/>
<g opacity="0.5">
<g opacity="0.5">
<g opacity="0.5">
<g opacity="0.5">
<path d="M59.818 69.8634C59.818 69.8634 54.2764 55.4176 62.1455 49.1615C70.0147 42.9054 81.7829 42.3464 81.5465 43.0898C81.5465 43.0898 68.6812 46.7864 64.1113 57.002C60.5873 64.8798 59.818 69.8634 59.818 69.8634Z" fill="white"/>
</g>
</g>
</g>
</g>
<path d="M109.059 140.115H56.303C54.5948 140.115 53.21 138.775 53.21 137.123C53.21 136.17 54.0079 135.398 54.992 135.398H110.37C111.354 135.398 112.152 136.17 112.152 137.123C112.152 138.775 110.767 140.115 109.059 140.115Z" fill="#E6E9FA"/>
<g opacity="0.3">
<g opacity="0.3">
<g opacity="0.3">
<g opacity="0.3">
<path opacity="0.3" d="M112.151 137.123C112.151 137.45 112.096 137.764 111.996 138.059C111.719 137.456 111.096 137.038 110.37 137.038H54.9925C54.501 137.038 54.055 137.23 53.7325 137.544C53.5791 137.692 53.4533 137.865 53.3651 138.059C53.2649 137.764 53.21 137.451 53.21 137.123C53.21 136.648 53.4084 136.216 53.733 135.904C54.0554 135.591 54.5015 135.398 54.9929 135.398H110.37C111.355 135.398 112.151 136.17 112.151 137.123Z" fill="white"/>
</g>
</g>
</g>
</g>
<g opacity="0.35">
<g opacity="0.35">
<g opacity="0.35">
<g opacity="0.35">
<path opacity="0.35" d="M112.152 137.122C112.152 137.948 111.806 138.697 111.245 139.237C110.687 139.779 109.912 140.114 109.059 140.114H56.3043C54.5961 140.114 53.21 138.775 53.21 137.122C53.21 136.804 53.2986 136.506 53.4555 136.249C53.9231 137.32 55.024 138.073 56.3038 138.073H109.059C109.912 138.073 110.687 137.738 111.245 137.196C111.524 136.926 111.75 136.605 111.905 136.249C112.063 136.506 112.152 136.804 112.152 137.122Z" fill="#00227B"/>
</g>
</g>
</g>
</g>
<path d="M109.058 140.875H56.3021C54.163 140.875 52.4229 139.191 52.4229 137.122C52.4229 135.752 53.5752 134.637 54.9912 134.637H110.369C111.785 134.637 112.937 135.752 112.937 137.122C112.937 139.191 111.197 140.875 109.058 140.875ZM54.9907 136.158C54.4418 136.158 53.9949 136.59 53.9949 137.122C53.9949 138.353 55.0296 139.354 56.3017 139.354H109.058C110.33 139.354 111.365 138.353 111.365 137.122C111.365 136.591 110.918 136.158 110.369 136.158H54.9907Z" fill="#00227B"/>
<path d="M115.233 101.708L110.073 135.396H55.2929L55.1061 134.177L50.1303 101.708C49.9674 100.641 50.8223 99.6846 51.9349 99.6846H113.428C114.543 99.6846 115.396 100.641 115.233 101.708Z" fill="#FF66AC"/>
<path d="M115.233 101.708L110.073 135.396H55.2929L55.1061 134.177L50.1303 101.708C49.9674 100.641 50.8223 99.6846 51.9349 99.6846H113.428C114.543 99.6846 115.396 100.641 115.233 101.708Z" fill="#E6E9FA"/>
<g opacity="0.5">
<g opacity="0.5">
<g opacity="0.5">
<g opacity="0.5">
<path opacity="0.5" d="M52.0739 103.802C51.911 102.735 52.7659 101.778 53.8785 101.778H115.221L115.232 101.711C115.394 100.644 114.542 99.6875 113.427 99.6875H51.9339C50.8213 99.6875 49.9664 100.644 50.1293 101.711L55.1047 134.18L55.2914 135.399H56.9162L52.0739 103.802Z" fill="white"/>
</g>
</g>
</g>
</g>
<g opacity="0.35">
<g opacity="0.35">
<g opacity="0.35">
<g opacity="0.35">
<path opacity="0.35" d="M111.698 99.6846H107.381C109.018 105.488 108.114 118.592 97.5517 125.441C84.2918 134.038 60.3948 133.983 55.3213 134.177L55.508 135.396H108.343L113.503 101.708C113.666 100.641 112.813 99.6846 111.698 99.6846Z" fill="#00227B"/>
</g>
</g>
</g>
</g>
<path d="M110.751 136.16H54.6152L49.3545 101.821C49.243 101.094 49.4639 100.358 49.9601 99.8014C50.4563 99.2448 51.1768 98.9258 51.9362 98.9258H113.43C114.19 98.9258 114.91 99.2448 115.406 99.8014C115.902 100.358 116.123 101.094 116.012 101.821L110.751 136.16ZM55.9719 134.638H109.394L114.456 101.598C114.501 101.305 114.416 101.02 114.215 100.795C114.015 100.57 113.737 100.447 113.43 100.447H51.9362C51.6298 100.447 51.351 100.571 51.1508 100.795C50.9507 101.02 50.8651 101.305 50.9101 101.598L55.9719 134.638Z" fill="#00227B"/>
<g opacity="0.3">
<g opacity="0.3">
<g opacity="0.3">
<g opacity="0.3">
<path opacity="0.3" d="M59.65 127.528C57.5719 123.096 56.0586 115.531 56.3997 111.079C56.7407 106.627 59.4097 107.989 60.237 113.692C62.4383 128.87 60.5776 129.507 59.65 127.528Z" fill="white"/>
</g>
</g>
</g>
</g>
<path d="M89.8393 113.719C89.9063 113.15 89.9841 112.575 89.8687 111.997C89.8173 111.934 89.7702 111.87 89.7188 111.807C89.5485 111.748 89.3829 111.67 89.2057 111.627C87.9592 111.316 86.6953 111.193 85.4116 111.3C83.7376 111.439 82.201 111.939 80.8797 112.968C80.4012 113.34 79.9651 113.759 79.5186 114.166C79.3989 114.276 79.3068 114.322 79.1387 114.248C78.7432 114.074 78.317 113.996 77.8843 113.975C76.7238 113.924 75.6882 114.287 74.7222 114.874C73.6753 115.512 72.8316 116.365 72.0458 117.278C71.7113 117.664 71.8414 118.096 72.3393 118.258C72.6535 118.357 72.9677 118.455 73.282 118.554C74.0349 118.79 74.7861 119.024 75.5369 119.259C75.5352 119.282 75.5373 119.294 75.5339 119.305C75.5278 119.319 75.5213 119.335 75.511 119.349C75.1976 119.739 75.2737 120.099 75.6039 120.438C75.6393 120.476 75.67 120.52 75.7012 120.561C75.874 120.781 76.0508 121.003 76.2341 121.233C75.9838 121.419 75.7379 121.578 75.5205 121.77C75.4107 121.867 75.3139 122.007 75.2724 122.147C75.2019 122.371 75.3221 122.601 75.5287 122.719C75.7478 122.846 75.9735 122.841 76.1775 122.699C76.4364 122.521 76.6836 122.327 76.9468 122.133C77.1954 122.45 77.4309 122.75 77.6674 123.046C77.9384 123.383 78.1251 123.441 78.5452 123.328C78.6217 123.305 78.6974 123.289 78.7877 123.268C78.7937 123.355 78.8007 123.425 78.8046 123.49C78.8581 124.541 78.9074 125.593 78.9671 126.64C78.9943 127.137 79.3997 127.372 79.8635 127.159C80.2823 126.968 80.7007 126.765 81.1114 126.55C82.0575 126.052 82.9185 125.442 83.6053 124.631C84.465 123.611 84.9409 122.472 84.7183 121.125C84.7088 121.072 84.7546 120.981 84.8022 120.954C85.224 120.691 85.6571 120.445 86.0794 120.18C87.0338 119.578 87.801 118.796 88.4009 117.862C89.2161 116.592 89.666 115.199 89.8393 113.719ZM76.158 118.264C75.2888 117.991 74.3876 117.706 73.4618 117.415C74.4183 116.431 75.4306 115.572 76.7938 115.21C77.383 115.053 78.0637 115.066 78.4657 115.224C77.7024 116.232 76.9373 117.24 76.158 118.264ZM83.4692 122.587C83.2483 123.269 82.8264 123.824 82.3069 124.319C81.6612 124.928 80.9095 125.382 80.0969 125.796C80.0481 124.83 79.9979 123.885 79.9487 122.96C81.1775 122.497 82.3791 122.046 83.5867 121.592C83.6334 121.914 83.5764 122.255 83.4692 122.587ZM88.0067 116.12C87.6112 117.023 87.0925 117.845 86.3526 118.525C85.7816 119.048 85.1341 119.467 84.4521 119.839C82.603 120.849 80.6212 121.545 78.5949 122.134C78.4959 122.162 78.4354 122.157 78.3702 122.069C78.2288 121.874 78.0702 121.687 77.9206 121.495C77.9107 121.484 77.9072 121.466 77.893 121.432C77.9449 121.392 78.0002 121.352 78.0559 121.311C79.2121 120.452 80.374 119.596 81.5306 118.735C81.8647 118.49 81.8794 118.068 81.57 117.825C81.3538 117.654 81.069 117.656 80.8196 117.838C80.1237 118.351 79.4296 118.865 78.7354 119.38C78.2176 119.763 77.7041 120.145 77.1664 120.543C76.9818 120.31 76.8038 120.097 76.643 119.873C76.6157 119.833 76.6434 119.732 76.6806 119.682C77.2969 118.792 77.9081 117.898 78.5495 117.023C79.184 116.155 79.9054 115.353 80.699 114.617C81.4429 113.922 82.2494 113.308 83.2241 112.942C83.8491 112.707 84.494 112.547 85.16 112.478C85.2206 112.469 85.3083 112.528 85.3511 112.582C86.0284 113.429 86.6975 114.277 87.3687 115.127C87.5701 115.38 87.769 115.638 87.9764 115.888C88.0387 115.964 88.0465 116.028 88.0067 116.12ZM88.4082 114.935C87.7391 114.087 87.0856 113.262 86.4312 112.433C86.4321 112.414 86.4377 112.392 86.4407 112.371C87.2028 112.46 87.9665 112.55 88.738 112.639C88.7238 113.443 88.601 114.18 88.4082 114.935Z" fill="#00227B"/>
<path d="M87.9772 115.89C87.7693 115.64 87.5709 115.382 87.3695 115.129C86.6987 114.279 86.0292 113.43 85.3519 112.583C85.3091 112.529 85.2214 112.47 85.1608 112.479C84.4948 112.548 83.8499 112.708 83.2249 112.943C82.2498 113.309 81.4437 113.923 80.6998 114.619C79.9062 115.355 79.1848 116.157 78.5503 117.025C77.9089 117.899 77.2977 118.794 76.6814 119.683C76.6442 119.733 76.6165 119.834 76.6438 119.874C76.8041 120.099 76.9822 120.311 77.1672 120.545C77.7049 120.146 78.2184 119.764 78.7362 119.381C79.4304 118.866 80.1245 118.352 80.8204 117.839C81.0698 117.657 81.3542 117.655 81.5707 117.826C81.8802 118.07 81.866 118.492 81.5314 118.737C80.3748 119.597 79.2129 120.453 78.0567 121.312C78.001 121.353 77.9452 121.393 77.8938 121.433C77.908 121.468 77.9115 121.486 77.9214 121.496C78.071 121.688 78.2296 121.876 78.371 122.07C78.4362 122.158 78.4967 122.163 78.5957 122.135C80.622 121.547 82.6038 120.85 84.4528 119.841C85.1345 119.468 85.7824 119.049 86.3534 118.527C87.0929 117.846 87.612 117.024 88.0075 116.121C88.0464 116.03 88.0386 115.965 87.9772 115.89ZM85.9479 117.184C85.064 117.829 83.8131 117.671 83.1492 116.828C82.481 115.986 82.6496 114.776 83.5253 114.123C84.385 113.482 85.6363 113.648 86.3067 114.491C86.9693 115.328 86.8076 116.555 85.9479 117.184Z" fill="white"/>
<path d="M88.4077 114.934C87.7382 114.088 87.0846 113.262 86.4307 112.433C86.4328 112.413 86.4371 112.393 86.4402 112.372C87.2022 112.461 87.9664 112.551 88.7388 112.64C88.7241 113.443 88.6 114.18 88.4077 114.934Z" fill="#DB2C2C"/>
<path d="M78.4638 115.226C77.6996 116.232 76.9345 117.241 76.1561 118.266C75.2856 117.991 74.3844 117.707 73.459 117.416C74.4164 116.431 75.4282 115.572 76.7915 115.211C77.3806 115.053 78.0605 115.067 78.4638 115.226Z" fill="#DB2C2C"/>
<path d="M82.3037 124.32C81.6584 124.929 80.9076 125.384 80.0941 125.797C80.0448 124.832 79.9951 123.887 79.9463 122.961C81.1751 122.498 82.3763 122.048 83.5857 121.592C83.6319 121.915 83.5736 122.255 83.4677 122.589C83.2468 123.271 82.825 123.826 82.3037 124.32Z" fill="#DB2C2C"/>
<path d="M86.3085 114.49C85.6385 113.648 84.3868 113.482 83.5271 114.123C82.6514 114.776 82.4828 115.985 83.1511 116.827C83.815 117.671 85.0658 117.828 85.9497 117.184C86.8099 116.555 86.9715 115.328 86.3085 114.49ZM85.3541 116.473C84.9063 116.801 84.2485 116.714 83.8997 116.282C83.5388 115.835 83.6373 115.18 84.1149 114.837C84.5623 114.512 85.2327 114.606 85.5694 115.041C85.9212 115.494 85.8244 116.129 85.3541 116.473Z" fill="#00227B"/>
<path d="M85.348 116.472C84.9002 116.8 84.2423 116.713 83.8926 116.28C83.5335 115.834 83.6307 115.179 84.1083 114.836C84.5566 114.512 85.2261 114.605 85.5628 115.039C85.9146 115.492 85.8191 116.128 85.348 116.472Z" fill="#22A7F0"/>
<path d="M114.959 103.488C114.959 103.488 110.713 101.538 106.726 103.287C102.909 104.961 100.208 116.881 105.154 119.901C108.207 121.764 110.285 120.118 112.012 120.602C114.574 121.318 119.83 109.045 114.959 103.488Z" fill="white"/>
<g opacity="0.35">
<path d="M116.874 111.244C116.371 116.24 113.644 121.058 112.013 120.601C110.284 120.118 108.207 121.765 105.154 119.901C102.791 118.457 102.174 114.985 102.59 111.565C102.871 113.56 103.667 115.27 105.154 116.177C108.207 118.039 110.24 117.174 112.013 116.877C114.204 116.51 115.991 114.194 116.874 111.244Z" fill="#00227B"/>
</g>
<path d="M108.284 121.574C107.254 121.574 106.062 121.356 104.734 120.545C103.545 119.819 102.686 118.645 102.182 117.054C101.758 115.719 101.6 114.092 101.723 112.35C101.87 110.286 102.395 108.169 103.2 106.389C103.815 105.028 104.871 103.266 106.401 102.595C110.671 100.722 115.108 102.715 115.295 102.801L115.448 102.871L115.557 102.996C117.787 105.539 117.916 109.053 117.631 111.553C117.31 114.369 116.283 117.356 114.949 119.349C113.614 121.345 112.495 121.53 111.793 121.333C111.337 121.206 110.76 121.295 110.093 121.398C109.566 121.48 108.96 121.574 108.284 121.574ZM110.36 103.318C109.165 103.318 108.057 103.539 107.051 103.981C106.223 104.344 105.345 105.444 104.641 106.999C103.917 108.6 103.426 110.588 103.293 112.455C103.059 115.751 103.89 118.231 105.573 119.259C107.271 120.295 108.58 120.092 109.845 119.896C110.664 119.769 111.436 119.65 112.23 119.872C112.322 119.887 112.976 119.643 113.899 118.096C116.051 114.49 117.416 107.678 114.472 104.113C114.138 103.978 113.279 103.663 112.155 103.474C111.538 103.37 110.939 103.318 110.36 103.318Z" fill="#00227B"/>
<path d="M126.828 60.0948C125.314 58.5806 124.281 56.5931 124.005 54.3396C123.336 48.8697 127.376 43.9103 133.03 43.2626C138.684 42.6148 143.81 46.5238 144.48 51.9937C145.149 57.4637 141.109 62.4231 135.455 63.0708C133.882 63.251 132.351 63.0775 130.945 62.6171L126.523 64.6351L126.828 60.0948Z" fill="#FF0068"/>
<g opacity="0.5">
<path opacity="0.5" d="M133.267 45.1689C127.985 45.774 124.113 50.1417 124.171 55.173C124.09 54.8301 124.026 54.4805 123.982 54.1238C123.312 48.6538 127.353 43.6945 133.007 43.0467C138.661 42.399 143.787 46.308 144.456 51.7779C144.5 52.1367 144.523 52.4926 144.527 52.8459C143.371 47.938 138.55 44.5638 133.267 45.1689Z" fill="white"/>
</g>
<path d="M126.527 65.3678C126.377 65.3678 126.229 65.3251 126.101 65.2411C125.88 65.0952 125.755 64.8472 125.772 64.5883L126.057 60.3645C124.498 58.709 123.532 56.663 123.258 54.4262C122.911 51.5865 123.727 48.7861 125.556 46.5401C127.386 44.2946 130.01 42.8724 132.945 42.5362C135.88 42.2 138.775 42.9895 141.096 44.7596C143.417 46.5297 144.887 49.0683 145.235 51.9081C145.582 54.7478 144.766 57.5482 142.937 59.7937C141.107 62.0392 138.483 63.4614 135.548 63.7976C134.002 63.9745 132.474 63.8415 131.001 63.4024L126.849 65.2971C126.747 65.3448 126.637 65.3678 126.527 65.3678ZM134.253 43.9254C133.88 43.9254 133.503 43.9467 133.123 43.9902C130.589 44.2804 128.324 45.5081 126.744 47.4467C125.165 49.3853 124.46 51.8031 124.76 54.2544C125.008 56.2791 125.913 58.1232 127.376 59.5867C127.525 59.7352 127.602 59.9371 127.587 60.1433L127.365 63.4447L130.625 61.9564C130.803 61.8757 131.005 61.8644 131.191 61.9251C132.54 62.3671 133.946 62.5084 135.37 62.3453C140.601 61.7461 144.352 57.1413 143.733 52.0812C143.158 47.3877 139.023 43.9254 134.253 43.9254Z" fill="#00227B"/>
<g opacity="0.3">
<path opacity="0.3" d="M126.752 60.0155C130.029 61.6735 134.054 61.8391 137.613 60.115C141.561 58.2032 143.929 54.4565 144.172 50.4785C144.313 50.9686 144.418 51.4746 144.481 51.9956C145.151 57.4656 141.11 62.4249 135.456 63.0727C133.884 63.2529 132.353 63.0794 130.946 62.619L126.524 64.637L126.83 60.0966C126.804 60.0699 126.779 60.0423 126.752 60.0155Z" fill="#00227B"/>
</g>
<path d="M130.984 50.3681C131.877 49.505 133.323 49.6597 134.215 50.5228L134.354 50.657L134.493 50.5228C135.385 49.6597 136.832 49.505 137.724 50.3681C138.616 51.2312 138.616 52.6308 137.724 53.4938L137.585 53.6281L134.78 56.3415C134.545 56.569 134.164 56.569 133.928 56.3415L131.124 53.6281L130.985 53.4938C130.092 52.6303 130.092 51.2312 130.984 50.3681Z" fill="white"/>
<path d="M51.416 177.006L48.8047 187H47.0137L45.3457 181.012C45.3047 180.866 45.2591 180.693 45.209 180.492C45.1589 180.292 45.1087 180.087 45.0586 179.877C45.013 179.667 44.972 179.476 44.9355 179.303C44.9036 179.125 44.8809 178.988 44.8672 178.893C44.8581 178.988 44.8376 179.123 44.8057 179.296C44.7738 179.469 44.735 179.66 44.6895 179.87C44.6484 180.075 44.6029 180.28 44.5527 180.485C44.5026 180.686 44.457 180.864 44.416 181.019L42.7754 187H40.9912L38.3867 177.006H40.0342L41.4766 182.864C41.5221 183.051 41.5677 183.254 41.6133 183.473C41.6634 183.687 41.709 183.903 41.75 184.122C41.7956 184.341 41.8366 184.555 41.873 184.765C41.9095 184.97 41.9391 185.157 41.9619 185.325C41.9847 185.152 42.0143 184.961 42.0508 184.751C42.0872 184.537 42.126 184.32 42.167 184.102C42.2126 183.878 42.2581 183.664 42.3037 183.459C42.3538 183.254 42.404 183.069 42.4541 182.905L44.0811 177.006H45.6807L47.3418 182.926C47.3919 183.094 47.4398 183.284 47.4854 183.493C47.5355 183.703 47.5833 183.917 47.6289 184.136C47.6745 184.354 47.7155 184.566 47.752 184.771C47.7884 184.977 47.818 185.161 47.8408 185.325C47.8727 185.102 47.9137 184.847 47.9639 184.56C48.014 184.272 48.071 183.981 48.1348 183.685C48.1986 183.388 48.2624 183.115 48.3262 182.864L49.7617 177.006H51.416ZM55.6816 179.289C56.3561 179.289 56.9349 179.428 57.418 179.706C57.901 179.984 58.2725 180.378 58.5322 180.889C58.792 181.399 58.9219 182.01 58.9219 182.721V183.582H53.8701C53.8883 184.316 54.0843 184.881 54.458 185.277C54.8363 185.674 55.3649 185.872 56.0439 185.872C56.527 185.872 56.96 185.826 57.3428 185.735C57.7301 185.64 58.1289 185.501 58.5391 185.318V186.624C58.1608 186.802 57.7757 186.932 57.3838 187.014C56.9919 187.096 56.5225 187.137 55.9756 187.137C55.2327 187.137 54.5788 186.993 54.0137 186.706C53.4531 186.414 53.0133 185.981 52.6943 185.407C52.3799 184.833 52.2227 184.12 52.2227 183.268C52.2227 182.42 52.3662 181.7 52.6533 181.107C52.9404 180.515 53.3438 180.064 53.8633 179.754C54.3828 179.444 54.9889 179.289 55.6816 179.289ZM55.6816 180.499C55.1758 180.499 54.7656 180.663 54.4512 180.991C54.1413 181.319 53.959 181.8 53.9043 182.434H57.3496C57.3451 182.055 57.2812 181.72 57.1582 181.429C57.0397 181.137 56.8574 180.909 56.6113 180.745C56.3698 180.581 56.0599 180.499 55.6816 180.499ZM62.3467 187H60.7334V176.363H62.3467V187ZM67.6924 187.137C66.9769 187.137 66.3571 186.998 65.833 186.72C65.3089 186.442 64.9056 186.016 64.623 185.441C64.3405 184.867 64.1992 184.138 64.1992 183.254C64.1992 182.333 64.3542 181.581 64.6641 180.998C64.974 180.415 65.4023 179.984 65.9492 179.706C66.5007 179.428 67.1318 179.289 67.8428 179.289C68.2939 179.289 68.7018 179.335 69.0664 179.426C69.4355 179.512 69.7477 179.619 70.0029 179.747L69.5244 181.032C69.2464 180.918 68.9616 180.823 68.6699 180.745C68.3783 180.668 68.098 180.629 67.8291 180.629C67.387 180.629 67.0179 180.727 66.7217 180.923C66.43 181.119 66.2113 181.41 66.0654 181.798C65.9242 182.185 65.8535 182.666 65.8535 183.24C65.8535 183.796 65.9264 184.266 66.0723 184.648C66.2181 185.027 66.4346 185.314 66.7217 185.51C67.0088 185.701 67.362 185.797 67.7812 185.797C68.196 185.797 68.5674 185.747 68.8955 185.646C69.2236 185.546 69.5335 185.416 69.8252 185.257V186.651C69.5381 186.815 69.2305 186.936 68.9023 187.014C68.5742 187.096 68.1709 187.137 67.6924 187.137ZM78.3018 183.199C78.3018 183.828 78.2197 184.386 78.0557 184.874C77.8916 185.362 77.6523 185.774 77.3379 186.111C77.0234 186.444 76.6452 186.699 76.2031 186.877C75.7611 187.05 75.262 187.137 74.7061 187.137C74.1865 187.137 73.7103 187.05 73.2773 186.877C72.8444 186.699 72.4684 186.444 72.1494 186.111C71.835 185.774 71.5911 185.362 71.418 184.874C71.2448 184.386 71.1582 183.828 71.1582 183.199C71.1582 182.365 71.3018 181.659 71.5889 181.08C71.8805 180.497 72.2952 180.052 72.833 179.747C73.3708 179.442 74.0111 179.289 74.7539 179.289C75.4512 179.289 76.0664 179.442 76.5996 179.747C77.1328 180.052 77.5498 180.497 77.8506 181.08C78.1514 181.663 78.3018 182.37 78.3018 183.199ZM72.8125 183.199C72.8125 183.751 72.8786 184.222 73.0107 184.614C73.1475 185.006 73.3571 185.307 73.6396 185.517C73.9222 185.722 74.2868 185.824 74.7334 185.824C75.18 185.824 75.5446 185.722 75.8271 185.517C76.1097 185.307 76.3171 185.006 76.4492 184.614C76.5814 184.222 76.6475 183.751 76.6475 183.199C76.6475 182.648 76.5814 182.181 76.4492 181.798C76.3171 181.41 76.1097 181.117 75.8271 180.916C75.5446 180.711 75.1777 180.608 74.7266 180.608C74.0612 180.608 73.5758 180.832 73.2705 181.278C72.9652 181.725 72.8125 182.365 72.8125 183.199ZM88.6992 179.289C89.5469 179.289 90.1849 179.508 90.6133 179.945C91.0462 180.383 91.2627 181.085 91.2627 182.051V187H89.6562V182.338C89.6562 181.764 89.5446 181.331 89.3213 181.039C89.098 180.747 88.7585 180.602 88.3027 180.602C87.6647 180.602 87.2044 180.807 86.9219 181.217C86.6439 181.622 86.5049 182.213 86.5049 182.987V187H84.8984V182.338C84.8984 181.955 84.8483 181.636 84.748 181.381C84.6523 181.121 84.5042 180.927 84.3037 180.8C84.1032 180.668 83.8503 180.602 83.5449 180.602C83.1029 180.602 82.7497 180.702 82.4854 180.902C82.2256 181.103 82.0387 181.399 81.9248 181.791C81.8109 182.178 81.7539 182.655 81.7539 183.22V187H80.1475V179.433H81.3984L81.624 180.451H81.7129C81.8678 180.187 82.0592 179.97 82.2871 179.802C82.5195 179.629 82.777 179.501 83.0596 179.419C83.3421 179.332 83.6361 179.289 83.9414 179.289C84.5065 179.289 84.9827 179.389 85.3701 179.59C85.7575 179.786 86.0469 180.087 86.2383 180.492H86.3613C86.5983 180.082 86.9287 179.779 87.3525 179.583C87.7764 179.387 88.2253 179.289 88.6992 179.289ZM96.5195 179.289C97.194 179.289 97.7728 179.428 98.2559 179.706C98.7389 179.984 99.1104 180.378 99.3701 180.889C99.6299 181.399 99.7598 182.01 99.7598 182.721V183.582H94.708C94.7262 184.316 94.9222 184.881 95.2959 185.277C95.6742 185.674 96.2028 185.872 96.8818 185.872C97.3649 185.872 97.7979 185.826 98.1807 185.735C98.568 185.64 98.9668 185.501 99.377 185.318V186.624C98.9987 186.802 98.6136 186.932 98.2217 187.014C97.8298 187.096 97.3604 187.137 96.8135 187.137C96.0706 187.137 95.4167 186.993 94.8516 186.706C94.291 186.414 93.8512 185.981 93.5322 185.407C93.2178 184.833 93.0605 184.12 93.0605 183.268C93.0605 182.42 93.2041 181.7 93.4912 181.107C93.7783 180.515 94.1816 180.064 94.7012 179.754C95.2207 179.444 95.8268 179.289 96.5195 179.289ZM96.5195 180.499C96.0137 180.499 95.6035 180.663 95.2891 180.991C94.9792 181.319 94.7969 181.8 94.7422 182.434H98.1875C98.1829 182.055 98.1191 181.72 97.9961 181.429C97.8776 181.137 97.6953 180.909 97.4492 180.745C97.2077 180.581 96.8978 180.499 96.5195 180.499ZM111.565 187L110.588 184.225H106.767L105.789 187H104.06L107.778 176.965H109.597L113.309 187H111.565ZM110.164 182.816L109.214 180.082C109.177 179.964 109.125 179.797 109.057 179.583C108.988 179.364 108.92 179.143 108.852 178.92C108.783 178.692 108.726 178.501 108.681 178.346C108.635 178.533 108.578 178.742 108.51 178.975C108.446 179.202 108.382 179.417 108.318 179.617C108.259 179.818 108.214 179.973 108.182 180.082L107.225 182.816H110.164ZM123.016 179.289C123.863 179.289 124.501 179.508 124.93 179.945C125.363 180.383 125.579 181.085 125.579 182.051V187H123.973V182.338C123.973 181.764 123.861 181.331 123.638 181.039C123.414 180.747 123.075 180.602 122.619 180.602C121.981 180.602 121.521 180.807 121.238 181.217C120.96 181.622 120.821 182.213 120.821 182.987V187H119.215V182.338C119.215 181.955 119.165 181.636 119.064 181.381C118.969 181.121 118.821 180.927 118.62 180.8C118.42 180.668 118.167 180.602 117.861 180.602C117.419 180.602 117.066 180.702 116.802 180.902C116.542 181.103 116.355 181.399 116.241 181.791C116.127 182.178 116.07 182.655 116.07 183.22V187H114.464V179.433H115.715L115.94 180.451H116.029C116.184 180.187 116.376 179.97 116.604 179.802C116.836 179.629 117.093 179.501 117.376 179.419C117.659 179.332 117.952 179.289 118.258 179.289C118.823 179.289 119.299 179.389 119.687 179.59C120.074 179.786 120.363 180.087 120.555 180.492H120.678C120.915 180.082 121.245 179.779 121.669 179.583C122.093 179.387 122.542 179.289 123.016 179.289ZM131.656 179.289C131.784 179.289 131.923 179.296 132.073 179.31C132.224 179.323 132.354 179.341 132.463 179.364L132.312 180.868C132.217 180.841 132.098 180.82 131.957 180.807C131.82 180.793 131.697 180.786 131.588 180.786C131.301 180.786 131.027 180.834 130.768 180.93C130.508 181.021 130.278 181.162 130.077 181.354C129.877 181.54 129.719 181.775 129.605 182.058C129.492 182.34 129.435 182.668 129.435 183.042V187H127.821V179.433H129.079L129.298 180.766H129.373C129.523 180.497 129.71 180.251 129.934 180.027C130.157 179.804 130.412 179.626 130.699 179.494C130.991 179.357 131.31 179.289 131.656 179.289ZM18.4512 207.713C18.4512 207.057 18.5137 206.416 18.6387 205.791C18.7676 205.166 18.9629 204.57 19.2246 204.004C19.4863 203.438 19.8164 202.914 20.2148 202.434H21.416C20.8574 203.18 20.4355 204.006 20.1504 204.912C19.8691 205.818 19.7285 206.748 19.7285 207.701C19.7285 208.322 19.791 208.938 19.916 209.547C20.041 210.156 20.2285 210.742 20.4785 211.305C20.7285 211.871 21.0371 212.402 21.4043 212.898H20.2148C19.8164 212.43 19.4863 211.918 19.2246 211.363C18.9629 210.809 18.7676 210.223 18.6387 209.605C18.5137 208.988 18.4512 208.357 18.4512 207.713ZM25.377 211.117C24.7637 211.117 24.2324 210.998 23.7832 210.76C23.334 210.521 22.9883 210.156 22.7461 209.664C22.5039 209.172 22.3828 208.547 22.3828 207.789C22.3828 207 22.5156 206.355 22.7812 205.855C23.0469 205.355 23.4141 204.986 23.8828 204.748C24.3555 204.51 24.8965 204.391 25.5059 204.391C25.8926 204.391 26.2422 204.43 26.5547 204.508C26.8711 204.582 27.1387 204.674 27.3574 204.783L26.9473 205.885C26.709 205.787 26.4648 205.705 26.2148 205.639C25.9648 205.572 25.7246 205.539 25.4941 205.539C25.1152 205.539 24.7988 205.623 24.5449 205.791C24.2949 205.959 24.1074 206.209 23.9824 206.541C23.8613 206.873 23.8008 207.285 23.8008 207.777C23.8008 208.254 23.8633 208.656 23.9883 208.984C24.1133 209.309 24.2988 209.555 24.5449 209.723C24.791 209.887 25.0938 209.969 25.4531 209.969C25.8086 209.969 26.127 209.926 26.4082 209.84C26.6895 209.754 26.9551 209.643 27.2051 209.506V210.701C26.959 210.842 26.6953 210.945 26.4141 211.012C26.1328 211.082 25.7871 211.117 25.377 211.117ZM30.1055 201.883V204.174C30.1055 204.412 30.0977 204.645 30.082 204.871C30.0703 205.098 30.0566 205.273 30.041 205.398H30.1172C30.2539 205.172 30.4219 204.986 30.6211 204.842C30.8203 204.693 31.043 204.582 31.2891 204.508C31.5391 204.434 31.8047 204.396 32.0859 204.396C32.582 204.396 33.0039 204.48 33.3516 204.648C33.6992 204.812 33.9648 205.068 34.1484 205.416C34.3359 205.764 34.4297 206.215 34.4297 206.77V211H33.0527V207.027C33.0527 206.523 32.9492 206.146 32.7422 205.896C32.5352 205.643 32.2148 205.516 31.7812 205.516C31.3633 205.516 31.0312 205.604 30.7852 205.779C30.543 205.951 30.3691 206.207 30.2637 206.547C30.1582 206.883 30.1055 207.293 30.1055 207.777V211H28.7285V201.883H30.1055ZM42.0996 207.742C42.0996 208.281 42.0293 208.76 41.8887 209.178C41.748 209.596 41.543 209.949 41.2734 210.238C41.0039 210.523 40.6797 210.742 40.3008 210.895C39.9219 211.043 39.4941 211.117 39.0176 211.117C38.5723 211.117 38.1641 211.043 37.793 210.895C37.4219 210.742 37.0996 210.523 36.8262 210.238C36.5566 209.949 36.3477 209.596 36.1992 209.178C36.0508 208.76 35.9766 208.281 35.9766 207.742C35.9766 207.027 36.0996 206.422 36.3457 205.926C36.5957 205.426 36.9512 205.045 37.4121 204.783C37.873 204.521 38.4219 204.391 39.0586 204.391C39.6562 204.391 40.1836 204.521 40.6406 204.783C41.0977 205.045 41.4551 205.426 41.7129 205.926C41.9707 206.426 42.0996 207.031 42.0996 207.742ZM37.3945 207.742C37.3945 208.215 37.4512 208.619 37.5645 208.955C37.6816 209.291 37.8613 209.549 38.1035 209.729C38.3457 209.904 38.6582 209.992 39.041 209.992C39.4238 209.992 39.7363 209.904 39.9785 209.729C40.2207 209.549 40.3984 209.291 40.5117 208.955C40.625 208.619 40.6816 208.215 40.6816 207.742C40.6816 207.27 40.625 206.869 40.5117 206.541C40.3984 206.209 40.2207 205.957 39.9785 205.785C39.7363 205.609 39.4219 205.521 39.0352 205.521C38.4648 205.521 38.0488 205.713 37.7871 206.096C37.5254 206.479 37.3945 207.027 37.3945 207.742ZM49.4238 207.742C49.4238 208.281 49.3535 208.76 49.2129 209.178C49.0723 209.596 48.8672 209.949 48.5977 210.238C48.3281 210.523 48.0039 210.742 47.625 210.895C47.2461 211.043 46.8184 211.117 46.3418 211.117C45.8965 211.117 45.4883 211.043 45.1172 210.895C44.7461 210.742 44.4238 210.523 44.1504 210.238C43.8809 209.949 43.6719 209.596 43.5234 209.178C43.375 208.76 43.3008 208.281 43.3008 207.742C43.3008 207.027 43.4238 206.422 43.6699 205.926C43.9199 205.426 44.2754 205.045 44.7363 204.783C45.1973 204.521 45.7461 204.391 46.3828 204.391C46.9805 204.391 47.5078 204.521 47.9648 204.783C48.4219 205.045 48.7793 205.426 49.0371 205.926C49.2949 206.426 49.4238 207.031 49.4238 207.742ZM44.7188 207.742C44.7188 208.215 44.7754 208.619 44.8887 208.955C45.0059 209.291 45.1855 209.549 45.4277 209.729C45.6699 209.904 45.9824 209.992 46.3652 209.992C46.748 209.992 47.0605 209.904 47.3027 209.729C47.5449 209.549 47.7227 209.291 47.8359 208.955C47.9492 208.619 48.0059 208.215 48.0059 207.742C48.0059 207.27 47.9492 206.869 47.8359 206.541C47.7227 206.209 47.5449 205.957 47.3027 205.785C47.0605 205.609 46.7461 205.521 46.3594 205.521C45.7891 205.521 45.373 205.713 45.1113 206.096C44.8496 206.479 44.7188 207.027 44.7188 207.742ZM55.3652 209.148C55.3652 209.574 55.2617 209.934 55.0547 210.227C54.8477 210.52 54.5449 210.742 54.1465 210.895C53.752 211.043 53.2676 211.117 52.6934 211.117C52.2402 211.117 51.8496 211.084 51.5215 211.018C51.1973 210.955 50.8906 210.857 50.6016 210.725V209.535C50.9102 209.68 51.2559 209.805 51.6387 209.91C52.0254 210.016 52.3906 210.068 52.7344 210.068C53.1875 210.068 53.5137 209.998 53.7129 209.857C53.9121 209.713 54.0117 209.521 54.0117 209.283C54.0117 209.143 53.9707 209.018 53.8887 208.908C53.8105 208.795 53.6621 208.68 53.4434 208.562C53.2285 208.441 52.9121 208.297 52.4941 208.129C52.084 207.965 51.7383 207.801 51.457 207.637C51.1758 207.473 50.9629 207.275 50.8184 207.045C50.6738 206.811 50.6016 206.512 50.6016 206.148C50.6016 205.574 50.8281 205.139 51.2812 204.842C51.7383 204.541 52.3418 204.391 53.0918 204.391C53.4902 204.391 53.8652 204.432 54.2168 204.514C54.5723 204.592 54.9199 204.707 55.2598 204.859L54.8262 205.896C54.5332 205.768 54.2383 205.662 53.9414 205.58C53.6484 205.494 53.3496 205.451 53.0449 205.451C52.6895 205.451 52.418 205.506 52.2305 205.615C52.0469 205.725 51.9551 205.881 51.9551 206.084C51.9551 206.236 52 206.365 52.0898 206.471C52.1797 206.576 52.334 206.682 52.5527 206.787C52.7754 206.893 53.084 207.023 53.4785 207.18C53.8652 207.328 54.1992 207.484 54.4805 207.648C54.7656 207.809 54.9844 208.006 55.1367 208.24C55.2891 208.475 55.3652 208.777 55.3652 209.148ZM59.4375 204.391C60.0156 204.391 60.5117 204.51 60.9258 204.748C61.3398 204.986 61.6582 205.324 61.8809 205.762C62.1035 206.199 62.2148 206.723 62.2148 207.332V208.07H57.8848C57.9004 208.699 58.0684 209.184 58.3887 209.523C58.7129 209.863 59.166 210.033 59.748 210.033C60.1621 210.033 60.5332 209.994 60.8613 209.916C61.1934 209.834 61.5352 209.715 61.8867 209.559V210.678C61.5625 210.83 61.2324 210.941 60.8965 211.012C60.5605 211.082 60.1582 211.117 59.6895 211.117C59.0527 211.117 58.4922 210.994 58.0078 210.748C57.5273 210.498 57.1504 210.127 56.877 209.635C56.6074 209.143 56.4727 208.531 56.4727 207.801C56.4727 207.074 56.5957 206.457 56.8418 205.949C57.0879 205.441 57.4336 205.055 57.8789 204.789C58.3242 204.523 58.8438 204.391 59.4375 204.391ZM59.4375 205.428C59.0039 205.428 58.6523 205.568 58.3828 205.85C58.1172 206.131 57.9609 206.543 57.9141 207.086H60.8672C60.8633 206.762 60.8086 206.475 60.7031 206.225C60.6016 205.975 60.4453 205.779 60.2344 205.639C60.0273 205.498 59.7617 205.428 59.4375 205.428ZM69.4277 204.391C70.248 204.391 70.8672 204.572 71.2852 204.936C71.707 205.299 71.918 205.865 71.918 206.635V211H70.9395L70.6758 210.08H70.6289C70.4453 210.314 70.2559 210.508 70.0605 210.66C69.8652 210.812 69.6387 210.926 69.3809 211C69.127 211.078 68.8164 211.117 68.4492 211.117C68.0625 211.117 67.7168 211.047 67.4121 210.906C67.1074 210.762 66.8672 210.543 66.6914 210.25C66.5156 209.957 66.4277 209.586 66.4277 209.137C66.4277 208.469 66.6758 207.967 67.1719 207.631C67.6719 207.295 68.4258 207.109 69.4336 207.074L70.5586 207.033V206.693C70.5586 206.244 70.4531 205.924 70.2422 205.732C70.0352 205.541 69.7422 205.445 69.3633 205.445C69.0391 205.445 68.7246 205.492 68.4199 205.586C68.1152 205.68 67.8184 205.795 67.5293 205.932L67.084 204.959C67.4004 204.791 67.7598 204.654 68.1621 204.549C68.5684 204.443 68.9902 204.391 69.4277 204.391ZM70.5527 207.9L69.7148 207.93C69.0273 207.953 68.5449 208.07 68.2676 208.281C67.9902 208.492 67.8516 208.781 67.8516 209.148C67.8516 209.469 67.9473 209.703 68.1387 209.852C68.3301 209.996 68.582 210.068 68.8945 210.068C69.3711 210.068 69.7656 209.934 70.0781 209.664C70.3945 209.391 70.5527 208.99 70.5527 208.463V207.9ZM81.3223 209.148C81.3223 209.574 81.2188 209.934 81.0117 210.227C80.8047 210.52 80.502 210.742 80.1035 210.895C79.709 211.043 79.2246 211.117 78.6504 211.117C78.1973 211.117 77.8066 211.084 77.4785 211.018C77.1543 210.955 76.8477 210.857 76.5586 210.725V209.535C76.8672 209.68 77.2129 209.805 77.5957 209.91C77.9824 210.016 78.3477 210.068 78.6914 210.068C79.1445 210.068 79.4707 209.998 79.6699 209.857C79.8691 209.713 79.9688 209.521 79.9688 209.283C79.9688 209.143 79.9277 209.018 79.8457 208.908C79.7676 208.795 79.6191 208.68 79.4004 208.562C79.1855 208.441 78.8691 208.297 78.4512 208.129C78.041 207.965 77.6953 207.801 77.4141 207.637C77.1328 207.473 76.9199 207.275 76.7754 207.045C76.6309 206.811 76.5586 206.512 76.5586 206.148C76.5586 205.574 76.7852 205.139 77.2383 204.842C77.6953 204.541 78.2988 204.391 79.0488 204.391C79.4473 204.391 79.8223 204.432 80.1738 204.514C80.5293 204.592 80.877 204.707 81.2168 204.859L80.7832 205.896C80.4902 205.768 80.1953 205.662 79.8984 205.58C79.6055 205.494 79.3066 205.451 79.002 205.451C78.6465 205.451 78.375 205.506 78.1875 205.615C78.0039 205.725 77.9121 205.881 77.9121 206.084C77.9121 206.236 77.957 206.365 78.0469 206.471C78.1367 206.576 78.291 206.682 78.5098 206.787C78.7324 206.893 79.041 207.023 79.4355 207.18C79.8223 207.328 80.1562 207.484 80.4375 207.648C80.7227 207.809 80.9414 208.006 81.0938 208.24C81.2461 208.475 81.3223 208.777 81.3223 209.148ZM85.3535 204.391C86.1738 204.391 86.793 204.572 87.2109 204.936C87.6328 205.299 87.8438 205.865 87.8438 206.635V211H86.8652L86.6016 210.08H86.5547C86.3711 210.314 86.1816 210.508 85.9863 210.66C85.791 210.812 85.5645 210.926 85.3066 211C85.0527 211.078 84.7422 211.117 84.375 211.117C83.9883 211.117 83.6426 211.047 83.3379 210.906C83.0332 210.762 82.793 210.543 82.6172 210.25C82.4414 209.957 82.3535 209.586 82.3535 209.137C82.3535 208.469 82.6016 207.967 83.0977 207.631C83.5977 207.295 84.3516 207.109 85.3594 207.074L86.4844 207.033V206.693C86.4844 206.244 86.3789 205.924 86.168 205.732C85.9609 205.541 85.668 205.445 85.2891 205.445C84.9648 205.445 84.6504 205.492 84.3457 205.586C84.041 205.68 83.7441 205.795 83.4551 205.932L83.0098 204.959C83.3262 204.791 83.6855 204.654 84.0879 204.549C84.4941 204.443 84.916 204.391 85.3535 204.391ZM86.4785 207.9L85.6406 207.93C84.9531 207.953 84.4707 208.07 84.1934 208.281C83.916 208.492 83.7773 208.781 83.7773 209.148C83.7773 209.469 83.873 209.703 84.0645 209.852C84.2559 209.996 84.5078 210.068 84.8203 210.068C85.2969 210.068 85.6914 209.934 86.0039 209.664C86.3203 209.391 86.4785 208.99 86.4785 208.463V207.9ZM91.2539 211L88.7871 204.514H90.2461L91.582 208.322C91.668 208.564 91.7461 208.826 91.8164 209.107C91.8867 209.389 91.9355 209.625 91.9629 209.816H92.0098C92.0371 209.617 92.0898 209.379 92.168 209.102C92.2461 208.82 92.3262 208.561 92.4082 208.322L93.7441 204.514H95.1973L92.7305 211H91.2539ZM98.7656 204.391C99.3438 204.391 99.8398 204.51 100.254 204.748C100.668 204.986 100.986 205.324 101.209 205.762C101.432 206.199 101.543 206.723 101.543 207.332V208.07H97.2129C97.2285 208.699 97.3965 209.184 97.7168 209.523C98.041 209.863 98.4941 210.033 99.0762 210.033C99.4902 210.033 99.8613 209.994 100.189 209.916C100.521 209.834 100.863 209.715 101.215 209.559V210.678C100.891 210.83 100.561 210.941 100.225 211.012C99.8887 211.082 99.4863 211.117 99.0176 211.117C98.3809 211.117 97.8203 210.994 97.3359 210.748C96.8555 210.498 96.4785 210.127 96.2051 209.635C95.9355 209.143 95.8008 208.531 95.8008 207.801C95.8008 207.074 95.9238 206.457 96.1699 205.949C96.416 205.441 96.7617 205.055 97.207 204.789C97.6523 204.523 98.1719 204.391 98.7656 204.391ZM98.7656 205.428C98.332 205.428 97.9805 205.568 97.7109 205.85C97.4453 206.131 97.2891 206.543 97.2422 207.086H100.195C100.191 206.762 100.137 206.475 100.031 206.225C99.9297 205.975 99.7734 205.779 99.5625 205.639C99.3555 205.498 99.0898 205.428 98.7656 205.428ZM105.275 211.117C104.502 211.117 103.881 210.836 103.412 210.273C102.947 209.707 102.715 208.873 102.715 207.771C102.715 206.658 102.951 205.816 103.424 205.246C103.9 204.676 104.527 204.391 105.305 204.391C105.633 204.391 105.92 204.436 106.166 204.525C106.412 204.611 106.623 204.729 106.799 204.877C106.979 205.025 107.131 205.191 107.256 205.375H107.32C107.301 205.254 107.277 205.08 107.25 204.854C107.227 204.623 107.215 204.41 107.215 204.215V201.883H108.598V211H107.52L107.273 210.115H107.215C107.098 210.303 106.949 210.473 106.77 210.625C106.594 210.773 106.383 210.893 106.137 210.982C105.895 211.072 105.607 211.117 105.275 211.117ZM105.662 209.998C106.252 209.998 106.668 209.828 106.91 209.488C107.152 209.148 107.277 208.639 107.285 207.959V207.777C107.285 207.051 107.168 206.494 106.934 206.107C106.699 205.717 106.271 205.521 105.65 205.521C105.154 205.521 104.775 205.723 104.514 206.125C104.256 206.523 104.127 207.08 104.127 207.795C104.127 208.51 104.256 209.057 104.514 209.436C104.775 209.811 105.158 209.998 105.662 209.998ZM121.02 204.391C121.746 204.391 122.293 204.578 122.66 204.953C123.031 205.328 123.217 205.93 123.217 206.758V211H121.84V207.004C121.84 206.512 121.744 206.141 121.553 205.891C121.361 205.641 121.07 205.516 120.68 205.516C120.133 205.516 119.738 205.691 119.496 206.043C119.258 206.391 119.139 206.896 119.139 207.561V211H117.762V207.004C117.762 206.676 117.719 206.402 117.633 206.184C117.551 205.961 117.424 205.795 117.252 205.686C117.08 205.572 116.863 205.516 116.602 205.516C116.223 205.516 115.92 205.602 115.693 205.773C115.471 205.945 115.311 206.199 115.213 206.535C115.115 206.867 115.066 207.275 115.066 207.76V211H113.689V204.514H114.762L114.955 205.387H115.031C115.164 205.16 115.328 204.975 115.523 204.83C115.723 204.682 115.943 204.572 116.186 204.502C116.428 204.428 116.68 204.391 116.941 204.391C117.426 204.391 117.834 204.477 118.166 204.648C118.498 204.816 118.746 205.074 118.91 205.422H119.016C119.219 205.07 119.502 204.811 119.865 204.643C120.229 204.475 120.613 204.391 121.02 204.391ZM130.881 207.742C130.881 208.281 130.811 208.76 130.67 209.178C130.529 209.596 130.324 209.949 130.055 210.238C129.785 210.523 129.461 210.742 129.082 210.895C128.703 211.043 128.275 211.117 127.799 211.117C127.354 211.117 126.945 211.043 126.574 210.895C126.203 210.742 125.881 210.523 125.607 210.238C125.338 209.949 125.129 209.596 124.98 209.178C124.832 208.76 124.758 208.281 124.758 207.742C124.758 207.027 124.881 206.422 125.127 205.926C125.377 205.426 125.732 205.045 126.193 204.783C126.654 204.521 127.203 204.391 127.84 204.391C128.438 204.391 128.965 204.521 129.422 204.783C129.879 205.045 130.236 205.426 130.494 205.926C130.752 206.426 130.881 207.031 130.881 207.742ZM126.176 207.742C126.176 208.215 126.232 208.619 126.346 208.955C126.463 209.291 126.643 209.549 126.885 209.729C127.127 209.904 127.439 209.992 127.822 209.992C128.205 209.992 128.518 209.904 128.76 209.729C129.002 209.549 129.18 209.291 129.293 208.955C129.406 208.619 129.463 208.215 129.463 207.742C129.463 207.27 129.406 206.869 129.293 206.541C129.18 206.209 129.002 205.957 128.76 205.785C128.518 205.609 128.203 205.521 127.816 205.521C127.246 205.521 126.83 205.713 126.568 206.096C126.307 206.479 126.176 207.027 126.176 207.742ZM134.643 211.117C133.869 211.117 133.248 210.836 132.779 210.273C132.314 209.707 132.082 208.873 132.082 207.771C132.082 206.658 132.318 205.816 132.791 205.246C133.268 204.676 133.895 204.391 134.672 204.391C135 204.391 135.287 204.436 135.533 204.525C135.779 204.611 135.99 204.729 136.166 204.877C136.346 205.025 136.498 205.191 136.623 205.375H136.688C136.668 205.254 136.645 205.08 136.617 204.854C136.594 204.623 136.582 204.41 136.582 204.215V201.883H137.965V211H136.887L136.641 210.115H136.582C136.465 210.303 136.316 210.473 136.137 210.625C135.961 210.773 135.75 210.893 135.504 210.982C135.262 211.072 134.975 211.117 134.643 211.117ZM135.029 209.998C135.619 209.998 136.035 209.828 136.277 209.488C136.52 209.148 136.645 208.639 136.652 207.959V207.777C136.652 207.051 136.535 206.494 136.301 206.107C136.066 205.717 135.639 205.521 135.018 205.521C134.521 205.521 134.143 205.723 133.881 206.125C133.623 206.523 133.494 207.08 133.494 207.795C133.494 208.51 133.623 209.057 133.881 209.436C134.143 209.811 134.525 209.998 135.029 209.998ZM142.523 204.391C143.102 204.391 143.598 204.51 144.012 204.748C144.426 204.986 144.744 205.324 144.967 205.762C145.189 206.199 145.301 206.723 145.301 207.332V208.07H140.971C140.986 208.699 141.154 209.184 141.475 209.523C141.799 209.863 142.252 210.033 142.834 210.033C143.248 210.033 143.619 209.994 143.947 209.916C144.279 209.834 144.621 209.715 144.973 209.559V210.678C144.648 210.83 144.318 210.941 143.982 211.012C143.646 211.082 143.244 211.117 142.775 211.117C142.139 211.117 141.578 210.994 141.094 210.748C140.613 210.498 140.236 210.127 139.963 209.635C139.693 209.143 139.559 208.531 139.559 207.801C139.559 207.074 139.682 206.457 139.928 205.949C140.174 205.441 140.52 205.055 140.965 204.789C141.41 204.523 141.93 204.391 142.523 204.391ZM142.523 205.428C142.09 205.428 141.738 205.568 141.469 205.85C141.203 206.131 141.047 206.543 141 207.086H143.953C143.949 206.762 143.895 206.475 143.789 206.225C143.688 205.975 143.531 205.779 143.32 205.639C143.113 205.498 142.848 205.428 142.523 205.428ZM148.236 211H146.854V201.883H148.236V211ZM152.543 207.707C152.543 208.355 152.48 208.988 152.355 209.605C152.23 210.223 152.037 210.809 151.775 211.363C151.518 211.918 151.186 212.43 150.779 212.898H149.596C149.963 212.402 150.271 211.871 150.521 211.305C150.771 210.738 150.959 210.15 151.084 209.541C151.209 208.932 151.271 208.316 151.271 207.695C151.271 207.062 151.207 206.438 151.078 205.82C150.953 205.203 150.766 204.609 150.516 204.039C150.266 203.465 149.955 202.93 149.584 202.434H150.779C151.186 202.914 151.518 203.438 151.775 204.004C152.037 204.57 152.23 205.166 152.355 205.791C152.48 206.412 152.543 207.051 152.543 207.707Z" fill="#0079C1"/>
</svg>
